STARTFONT 2.1
COMMENT
COMMENT Converted from OpenType font "Q:\font stuff\winfont\NicoMoji-Regular.ttf" by "otf2bdf 3.0".
COMMENT
FONT -FreeType-Nico Moji-Medium-R-Normal--179-1800-72-72-P-1040-ISO10646-1
SIZE 180 72 72
FONTBOUNDINGBOX 199 232 -19 -52
STARTPROPERTIES 19
FOUNDRY "FreeType"
FAMILY_NAME "Nico Moji"
WEIGHT_NAME "Medium"
SLANT "R"
SETWIDTH_NAME "Normal"
ADD_STYLE_NAME ""
PIXEL_SIZE 179
POINT_SIZE 1800
RESOLUTION_X 72
RESOLUTION_Y 72
SPACING "P"
AVERAGE_WIDTH 1040
CHARSET_REGISTRY "ISO10646"
CHARSET_ENCODING "1"
FONT_ASCENT 154
FONT_DESCENT 25
COPYRIGHT "Copyright 2016 The Nico Moji Project Authors."
_OTF_FONTFILE "Q:\font stuff\winfont\NicoMoji-Regular.ttf"
_OTF_PSNAME "NicoMoji-Regular"
ENDPROPERTIES
CHARS 440
STARTCHAR 0020
ENCODING 32
SWIDTH 500 0
DWIDTH 90 0
BBX 0 0 0 0
BITMAP
ENDCHAR
STARTCHAR 0021
ENCODING 33
SWIDTH 311 0
DWIDTH 56 0
BBX 28 118 14 -2
BITMAP
007FC000
01FFF000
03FFFC00
07FFFE00
0FFFFF00
1FFFFF00
1FFFFF80
1FFFFF80
3FFFFF80
3FFFFFC0
3FFFFFC0
3FFFFFC0
3FFFFFC0
3FFFFFC0
3FFFFFC0
3FFFFFC0
3FFFFFC0
3FFFFFC0
3FFFFFC0
3FFFFFC0
3FFFFFC0
3FFFFFC0
3FFFFFC0
3FFFFFC0
3FFFFFC0
3FFFFFC0
3FFFFFC0
3FFFFFC0
3FFFFFC0
3FFFFFC0
3FFFFFC0
3FFFFFC0
3FFFFFC0
3FFFFFC0
3FFFFFC0
3FFFFFC0
3FFFFFC0
3FFFFFC0
3FFFFFC0
3FFFFFC0
3FFFFFC0
3FFFFFC0
3FFFFFC0
3FFFFFC0
3FFFFFC0
3FFFFFC0
3FFFFFC0
3FFFFFC0
3FFFFFC0
3FFFFFC0
3FFFFFC0
3FFFFFC0
3FFFFFC0
3FFFFFC0
3FFFFFC0
3FFFFFC0
3FFFFFC0
3FFFFFC0
3FFFFFC0
3FFFFFC0
3FFFFFC0
3FFFFFC0
3FFFFFC0
3FFFFFC0
3FFFFFC0
3FFFFFC0
3FFFFFC0
3FFFFFC0
3FFFFFC0
3FFFFFC0
3FFFFFC0
3FFFFFC0
3FFFFFC0
3FFFFFC0
3FFFFF80
1FFFFF80
1FFFFF80
0FFFFF00
0FFFFE00
07FFFE00
03FFFC00
00FFF000
003FC000
00000000
00000000
00000000
00000000
00000000
00000000
00000000
00000000
00000000
00000000
00000000
003FC000
01FFF800
07FFFE00
0FFFFF00
1FFFFF80
3FFFFFC0
7FFFFFE0
7FFFFFE0
FFFFFFF0
FFFFFFF0
FFFFFFF0
FFFFFFF0
FFFFFFF0
FFFFFFF0
FFFFFFF0
FFFFFFF0
FFFFFFE0
7FFFFFE0
3FFFFFC0
1FFFFF80
0FFFFF00
07FFFE00
01FFF800
007FE000
ENDCHAR
STARTCHAR 0022
ENCODING 34
SWIDTH 572 0
DWIDTH 103 0
BBX 71 63 16 77
BITMAP
00FFC000000007FE00
03FFF00000001FFF80
07FFF80000003FFFC0
0FFFFC0000007FFFE0
1FFFFE000000FFFFF0
3FFFFF000001FFFFF8
3FFFFF800001FFFFFC
7FFFFF800003FFFFFC
7FFFFFC00003FFFFFE
7FFFFFC00007FFFFFE
FFFFFFC00007FFFFFE
FFFFFFC00007FFFFFE
FFFFFFC00007FFFFFE
FFFFFFC00007FFFFFE
FFFFFFC00007FFFFFE
FFFFFFC00007FFFFFE
FFFFFFC00007FFFFFE
FFFFFFC00007FFFFFE
FFFFFFC00007FFFFFE
FFFFFFC00007FFFFFE
FFFFFFC00007FFFFFE
FFFFFFC00007FFFFFE
FFFFFFC00007FFFFFE
7FFFFFC00003FFFFFE
7FFFFFC00003FFFFFE
7FFFFFC00003FFFFFE
7FFFFFC00003FFFFFE
7FFFFF800003FFFFFC
7FFFFF800003FFFFFC
7FFFFF800003FFFFFC
7FFFFF800003FFFFFC
7FFFFF800003FFFFFC
3FFFFF800001FFFFFC
3FFFFF800001FFFFFC
3FFFFF000001FFFFF8
3FFFFF000001FFFFF8
3FFFFF000001FFFFF8
3FFFFF000001FFFFF8
3FFFFF000001FFFFF8
1FFFFF000000FFFFF8
1FFFFF000000FFFFF8
1FFFFE000000FFFFF0
1FFFFE000000FFFFF0
1FFFFE000000FFFFF0
1FFFFE000000FFFFF0
1FFFFE000000FFFFF0
1FFFFE000000FFFFF0
0FFFFE0000007FFFF0
0FFFFE0000007FFFF0
0FFFFC0000007FFFE0
0FFFFC0000007FFFE0
0FFFFC0000007FFFE0
0FFFFC0000007FFFE0
0FFFFC0000007FFFE0
07FFFC0000003FFFE0
07FFFC0000003FFFE0
07FFF80000003FFFC0
07FFF80000003FFFC0
03FFF80000001FFFC0
03FFF00000001FFF80
01FFE00000000FFF00
00FFC000000007FE00
007F8000000003FC00
ENDCHAR
STARTCHAR 0023
ENCODING 35
SWIDTH 588 0
DWIDTH 106 0
BBX 93 133 7 -1
BITMAP
000000007000000000C00000
00000001FE00000007F80000
00000007FF0000000FFC0000
0000000FFF8000003FFE0000
0000001FFF8000003FFE0000
0000001FFF8000007FFF0000
0000003FFFC000007FFF0000
0000003FFFC000007FFF0000
0000003FFF800000FFFF0000
0000003FFF800000FFFF0000
0000003FFF800000FFFF0000
0000003FFF800000FFFF0000
0000003FFF800000FFFF0000
0000007FFF800000FFFE0000
0000007FFF800000FFFE0000
0000007FFF800000FFFE0000
0000007FFF800001FFFE0000
0000007FFF000001FFFE0000
0000007FFF000001FFFE0000
0000007FFF000001FFFE0000
0000007FFF000001FFFE0000
000000FFFF000001FFFC0000
000000FFFF000001FFFC0000
000000FFFF000003FFFC0000
000000FFFF000003FFFC0000
000000FFFE000003FFFC0000
000000FFFE000003FFFC0000
000000FFFE000003FFFC0000
000001FFFE000003FFFC0000
000001FFFE000003FFFC0000
000001FFFE000003FFF80000
000001FFFE000007FFF80000
000001FFFE000007FFF80000
000001FFFE000007FFF80000
000003FFFE000007FFF80000
003FFFFFFFFFFFFFFFFFFE00
00FFFFFFFFFFFFFFFFFFFF80
01FFFFFFFFFFFFFFFFFFFFC0
03FFFFFFFFFFFFFFFFFFFFE0
07FFFFFFFFFFFFFFFFFFFFF0
07FFFFFFFFFFFFFFFFFFFFF0
0FFFFFFFFFFFFFFFFFFFFFF8
0FFFFFFFFFFFFFFFFFFFFFF8
0FFFFFFFFFFFFFFFFFFFFFF8
0FFFFFFFFFFFFFFFFFFFFFF8
0FFFFFFFFFFFFFFFFFFFFFF8
07FFFFFFFFFFFFFFFFFFFFF0
07FFFFFFFFFFFFFFFFFFFFF0
03FFFFFFFFFFFFFFFFFFFFE0
01FFFFFFFFFFFFFFFFFFFFC0
00FFFFFFFFFFFFFFFFFFFF80
003FFFFFFFFFFFFFFFFFFE00
00000FFFF800003FFFE00000
00000FFFF000001FFFE00000
00000FFFF000001FFFC00000
00000FFFF000001FFFC00000
00000FFFF000003FFFC00000
00000FFFF000003FFFC00000
00000FFFF000003FFFC00000
00000FFFE000003FFFC00000
00001FFFE000003FFFC00000
00001FFFE000003FFFC00000
00001FFFE000003FFFC00000
00001FFFE000003FFF800000
00001FFFE000007FFF800000
00001FFFE000007FFF800000
00001FFFE000007FFF800000
00001FFFC000007FFF800000
00003FFFC000007FFF800000
00003FFFC000007FFF800000
00003FFFC000007FFF800000
00003FFFC000007FFF000000
00003FFFC00000FFFF000000
00003FFFC00000FFFF000000
00003FFFC00000FFFF000000
00003FFF800000FFFF000000
00007FFFC00001FFFF000000
03FFFFFFFFFFFFFFFFFFE000
0FFFFFFFFFFFFFFFFFFFF800
3FFFFFFFFFFFFFFFFFFFFC00
3FFFFFFFFFFFFFFFFFFFFE00
7FFFFFFFFFFFFFFFFFFFFF00
7FFFFFFFFFFFFFFFFFFFFF00
FFFFFFFFFFFFFFFFFFFFFF80
FFFFFFFFFFFFFFFFFFFFFF80
FFFFFFFFFFFFFFFFFFFFFF80
FFFFFFFFFFFFFFFFFFFFFF80
FFFFFFFFFFFFFFFFFFFFFF80
7FFFFFFFFFFFFFFFFFFFFF00
7FFFFFFFFFFFFFFFFFFFFF00
3FFFFFFFFFFFFFFFFFFFFE00
1FFFFFFFFFFFFFFFFFFFFC00
0FFFFFFFFFFFFFFFFFFFF800
03FFFFFFFFFFFFFFFFFFE000
0001FFFF000007FFFC000000
0001FFFE000003FFFC000000
0001FFFE000003FFF8000000
0001FFFE000007FFF8000000
0001FFFE000007FFF8000000
0001FFFE000007FFF8000000
0001FFFE000007FFF8000000
0001FFFC000007FFF8000000
0003FFFC000007FFF8000000
0003FFFC000007FFF8000000
0003FFFC000007FFF0000000
0003FFFC00000FFFF0000000
0003FFFC00000FFFF0000000
0003FFFC00000FFFF0000000
0003FFFC00000FFFF0000000
0003FFF800000FFFF0000000
0003FFF800000FFFF0000000
0007FFF800000FFFF0000000
0007FFF800000FFFE0000000
0007FFF800001FFFE0000000
0007FFF800001FFFE0000000
0007FFF800001FFFE0000000
0007FFF800001FFFE0000000
0007FFF000001FFFE0000000
0007FFF000001FFFE0000000
000FFFF000001FFFE0000000
000FFFF000001FFFE0000000
000FFFF000001FFFC0000000
000FFFF000003FFFC0000000
000FFFF000003FFFC0000000
000FFFF000003FFFC0000000
000FFFE000003FFFC0000000
000FFFE000003FFFC0000000
000FFFE000003FFF80000000
000FFFC000001FFF80000000
0007FFC000001FFF00000000
0007FF8000000FFE00000000
0003FF00000007FC00000000
0000FC00000003F000000000
ENDCHAR
STARTCHAR 0024
ENCODING 36
SWIDTH 588 0
DWIDTH 106 0
BBX 82 174 12 -22
BITMAP
0000000007F80000000000
000000000FFC0000000000
000000003FFF0000000000
000000003FFF0000000000
000000007FFF8000000000
000000007FFF8000000000
00000000FFFFC000000000
00000000FFFFC000000000
00000000FFFFC000000000
00000000FFFFC000000000
00000000FFFFC000000000
00000000FFFFC000000000
00000000FFFFC000000000
00000000FFFFC000000000
00000000FFFFC000000000
00000000FFFFC000000000
00000000FFFFC000000000
00000000FFFFC000000000
00000000FFFFC000000000
00000000FFFFC000000000
00000001FFFFF000000000
0000000FFFFFFF00000000
0000007FFFFFFFE0000000
000001FFFFFFFFFC000000
00000FFFFFFFFFFF000000
00003FFFFFFFFFFFC00000
00007FFFFFFFFFFFF00000
0001FFFFFFFFFFFFF80000
0003FFFFFFFFFFFFFE0000
0007FFFFFFFFFFFFFF0000
000FFFFFFFFFFFFFFF8000
001FFFFFFFFFFFFFFFC000
003FFFFFFFFFFFFFFFE000
007FFFFFFFFFFFFFFFE000
00FFFFFFFFFFFFFFFFF000
00FFFFFFFFFFFFFFFFF000
01FFFFFFFFFFFFFFFFF000
03FFFFFFFFFFFFFFFFF000
03FFFFFFFFFFFFFFFFF000
07FFFFFFFFFFFFFFFFF000
07FFFFFFFFFFFFFFFFF000
0FFFFFFFFE00FFFFFFE000
0FFFFFFFE0000FFFFFE000
0FFFFFFF800001FFFFC000
1FFFFFFF0000007FFF8000
1FFFFFFE0000001FFF0000
1FFFFFFC00000007FC0000
3FFFFFF800000000E00000
3FFFFFF800000000000000
3FFFFFF000000000000000
3FFFFFF000000000000000
3FFFFFE000000000000000
3FFFFFE000000000000000
3FFFFFE000000000000000
7FFFFFE000000000000000
7FFFFFE000000000000000
7FFFFFE000000000000000
7FFFFFE000000000000000
7FFFFFE000000000000000
7FFFFFE000000000000000
3FFFFFF000000000000000
3FFFFFF000000000000000
3FFFFFF800000000000000
3FFFFFF800000000000000
3FFFFFFC00000000000000
3FFFFFFE00000000000000
1FFFFFFF00000000000000
1FFFFFFF80000000000000
1FFFFFFFE0000000000000
0FFFFFFFF0000000000000
0FFFFFFFFC000000000000
07FFFFFFFF000000000000
07FFFFFFFF800000000000
03FFFFFFFFE00000000000
03FFFFFFFFF80000000000
01FFFFFFFFFE0000000000
00FFFFFFFFFF8000000000
00FFFFFFFFFFE000000000
007FFFFFFFFFF800000000
003FFFFFFFFFFE00000000
001FFFFFFFFFFF80000000
000FFFFFFFFFFFE0000000
0003FFFFFFFFFFF8000000
0001FFFFFFFFFFFE000000
0000FFFFFFFFFFFF000000
00007FFFFFFFFFFF800000
00001FFFFFFFFFFFE00000
00000FFFFFFFFFFFF00000
000003FFFFFFFFFFF80000
000000FFFFFFFFFFFC0000
0000007FFFFFFFFFFE0000
0000001FFFFFFFFFFF8000
00000007FFFFFFFFFFC000
00000001FFFFFFFFFFC000
000000007FFFFFFFFFE000
000000001FFFFFFFFFF000
0000000007FFFFFFFFF800
0000000001FFFFFFFFF800
00000000007FFFFFFFFC00
00000000003FFFFFFFFC00
00000000000FFFFFFFFE00
000000000003FFFFFFFE00
000000000001FFFFFFFF00
000000000000FFFFFFFF00
0000000000003FFFFFFF00
0000000000001FFFFFFF80
0000000000000FFFFFFF80
00000000000007FFFFFF80
00000000000007FFFFFF80
00000000000003FFFFFF80
00000000000003FFFFFFC0
00000000000001FFFFFFC0
00000000000001FFFFFFC0
00000000000000FFFFFFC0
00000000000000FFFFFFC0
00000000000000FFFFFFC0
00000000000000FFFFFFC0
00000000000000FFFFFFC0
00000000000000FFFFFFC0
00000000000000FFFFFFC0
00000000000000FFFFFFC0
00000000000000FFFFFF80
00000000000001FFFFFF80
00000000000001FFFFFF80
00000000000001FFFFFF80
00FC0000000003FFFFFF80
07FF8000000003FFFFFF80
0FFFC000000007FFFFFF00
1FFFF00000000FFFFFFF00
3FFFFC0000001FFFFFFF00
3FFFFF8000007FFFFFFE00
7FFFFFF00001FFFFFFFE00
7FFFFFFF000FFFFFFFFC00
FFFFFFFFFFFFFFFFFFFC00
FFFFFFFFFFFFFFFFFFF800
FFFFFFFFFFFFFFFFFFF800
FFFFFFFFFFFFFFFFFFF000
FFFFFFFFFFFFFFFFFFF000
FFFFFFFFFFFFFFFFFFE000
7FFFFFFFFFFFFFFFFFC000
7FFFFFFFFFFFFFFFFF8000
3FFFFFFFFFFFFFFFFF8000
3FFFFFFFFFFFFFFFFF0000
1FFFFFFFFFFFFFFFFE0000
0FFFFFFFFFFFFFFFFC0000
03FFFFFFFFFFFFFFF00000
00FFFFFFFFFFFFFFE00000
003FFFFFFFFFFFFFC00000
000FFFFFFFFFFFFF000000
0003FFFFFFFFFFFC000000
00007FFFFFFFFFF0000000
00001FFFFFFFFF80000000
000001FFFFFFFC00000000
0000000FFFFFE000000000
00000001FFFFC000000000
00000000FFFFC000000000
00000000FFFFC000000000
00000000FFFFC000000000
00000000FFFFC000000000
00000000FFFFC000000000
00000000FFFFC000000000
00000000FFFFC000000000
00000000FFFFC000000000
00000000FFFFC000000000
00000000FFFFC000000000
00000000FFFFC000000000
00000000FFFFC000000000
00000000FFFFC000000000
000000007FFF8000000000
000000007FFF8000000000
000000003FFF0000000000
000000003FFF0000000000
000000000FFE0000000000
0000000007F80000000000
ENDCHAR
STARTCHAR 0025
ENCODING 37
SWIDTH 961 0
DWIDTH 173 0
BBX 162 138 6 -2
BITMAP
0000001FFC0000000000000000007E000000000000
000001FFFFC00000000000000001FF000000000000
00000FFFFFF80000000000000007FF800000000000
00003FFFFFFE000000000000000FFF800000000000
0000FFFFFFFF800000000000001FFFC00000000000
0001FFFFFFFFC00000000000003FFFC00000000000
0007FFFFFFFFE00000000000003FFF800000000000
000FFFFFFFFFF00000000000007FFF800000000000
001FFFFFFFFFFC0000000000007FFF000000000000
003FFFFFFFFFFC000000000000FFFF000000000000
007FFFFFFFFFFE000000000000FFFE000000000000
007FFFFFFFFFFF000000000001FFFE000000000000
00FFFFFFFFFFFF800000000003FFFC000000000000
01FFFFFFFFFFFFC00000000003FFFC000000000000
01FFFFFFFFFFFFC00000000007FFF8000000000000
03FFFFF80FFFFFE00000000007FFF8000000000000
07FFFFE003FFFFE0000000000FFFF0000000000000
07FFFFC001FFFFF0000000000FFFF0000000000000
0FFFFF8000FFFFF0000000001FFFE0000000000000
0FFFFF00007FFFF8000000001FFFC0000000000000
0FFFFE00003FFFF8000000003FFFC0000000000000
1FFFFE00003FFFFC000000003FFF80000000000000
1FFFFC00001FFFFC000000007FFF80000000000000
1FFFFC00001FFFFC000000007FFF00000000000000
3FFFF800000FFFFE00000000FFFF00000000000000
3FFFF800000FFFFE00000000FFFE00000000000000
3FFFF800000FFFFE00000001FFFE00000000000000
7FFFF0000007FFFE00000001FFFC00000000000000
7FFFF0000007FFFF00000003FFFC00000000000000
7FFFF0000007FFFF00000003FFF800000000000000
7FFFF0000007FFFF00000007FFF800000000000000
7FFFF0000007FFFF00000007FFF000000000000000
7FFFF0000007FFFF0000000FFFF000000000000000
FFFFE0000003FFFF8000001FFFE000000000000000
FFFFE0000003FFFF8000001FFFE000000000000000
FFFFE0000003FFFF8000003FFFC000000000000000
FFFFE0000003FFFF8000003FFFC000000000000000
FFFFE0000003FFFF8000007FFF8000000000000000
FFFFE0000003FFFF8000007FFF0000000000000000
FFFFE0000003FFFF800000FFFF0000000000000000
FFFFE0000003FFFF800000FFFE0000000000000000
FFFFE0000003FFFF800001FFFE0000000000000000
FFFFE0000003FFFF800001FFFC0000000000000000
FFFFE0000003FFFF800003FFFC0000000000000000
FFFFE0000003FFFF800003FFF80000000000000000
FFFFE0000003FFFF800007FFF80000000000000000
FFFFE0000003FFFF800007FFF00000000000000000
FFFFE0000003FFFF80000FFFF00000000000000000
FFFFE0000003FFFF80000FFFE00000000000000000
FFFFE0000003FFFF80001FFFE00000000000000000
FFFFE0000003FFFF80001FFFC00000000000000000
7FFFE0000007FFFF00003FFFC00000000000000000
7FFFF0000007FFFF00007FFF800000000000000000
7FFFF0000007FFFF00007FFF800000000000000000
7FFFF0000007FFFF0000FFFF0000000FFE00000000
7FFFF0000007FFFF0000FFFF000000FFFFE0000000
7FFFF0000007FFFF0001FFFE000007FFFFFC000000
3FFFF800000FFFFE0001FFFC00001FFFFFFF000000
3FFFF800000FFFFE0003FFFC00007FFFFFFFC00000
3FFFF800000FFFFE0003FFF80000FFFFFFFFE00000
3FFFF800001FFFFE0007FFF80003FFFFFFFFF00000
1FFFFC00001FFFFC0007FFF00007FFFFFFFFFC0000
1FFFFC00001FFFFC000FFFF0000FFFFFFFFFFE0000
1FFFFE00003FFFFC000FFFE0001FFFFFFFFFFF0000
0FFFFE00007FFFF8001FFFE0003FFFFFFFFFFF0000
0FFFFF00007FFFF8001FFFC0003FFFFFFFFFFF8000
07FFFF8000FFFFF0003FFFC0007FFFFFFFFFFFC000
07FFFFC001FFFFF0003FFF8000FFFFFFFFFFFFE000
03FFFFE003FFFFE0007FFF8000FFFFFFFFFFFFE000
03FFFFF80FFFFFE0007FFF0001FFFFFC0FFFFFF000
01FFFFFFFFFFFFC000FFFF0003FFFFF003FFFFF800
01FFFFFFFFFFFFC000FFFE0003FFFFC000FFFFF800
00FFFFFFFFFFFF8001FFFE0007FFFF80007FFFF800
007FFFFFFFFFFF0003FFFC0007FFFF00003FFFFC00
003FFFFFFFFFFE0003FFFC0007FFFE00001FFFFC00
003FFFFFFFFFFC0007FFF8000FFFFE00001FFFFE00
001FFFFFFFFFF80007FFF0000FFFFC00000FFFFE00
000FFFFFFFFFF0000FFFF0001FFFFC00000FFFFE00
0003FFFFFFFFE0000FFFE0001FFFF8000007FFFF00
0001FFFFFFFFC0001FFFE0001FFFF8000007FFFF00
0000FFFFFFFF80001FFFC0001FFFF8000007FFFF00
00003FFFFFFE00003FFFC0003FFFF0000003FFFF80
00000FFFFFF800003FFF80003FFFF0000003FFFF80
000001FFFFC000007FFF80003FFFF0000003FFFF80
0000003FFC0000007FFF00003FFFF0000003FFFF80
0000000000000000FFFF00003FFFF0000003FFFF80
0000000000000000FFFE00003FFFF0000003FFFF80
0000000000000001FFFE00007FFFE0000001FFFFC0
0000000000000001FFFC00007FFFE0000001FFFFC0
0000000000000003FFFC00007FFFE0000001FFFFC0
0000000000000003FFF800007FFFE0000001FFFFC0
0000000000000007FFF800007FFFE0000001FFFFC0
000000000000000FFFF000007FFFE0000001FFFFC0
000000000000000FFFF000007FFFE0000001FFFFC0
000000000000001FFFE000007FFFE0000001FFFFC0
000000000000001FFFC000007FFFE0000001FFFFC0
000000000000003FFFC000007FFFE0000001FFFFC0
000000000000003FFF8000007FFFE0000001FFFFC0
000000000000007FFF8000007FFFE0000001FFFFC0
000000000000007FFF0000007FFFE0000001FFFFC0
00000000000000FFFF0000007FFFE0000001FFFFC0
00000000000000FFFE0000007FFFE0000001FFFFC0
00000000000001FFFE0000007FFFE0000001FFFFC0
00000000000001FFFC0000007FFFE0000001FFFFC0
00000000000003FFFC0000007FFFE0000001FFFFC0
00000000000003FFF80000003FFFF0000003FFFF80
00000000000007FFF80000003FFFF0000003FFFF80
00000000000007FFF00000003FFFF0000003FFFF80
0000000000000FFFF00000003FFFF0000003FFFF80
0000000000000FFFE00000003FFFF0000003FFFF80
0000000000001FFFE00000003FFFF8000007FFFF00
0000000000001FFFC00000001FFFF8000007FFFF00
0000000000003FFFC00000001FFFF8000007FFFF00
0000000000007FFF800000001FFFF800000FFFFF00
0000000000007FFF000000000FFFFC00000FFFFE00
000000000000FFFF000000000FFFFC00000FFFFE00
000000000000FFFE000000000FFFFE00001FFFFE00
000000000001FFFE0000000007FFFF00003FFFFC00
000000000001FFFC0000000007FFFF00003FFFFC00
000000000003FFFC0000000003FFFF80007FFFF800
000000000003FFF80000000003FFFFC000FFFFF800
000000000007FFF80000000001FFFFF003FFFFF000
000000000007FFF00000000001FFFFFC0FFFFFF000
00000000000FFFF00000000000FFFFFFFFFFFFE000
00000000000FFFE00000000000FFFFFFFFFFFFE000
00000000001FFFE000000000007FFFFFFFFFFFC000
00000000001FFFC000000000003FFFFFFFFFFF8000
00000000003FFFC000000000001FFFFFFFFFFF0000
00000000003FFF8000000000001FFFFFFFFFFE0000
00000000007FFF8000000000000FFFFFFFFFFC0000
00000000007FFF00000000000007FFFFFFFFF80000
0000000000FFFF00000000000001FFFFFFFFF00000
0000000000FFFE00000000000000FFFFFFFFE00000
0000000000FFFC000000000000007FFFFFFF800000
0000000000FFF8000000000000001FFFFFFF000000
0000000000FFF00000000000000007FFFFFC000000
00000000007FC00000000000000000FFFFE0000000
00000000003F0000000000000000000FFE00000000
ENDCHAR
STARTCHAR 0026
ENCODING 38
SWIDTH 738 0
DWIDTH 133 0
BBX 122 138 5 -2
BITMAP
000000000007FFE00000000000000000
00000000007FFFFE0000000000000000
0000000003FFFFFFC000000000000000
000000001FFFFFFFF000000000000000
000000007FFFFFFFFC00000000000000
00000000FFFFFFFFFF00000000000000
00000003FFFFFFFFFF80000000000000
00000007FFFFFFFFFFC0000000000000
0000000FFFFFFFFFFFE0000000000000
0000001FFFFFFFFFFFF0000000000000
0000003FFFFFFFFFFFF8000000000000
0000007FFFFFFFFFFFFC000000000000
000000FFFFFFFFFFFFFC000000000000
000001FFFFFFFFFFFFFE000000000000
000001FFFFFFFFFFFFFF000000000000
000003FFFFFFFFFFFFFF000000000000
000007FFFFFFFFFFFFFF800000000000
000007FFFFFFFFFFFFFF800000000000
00000FFFFFFF80FFFFFF800000000000
00000FFFFFFC003FFFFFC00000000000
00001FFFFFF8001FFFFFC00000000000
00001FFFFFF0000FFFFFC00000000000
00001FFFFFE0000FFFFFC00000000000
00003FFFFFC00007FFFFE00000000000
00003FFFFF800007FFFFE00000000000
00003FFFFF800003FFFFE00000000000
00003FFFFF000003FFFFE00000000000
00007FFFFF000003FFFFE00000000000
00007FFFFF000003FFFFE00000000000
00007FFFFE000003FFFFE00000000000
00007FFFFE000003FFFFE00000000000
00007FFFFE000003FFFFE00000000000
00007FFFFE000003FFFFE00000000000
00007FFFFE000003FFFFE00000000000
00007FFFFE000007FFFFE00000000000
00007FFFFE000007FFFFC00000000000
00007FFFFE000007FFFFC00000000000
00007FFFFE00000FFFFFC00000000000
00007FFFFE00001FFFFF800000000000
00007FFFFE00001FFFFF800000000000
00003FFFFF00003FFFFF800000000000
00003FFFFF00007FFFFF000000000000
00003FFFFF0000FFFFFF000000000000
00003FFFFF0001FFFFFE000000000000
00003FFFFF8003FFFFFE000000000000
00001FFFFF8007FFFFFC000000000000
00001FFFFF800FFFFFFC000000000000
00001FFFFFC01FFFFFF8000000000000
00001FFFFFC07FFFFFF0000000000000
00000FFFFFE0FFFFFFE0000000000000
00000FFFFFE3FFFFFFC0000000000000
00000FFFFFF7FFFFFF80000000000000
000007FFFFFFFFFFFF80000000000000
000007FFFFFFFFFFFF00000000000000
000003FFFFFFFFFFFE00000000000000
000003FFFFFFFFFFFC00000000000000
000003FFFFFFFFFFF000000000000000
000001FFFFFFFFFFE000000000000000
000001FFFFFFFFFFC000000000000000
000000FFFFFFFFFF8000000000000000
000000FFFFFFFFFF0000000000000000
0000007FFFFFFFFC000000000007C000
0000007FFFFFFFF800000000007FF000
000000FFFFFFFFF00000000001FFF800
000001FFFFFFFFC00000000003FFFC00
000007FFFFFFFF800000000007FFFE00
00000FFFFFFFFF00000000000FFFFF00
00003FFFFFFFFE00000000001FFFFF00
00007FFFFFFFFE00000000003FFFFF00
0000FFFFFFFFFF00000000007FFFFF00
0001FFFFFFFFFF80000000007FFFFF00
0003FFFFFFFFFFC000000000FFFFFF00
0007FFFFFFFFFFC000000000FFFFFF00
000FFFFFFFFFFFE000000001FFFFFE00
001FFFFFFFFFFFF000000001FFFFFE00
003FFFFFFFFFFFF800000003FFFFFC00
007FFFFFFFFFFFFC00000003FFFFFC00
00FFFFFFFFFFFFFE00000003FFFFFC00
01FFFFFFFFFFFFFF00000007FFFFF800
01FFFFFFFFFFFFFF80000007FFFFF800
03FFFFFFFFFFFFFFC000000FFFFFF000
07FFFFFFE3FFFFFFE000000FFFFFF000
07FFFFFFC3FFFFFFF000001FFFFFE000
0FFFFFFF81FFFFFFF800001FFFFFE000
0FFFFFFF00FFFFFFFC00003FFFFFC000
1FFFFFFE007FFFFFFF00007FFFFFC000
1FFFFFFC003FFFFFFF80007FFFFF8000
3FFFFFFC003FFFFFFFC000FFFFFF8000
3FFFFFF8001FFFFFFFE000FFFFFF0000
3FFFFFF0000FFFFFFFF001FFFFFF0000
3FFFFFF00007FFFFFFF803FFFFFE0000
7FFFFFE00003FFFFFFFE03FFFFFE0000
7FFFFFE00001FFFFFFFF07FFFFFC0000
7FFFFFC00000FFFFFFFF8FFFFFFC0000
7FFFFFC000007FFFFFFFFFFFFFF80000
7FFFFFC000003FFFFFFFFFFFFFF80000
7FFFFFC000001FFFFFFFFFFFFFF00000
7FFFFFC000000FFFFFFFFFFFFFE00000
FFFFFFC0000007FFFFFFFFFFFFE00000
FFFFFFC0000003FFFFFFFFFFFFC00000
FFFFFFC0000001FFFFFFFFFFFF800000
FFFFFFC0000000FFFFFFFFFFFF800000
7FFFFFC00000007FFFFFFFFFFF000000
7FFFFFC00000003FFFFFFFFFFE000000
7FFFFFC00000001FFFFFFFFFFE000000
7FFFFFE00000000FFFFFFFFFFC000000
7FFFFFE000000007FFFFFFFFFC000000
7FFFFFF000000003FFFFFFFFFC000000
7FFFFFF000000001FFFFFFFFFF000000
7FFFFFF8000000007FFFFFFFFFC00000
3FFFFFF8000000003FFFFFFFFFF00000
3FFFFFFC000000003FFFFFFFFFFC0000
3FFFFFFE000000007FFFFFFFFFFF0000
1FFFFFFF80000001FFFFFFFFFFFFC000
1FFFFFFFC0000007FFFFFFFFFFFFF000
0FFFFFFFF000001FFFFFFFFFFFFFF800
0FFFFFFFFC0000FFFFFFFFFFFFFFFC00
07FFFFFFFFC00FFFFFFFFFFFFFFFFE00
07FFFFFFFFFFFFFFFFFFFFFFFFFFFF00
03FFFFFFFFFFFFFFFFFFFFFFFFFFFF80
03FFFFFFFFFFFFFFFFFFFFFFFFFFFF80
01FFFFFFFFFFFFFFFFFFFFFFFFFFFF80
00FFFFFFFFFFFFFFFFFFFFFFFFFFFFC0
007FFFFFFFFFFFFFFFFFFFFFFFFFFFC0
007FFFFFFFFFFFFFFFFFFFFFFFFFFFC0
003FFFFFFFFFFFFFFFFFE1FFFFFFFFC0
001FFFFFFFFFFFFFFFFFC07FFFFFFFC0
000FFFFFFFFFFFFFFFFF001FFFFFFF80
0003FFFFFFFFFFFFFFFE0007FFFFFF80
0001FFFFFFFFFFFFFFF80001FFFFFF00
0000FFFFFFFFFFFFFFE000007FFFFF00
00003FFFFFFFFFFFFF8000001FFFFE00
00001FFFFFFFFFFFFE00000007FFFC00
000007FFFFFFFFFFF800000000FFF800
000000FFFFFFFFFFC0000000003FE000
0000003FFFFFFFFE0000000000020000
00000003FFFFFFE00000000000000000
000000000FFFF8000000000000000000
ENDCHAR
STARTCHAR 0027
ENCODING 39
SWIDTH 322 0
DWIDTH 58 0
BBX 26 63 16 77
BITMAP
00FFC000
03FFF000
07FFF800
0FFFFC00
1FFFFE00
3FFFFF00
3FFFFF80
7FFFFF80
7FFFFFC0
7FFFFFC0
FFFFFFC0
FFFFFFC0
FFFFFFC0
FFFFFFC0
FFFFFFC0
FFFFFFC0
FFFFFFC0
FFFFFFC0
FFFFFFC0
FFFFFFC0
FFFFFFC0
FFFFFFC0
FFFFFFC0
7FFFFFC0
7FFFFFC0
7FFFFFC0
7FFFFFC0
7FFFFF80
7FFFFF80
7FFFFF80
7FFFFF80
7FFFFF80
3FFFFF80
3FFFFF80
3FFFFF00
3FFFFF00
3FFFFF00
3FFFFF00
3FFFFF00
1FFFFF00
1FFFFF00
1FFFFE00
1FFFFE00
1FFFFE00
1FFFFE00
1FFFFE00
1FFFFE00
0FFFFE00
0FFFFE00
0FFFFC00
0FFFFC00
0FFFFC00
0FFFFC00
0FFFFC00
07FFFC00
07FFFC00
07FFF800
07FFF800
03FFF800
03FFF000
01FFE000
00FFC000
007F8000
ENDCHAR
STARTCHAR 0028
ENCODING 40
SWIDTH 377 0
DWIDTH 68 0
BBX 40 181 15 -35
BITMAP
0000000F80
0000007FF0
000000FFF8
000001FFFC
000003FFFE
000003FFFE
000007FFFE
000007FFFF
00000FFFFF
00000FFFFF
00001FFFFE
00001FFFFE
00003FFFFE
00003FFFFC
00007FFFFC
00007FFFF8
0000FFFFF8
0000FFFFF0
0001FFFFF0
0001FFFFE0
0003FFFFE0
0003FFFFE0
0003FFFFC0
0007FFFFC0
0007FFFF80
000FFFFF80
000FFFFF00
000FFFFF00
001FFFFF00
001FFFFE00
003FFFFE00
003FFFFE00
003FFFFC00
007FFFFC00
007FFFFC00
007FFFF800
00FFFFF800
00FFFFF800
00FFFFF000
01FFFFF000
01FFFFF000
01FFFFF000
01FFFFE000
03FFFFE000
03FFFFE000
03FFFFC000
07FFFFC000
07FFFFC000
07FFFFC000
07FFFF8000
0FFFFF8000
0FFFFF8000
0FFFFF8000
0FFFFF8000
0FFFFF0000
1FFFFF0000
1FFFFF0000
1FFFFF0000
1FFFFF0000
1FFFFE0000
3FFFFE0000
3FFFFE0000
3FFFFE0000
3FFFFE0000
3FFFFE0000
3FFFFE0000
3FFFFC0000
7FFFFC0000
7FFFFC0000
7FFFFC0000
7FFFFC0000
7FFFFC0000
7FFFFC0000
7FFFFC0000
7FFFFC0000
7FFFFC0000
7FFFF80000
FFFFF80000
FFFFF80000
FFFFF80000
FFFFF80000
FFFFF80000
FFFFF80000
FFFFF80000
FFFFF80000
FFFFF80000
FFFFF80000
FFFFF80000
FFFFF80000
FFFFF80000
FFFFF80000
FFFFF80000
FFFFF80000
FFFFF80000
FFFFF80000
FFFFF80000
FFFFF80000
FFFFF80000
FFFFF80000
FFFFF80000
FFFFF80000
FFFFF80000
FFFFF80000
FFFFF80000
7FFFF80000
7FFFFC0000
7FFFFC0000
7FFFFC0000
7FFFFC0000
7FFFFC0000
7FFFFC0000
7FFFFC0000
7FFFFC0000
7FFFFC0000
3FFFFC0000
3FFFFE0000
3FFFFE0000
3FFFFE0000
3FFFFE0000
3FFFFE0000
3FFFFE0000
1FFFFE0000
1FFFFF0000
1FFFFF0000
1FFFFF0000
1FFFFF0000
0FFFFF0000
0FFFFF8000
0FFFFF8000
0FFFFF8000
0FFFFF8000
07FFFF8000
07FFFFC000
07FFFFC000
07FFFFC000
03FFFFC000
03FFFFE000
03FFFFE000
01FFFFE000
01FFFFE000
01FFFFF000
01FFFFF000
00FFFFF000
00FFFFF800
00FFFFF800
007FFFF800
007FFFFC00
007FFFFC00
003FFFFC00
003FFFFE00
003FFFFE00
001FFFFE00
001FFFFF00
001FFFFF00
000FFFFF00
000FFFFF80
0007FFFF80
0007FFFFC0
0007FFFFC0
0003FFFFC0
0003FFFFE0
0001FFFFE0
0001FFFFF0
0000FFFFF0
0000FFFFF8
00007FFFF8
00007FFFFC
00007FFFFC
00003FFFFE
00003FFFFE
00001FFFFE
00001FFFFF
00000FFFFF
000007FFFF
000007FFFE
000003FFFE
000003FFFE
000001FFFC
000000FFF8
0000007FF0
0000001FC0
ENDCHAR
STARTCHAR 0029
ENCODING 41
SWIDTH 377 0
DWIDTH 68 0
BBX 40 181 12 -35
BITMAP
03F0000000
0FFC000000
1FFF000000
3FFF800000
7FFFC00000
7FFFC00000
7FFFE00000
FFFFE00000
FFFFF00000
FFFFF00000
7FFFF80000
7FFFF80000
7FFFFC0000
3FFFFC0000
3FFFFE0000
1FFFFE0000
1FFFFF0000
0FFFFF0000
0FFFFF8000
07FFFF8000
07FFFF8000
07FFFFC000
03FFFFC000
03FFFFE000
01FFFFE000
01FFFFF000
01FFFFF000
00FFFFF000
00FFFFF800
007FFFF800
007FFFF800
007FFFFC00
003FFFFC00
003FFFFE00
003FFFFE00
001FFFFE00
001FFFFF00
001FFFFF00
000FFFFF00
000FFFFF00
000FFFFF80
000FFFFF80
0007FFFF80
0007FFFFC0
0007FFFFC0
0003FFFFC0
0003FFFFC0
0003FFFFE0
0003FFFFE0
0001FFFFE0
0001FFFFE0
0001FFFFF0
0001FFFFF0
0001FFFFF0
0000FFFFF0
0000FFFFF8
0000FFFFF8
0000FFFFF8
0000FFFFF8
0000FFFFF8
00007FFFF8
00007FFFFC
00007FFFFC
00007FFFFC
00007FFFFC
00007FFFFC
00007FFFFC
00003FFFFE
00003FFFFE
00003FFFFE
00003FFFFE
00003FFFFE
00003FFFFE
00003FFFFE
00003FFFFE
00003FFFFE
00003FFFFE
00001FFFFE
00001FFFFF
00001FFFFF
00001FFFFF
00001FFFFF
00001FFFFF
00001FFFFF
00001FFFFF
00001FFFFF
00001FFFFF
00001FFFFF
00001FFFFF
00001FFFFF
00001FFFFF
00001FFFFF
00001FFFFF
00001FFFFF
00001FFFFF
00001FFFFF
00001FFFFF
00001FFFFF
00001FFFFF
00001FFFFF
00001FFFFF
00001FFFFF
00001FFFFF
00001FFFFF
00003FFFFE
00003FFFFE
00003FFFFE
00003FFFFE
00003FFFFE
00003FFFFE
00003FFFFE
00003FFFFE
00003FFFFE
00003FFFFE
00007FFFFC
00007FFFFC
00007FFFFC
00007FFFFC
00007FFFFC
00007FFFFC
00007FFFF8
0000FFFFF8
0000FFFFF8
0000FFFFF8
0000FFFFF8
0000FFFFF8
0000FFFFF0
0001FFFFF0
0001FFFFF0
0001FFFFF0
0001FFFFE0
0001FFFFE0
0003FFFFE0
0003FFFFE0
0003FFFFC0
0003FFFFC0
0007FFFFC0
0007FFFFC0
0007FFFF80
000FFFFF80
000FFFFF80
000FFFFF00
000FFFFF00
001FFFFF00
001FFFFF00
001FFFFE00
003FFFFE00
003FFFFE00
003FFFFC00
007FFFFC00
007FFFFC00
007FFFF800
00FFFFF800
00FFFFF000
00FFFFF000
01FFFFF000
01FFFFE000
03FFFFE000
03FFFFC000
07FFFFC000
07FFFFC000
07FFFF8000
0FFFFF8000
0FFFFF0000
1FFFFF0000
1FFFFE0000
3FFFFE0000
3FFFFC0000
7FFFFC0000
7FFFF80000
7FFFF80000
FFFFF00000
FFFFF00000
FFFFE00000
7FFFE00000
7FFFC00000
7FFFC00000
3FFF800000
1FFF000000
0FFE000000
03F8000000
ENDCHAR
STARTCHAR 002A
ENCODING 42
SWIDTH 505 0
DWIDTH 91 0
BBX 70 67 11 78
BITMAP
00000001FC00000000
00000003FF00000000
00000007FF80000000
0000000FFF80000000
0000001FFFC0000000
0000001FFFC0000000
0000001FFFC0000000
0000001FFFE0000000
0000001FFFE0000000
0000001FFFE0000000
0000003FFFE0000000
0000003FFFE0000000
0000003FFFE0000000
0000003FFFE0000000
0000003FFFE0000000
0000003FFFE0000000
0000003FFFE0000000
0000003FFFE0000000
0000003FFFE0000000
0000003FFFE0000000
0FF8007FFFF0007FC0
3FFF807FFFF00FFFE0
7FFFF87FFFF0FFFFF0
FFFFFFFFFFFFFFFFF8
FFFFFFFFFFFFFFFFF8
FFFFFFFFFFFFFFFFF8
FFFFFFFFFFFFFFFFF8
FFFFFFFFFFFFFFFFFC
FFFFFFFFFFFFFFFFF8
FFFFFFFFFFFFFFFFF8
FFFFFFFFFFFFFFFFF8
7FFFFFFFFFFFFFFFF0
3FFFFFFFFFFFFFFFE0
1FFFFFFFFFFFFFFFC0
07FFFFFFFFFFFFFF00
01FFFFFFFFFFFFFC00
007FFFFFFFFFFFF000
000FFFFFFFFFFFC000
0003FFFFFFFFFE0000
0000FFFFFFFFF80000
00003FFFFFFFE00000
00001FFFFFFFC00000
00003FFFFFFFE00000
00003FFFFFFFE00000
00007FFFFFFFF00000
00007FFFFFFFF00000
0000FFFFFFFFF80000
0001FFFFFFFFF80000
0001FFFFFFFFFC0000
0003FFFFFFFFFE0000
0003FFFFFFFFFE0000
0007FFFFFFFFFF0000
000FFFFFDFFFFF0000
000FFFFF8FFFFF8000
001FFFFF07FFFFC000
001FFFFE03FFFFC000
003FFFFC01FFFFE000
003FFFF800FFFFE000
003FFFF8007FFFE000
003FFFF0007FFFE000
003FFFE0003FFFE000
003FFFC0001FFFE000
003FFF80000FFFE000
001FFF000007FFC000
000FFE000003FF8000
0007FC000001FF0000
0001F8000000FC0000
ENDCHAR
STARTCHAR 002B
ENCODING 43
SWIDTH 588 0
DWIDTH 106 0
BBX 92 95 7 20
BITMAP
00000000003FC00000000000
0000000000FFF00000000000
0000000001FFF80000000000
0000000003FFFC0000000000
0000000007FFFE0000000000
0000000007FFFE0000000000
000000000FFFFF0000000000
000000000FFFFF0000000000
000000000FFFFF0000000000
000000000FFFFF0000000000
000000000FFFFF0000000000
000000000FFFFF0000000000
000000000FFFFF0000000000
000000000FFFFF0000000000
000000000FFFFF0000000000
000000000FFFFF0000000000
000000000FFFFF0000000000
000000000FFFFF0000000000
000000000FFFFF0000000000
000000000FFFFF0000000000
000000000FFFFF0000000000
000000000FFFFF0000000000
000000000FFFFF0000000000
000000000FFFFF0000000000
000000000FFFFF0000000000
000000000FFFFF0000000000
000000000FFFFF0000000000
000000000FFFFF0000000000
000000000FFFFF0000000000
000000000FFFFF0000000000
000000000FFFFF0000000000
000000000FFFFF0000000000
000000000FFFFF0000000000
000000000FFFFF0000000000
000000000FFFFF0000000000
000000000FFFFF0000000000
000000000FFFFF0000000000
000000000FFFFF0000000000
03FFFFFFFFFFFFFFFFFFFC00
0FFFFFFFFFFFFFFFFFFFFF00
1FFFFFFFFFFFFFFFFFFFFF80
3FFFFFFFFFFFFFFFFFFFFFC0
7FFFFFFFFFFFFFFFFFFFFFE0
FFFFFFFFFFFFFFFFFFFFFFF0
FFFFFFFFFFFFFFFFFFFFFFF0
FFFFFFFFFFFFFFFFFFFFFFF0
FFFFFFFFFFFFFFFFFFFFFFF0
FFFFFFFFFFFFFFFFFFFFFFF0
FFFFFFFFFFFFFFFFFFFFFFF0
FFFFFFFFFFFFFFFFFFFFFFF0
FFFFFFFFFFFFFFFFFFFFFFF0
FFFFFFFFFFFFFFFFFFFFFFF0
7FFFFFFFFFFFFFFFFFFFFFE0
3FFFFFFFFFFFFFFFFFFFFFC0
1FFFFFFFFFFFFFFFFFFFFF80
0FFFFFFFFFFFFFFFFFFFFF00
03FFFFFFFFFFFFFFFFFFFC00
000000000FFFFF0000000000
000000000FFFFF0000000000
000000000FFFFF0000000000
000000000FFFFF0000000000
000000000FFFFF0000000000
000000000FFFFF0000000000
000000000FFFFF0000000000
000000000FFFFF0000000000
000000000FFFFF0000000000
000000000FFFFF0000000000
000000000FFFFF0000000000
000000000FFFFF0000000000
000000000FFFFF0000000000
000000000FFFFF0000000000
000000000FFFFF0000000000
000000000FFFFF0000000000
000000000FFFFF0000000000
000000000FFFFF0000000000
000000000FFFFF0000000000
000000000FFFFF0000000000
000000000FFFFF0000000000
000000000FFFFF0000000000
000000000FFFFF0000000000
000000000FFFFF0000000000
000000000FFFFF0000000000
000000000FFFFF0000000000
000000000FFFFF0000000000
000000000FFFFF0000000000
000000000FFFFF0000000000
000000000FFFFF0000000000
000000000FFFFF0000000000
000000000FFFFF0000000000
0000000007FFFE0000000000
0000000007FFFE0000000000
0000000003FFFC0000000000
0000000001FFF80000000000
0000000000FFF00000000000
00000000003FC00000000000
ENDCHAR
STARTCHAR 002C
ENCODING 44
SWIDTH 322 0
DWIDTH 58 0
BBX 37 69 12 -37
BITMAP
0000E00000
001FFF8000
007FFFE000
01FFFFF000
03FFFFFC00
07FFFFFE00
0FFFFFFE00
1FFFFFFF00
1FFFFFFF80
3FFFFFFF80
3FFFFFFFC0
7FFFFFFFC0
7FFFFFFFE0
7FFFFFFFE0
7FFFFFFFE0
7FFFFFFFF0
7FFFFFFFF0
7FFFFFFFF0
7FFFFFFFF0
7FFFFFFFF8
7FFFFFFFF8
3FFFFFFFF8
3FFFFFFFF8
1FFFFFFFF8
1FFFFFFFF8
0FFFFFFFF8
07FFFFFFF8
03FFFFFFF8
01FFFFFFF8
007FFFFFF8
001FFFFFF8
0001FFFFF8
00001FFFF8
00001FFFF8
00001FFFF0
00001FFFF0
00003FFFF0
00003FFFF0
00003FFFF0
00003FFFE0
00007FFFE0
00007FFFE0
0000FFFFC0
0001FFFFC0
0001FFFFC0
0003FFFF80
0007FFFF80
000FFFFF00
001FFFFF00
003FFFFE00
007FFFFC00
01FFFFFC00
07FFFFF800
0FFFFFF000
1FFFFFF000
3FFFFFE000
7FFFFFC000
FFFFFF8000
FFFFFF0000
FFFFFE0000
FFFFFC0000
FFFFF00000
FFFFE00000
FFFFC00000
7FFF000000
7FFE000000
3FF8000000
1FE0000000
0100000000
ENDCHAR
STARTCHAR 002D
ENCODING 45
SWIDTH 366 0
DWIDTH 66 0
BBX 49 19 9 42
BITMAP
03FFFFFFFFE000
0FFFFFFFFFF800
1FFFFFFFFFFC00
3FFFFFFFFFFE00
7FFFFFFFFFFF00
7FFFFFFFFFFF00
FFFFFFFFFFFF80
FFFFFFFFFFFF80
FFFFFFFFFFFF80
FFFFFFFFFFFF80
FFFFFFFFFFFF80
FFFFFFFFFFFF80
FFFFFFFFFFFF80
7FFFFFFFFFFF00
7FFFFFFFFFFF00
3FFFFFFFFFFE00
1FFFFFFFFFFC00
0FFFFFFFFFF800
03FFFFFFFFE000
ENDCHAR
STARTCHAR 002E
ENCODING 46
SWIDTH 322 0
DWIDTH 58 0
BBX 33 34 13 -3
BITMAP
000FF00000
007FFE0000
01FFFF8000
03FFFFC000
07FFFFF000
0FFFFFF000
1FFFFFF800
3FFFFFFC00
3FFFFFFE00
7FFFFFFE00
7FFFFFFF00
7FFFFFFF00
FFFFFFFF00
FFFFFFFF00
FFFFFFFF80
FFFFFFFF80
FFFFFFFF80
FFFFFFFF80
FFFFFFFF80
FFFFFFFF80
FFFFFFFF00
FFFFFFFF00
FFFFFFFF00
7FFFFFFF00
7FFFFFFE00
3FFFFFFE00
3FFFFFFC00
1FFFFFFC00
0FFFFFF800
0FFFFFF000
07FFFFE000
01FFFFC000
00FFFF0000
003FFC0000
ENDCHAR
STARTCHAR 002F
ENCODING 47
SWIDTH 388 0
DWIDTH 70 0
BBX 59 178 4 -34
BITMAP
0000000000003C00
000000000001FF00
000000000007FF80
00000000000FFFC0
00000000001FFFC0
00000000003FFFE0
00000000003FFFE0
00000000007FFFE0
00000000007FFFE0
00000000007FFFC0
00000000007FFFC0
0000000000FFFFC0
0000000000FFFFC0
0000000000FFFF80
0000000000FFFF80
0000000001FFFF80
0000000001FFFF80
0000000001FFFF00
0000000001FFFF00
0000000003FFFF00
0000000003FFFF00
0000000003FFFE00
0000000003FFFE00
0000000007FFFE00
0000000007FFFE00
0000000007FFFC00
0000000007FFFC00
000000000FFFFC00
000000000FFFFC00
000000000FFFF800
000000000FFFF800
000000001FFFF800
000000001FFFF800
000000001FFFF000
000000001FFFF000
000000003FFFF000
000000003FFFF000
000000003FFFE000
000000003FFFE000
000000007FFFE000
000000007FFFE000
000000007FFFC000
000000007FFFC000
00000000FFFFC000
00000000FFFFC000
00000000FFFF8000
00000000FFFF8000
00000001FFFF8000
00000001FFFF8000
00000001FFFF0000
00000001FFFF0000
00000003FFFF0000
00000003FFFF0000
00000003FFFE0000
00000003FFFE0000
00000007FFFE0000
00000007FFFE0000
00000007FFFC0000
00000007FFFC0000
0000000FFFFC0000
0000000FFFFC0000
0000000FFFF80000
0000000FFFF80000
0000001FFFF80000
0000001FFFF80000
0000001FFFF00000
0000001FFFF00000
0000003FFFF00000
0000003FFFF00000
0000003FFFE00000
0000003FFFE00000
0000007FFFE00000
0000007FFFE00000
0000007FFFC00000
0000007FFFC00000
000000FFFFC00000
000000FFFFC00000
000000FFFF800000
000000FFFF800000
000001FFFF800000
000001FFFF800000
000001FFFF000000
000001FFFF000000
000003FFFF000000
000003FFFF000000
000003FFFE000000
000003FFFE000000
000007FFFE000000
000007FFFE000000
000007FFFC000000
000007FFFC000000
00000FFFFC000000
00000FFFFC000000
00000FFFF8000000
00000FFFF8000000
00001FFFF8000000
00001FFFF8000000
00001FFFF0000000
00001FFFF0000000
00003FFFF0000000
00003FFFF0000000
00003FFFE0000000
00003FFFE0000000
00007FFFE0000000
00007FFFE0000000
00007FFFC0000000
00007FFFC0000000
0000FFFFC0000000
0000FFFFC0000000
0000FFFF80000000
0000FFFF80000000
0001FFFF80000000
0001FFFF80000000
0001FFFF00000000
0001FFFF00000000
0003FFFF00000000
0003FFFF00000000
0003FFFE00000000
0003FFFE00000000
0007FFFE00000000
0007FFFE00000000
0007FFFC00000000
0007FFFC00000000
000FFFFC00000000
000FFFFC00000000
000FFFF800000000
000FFFF800000000
001FFFF800000000
001FFFF800000000
001FFFF000000000
003FFFF000000000
003FFFF000000000
003FFFF000000000
003FFFE000000000
007FFFE000000000
007FFFE000000000
007FFFE000000000
007FFFC000000000
00FFFFC000000000
00FFFFC000000000
00FFFFC000000000
00FFFF8000000000
01FFFF8000000000
01FFFF8000000000
01FFFF8000000000
01FFFF0000000000
03FFFF0000000000
03FFFF0000000000
03FFFF0000000000
03FFFE0000000000
07FFFE0000000000
07FFFE0000000000
07FFFE0000000000
07FFFC0000000000
0FFFFC0000000000
0FFFFC0000000000
0FFFFC0000000000
0FFFF80000000000
1FFFF80000000000
1FFFF80000000000
1FFFF80000000000
1FFFF00000000000
3FFFF00000000000
3FFFF00000000000
3FFFF00000000000
3FFFE00000000000
7FFFE00000000000
7FFFE00000000000
7FFFE00000000000
7FFFC00000000000
FFFFC00000000000
FFFFC00000000000
7FFF800000000000
7FFF800000000000
7FFF000000000000
3FFE000000000000
1FF8000000000000
07E0000000000000
ENDCHAR
STARTCHAR 0030
ENCODING 48
SWIDTH 783 0
DWIDTH 141 0
BBX 127 104 7 1
BITMAP
00000001FFFFFFFFFFFFFFFF00000000
0000001FFFFFFFFFFFFFFFFFF0000000
000000FFFFFFFFFFFFFFFFFFFC000000
000003FFFFFFFFFFFFFFFFFFFF000000
000007FFFFFFFFFFFFFFFFFFFFC00000
00001FFFFFFFFFFFFFFFFFFFFFE00000
00003FFFFFFFFFFFFFFFFFFFFFF00000
00007FFFFFFFFFFFFFFFFFFFFFF80000
0000FFFFFFFFFFFFFFFFFFFFFFFE0000
0001FFFFFFFFFFFFFFFFFFFFFFFF0000
0003FFFFFFFFFFFFFFFFFFFFFFFF8000
0007FFFFFFFFFFFFFFFFFFFFFFFF8000
000FFFFFFFFFFFFFFFFFFFFFFFFFC000
001FFFFFFFFFFFFFFFFFFFFFFFFFE000
001FFFFFFFFFFFFFFFFFFFFFFFFFF000
003FFFFFFFFFFFFFFFFFFFFFFFFFF800
007FFFFFFFFFFFFFFFFFFFFFFFFFF800
007FFFFFFFFFFFFFFFFFFFFFFFFFFC00
00FFFFFFFFFFFFFFFFFFFFFFFFFFFC00
00FFFFFFFFFFFFFFFFFFFFFFFFFFFE00
01FFFFFFFFFFFFFFFFFFFFFFFFFFFF00
01FFFFFFFFFFFFFFFFFFFFFFFFFFFF00
03FFFFFFFFFFFFFFFFFFFFFFFFFFFF80
03FFFFFFFF800000000003FFFFFFFF80
07FFFFFFF00000000000001FFFFFFF80
07FFFFFFC000000000000007FFFFFFC0
0FFFFFFF8000000000000003FFFFFFC0
0FFFFFFF0000000000000001FFFFFFE0
0FFFFFFE0000000000000000FFFFFFE0
1FFFFFFC00000000000000007FFFFFE0
1FFFFFF800000000000000003FFFFFF0
1FFFFFF000000000000000001FFFFFF0
3FFFFFE000000000000000000FFFFFF0
3FFFFFE000000000000000000FFFFFF8
3FFFFFC0000000000000000007FFFFF8
3FFFFFC0000000000000000007FFFFF8
3FFFFF80000000000000000003FFFFF8
7FFFFF80000000000000000003FFFFFC
7FFFFF00000000000000000001FFFFFC
7FFFFF00000000000000000001FFFFFC
7FFFFF00000000000000000001FFFFFC
7FFFFE00000000000000000000FFFFFC
7FFFFE00000000000000000000FFFFFC
FFFFFE00000000000000000000FFFFFC
FFFFFE00000000000000000000FFFFFE
FFFFFE00000000000000000000FFFFFE
FFFFFC000000000000000000007FFFFE
FFFFFC000000000000000000007FFFFE
FFFFFC000000000000000000007FFFFE
FFFFFC000000000000000000007FFFFE
FFFFFC000000000000000000007FFFFE
FFFFFC000000000000000000007FFFFE
FFFFFC000000000000000000007FFFFE
FFFFFC000000000000000000007FFFFE
FFFFFC000000000000000000007FFFFE
FFFFFC000000000000000000007FFFFE
FFFFFC000000000000000000007FFFFE
FFFFFC000000000000000000007FFFFE
FFFFFE00000000000000000000FFFFFE
FFFFFE00000000000000000000FFFFFE
FFFFFE00000000000000000000FFFFFC
7FFFFE00000000000000000000FFFFFC
7FFFFE00000000000000000000FFFFFC
7FFFFF00000000000000000001FFFFFC
7FFFFF00000000000000000001FFFFFC
7FFFFF00000000000000000001FFFFFC
7FFFFF80000000000000000003FFFFFC
3FFFFF80000000000000000003FFFFF8
3FFFFFC0000000000000000007FFFFF8
3FFFFFC0000000000000000007FFFFF8
3FFFFFE000000000000000000FFFFFF8
1FFFFFE000000000000000000FFFFFF0
1FFFFFF000000000000000001FFFFFF0
1FFFFFF800000000000000003FFFFFF0
1FFFFFFC00000000000000007FFFFFE0
0FFFFFFE0000000000000000FFFFFFE0
0FFFFFFF0000000000000001FFFFFFE0
0FFFFFFF8000000000000003FFFFFFC0
07FFFFFFE00000000000000FFFFFFFC0
07FFFFFFFC0000000000007FFFFFFFC0
03FFFFFFFFFFFFFFFFFFFFFFFFFFFF80
03FFFFFFFFFFFFFFFFFFFFFFFFFFFF80
01FFFFFFFFFFFFFFFFFFFFFFFFFFFF00
01FFFFFFFFFFFFFFFFFFFFFFFFFFFF00
00FFFFFFFFFFFFFFFFFFFFFFFFFFFE00
00FFFFFFFFFFFFFFFFFFFFFFFFFFFC00
007FFFFFFFFFFFFFFFFFFFFFFFFFFC00
007FFFFFFFFFFFFFFFFFFFFFFFFFF800
003FFFFFFFFFFFFFFFFFFFFFFFFFF000
001FFFFFFFFFFFFFFFFFFFFFFFFFF000
000FFFFFFFFFFFFFFFFFFFFFFFFFE000
000FFFFFFFFFFFFFFFFFFFFFFFFFC000
0007FFFFFFFFFFFFFFFFFFFFFFFF8000
0003FFFFFFFFFFFFFFFFFFFFFFFF0000
0001FFFFFFFFFFFFFFFFFFFFFFFE0000
0000FFFFFFFFFFFFFFFFFFFFFFFC0000
00007FFFFFFFFFFFFFFFFFFFFFF80000
00003FFFFFFFFFFFFFFFFFFFFFF00000
00000FFFFFFFFFFFFFFFFFFFFFE00000
000007FFFFFFFFFFFFFFFFFFFF800000
000001FFFFFFFFFFFFFFFFFFFE000000
0000007FFFFFFFFFFFFFFFFFF8000000
0000000FFFFFFFFFFFFFFFFFC0000000
000000003FFFFFFFFFFFFFF800000000
ENDCHAR
STARTCHAR 0031
ENCODING 49
SWIDTH 783 0
DWIDTH 141 0
BBX 60 109 22 -3
BITMAP
000000000007E000
00000000001FFC00
00000000007FFE00
0000000000FFFF00
0000000003FFFF80
0000000007FFFFC0
000000000FFFFFE0
000000001FFFFFE0
000000007FFFFFE0
00000000FFFFFFF0
00000001FFFFFFF0
00000007FFFFFFF0
0000000FFFFFFFF0
0000001FFFFFFFF0
0000003FFFFFFFF0
000000FFFFFFFFF0
000001FFFFFFFFF0
000003FFFFFFFFF0
00000FFFFFFFFFF0
00001FFFFFFFFFF0
00003FFFFFFFFFF0
00007FFFFFFFFFF0
0001FFFFFFFFFFF0
0003FFFFFFFFFFF0
0007FFFFFFFFFFF0
001FFFFFFFFFFFF0
003FFFFFFFFFFFF0
007FFFFFFFFFFFF0
01FFFFFFFFFFFFF0
03FFFFFFFFFFFFF0
07FFFFFFFFFFFFF0
0FFFFFFFFFFFFFF0
1FFFFFFFFFFFFFF0
3FFFFFFFFFFFFFF0
3FFFFFFFFFFFFFF0
7FFFFFFFFFFFFFF0
7FFFFFFFFFFFFFF0
7FFFFFFFCFFFFFF0
FFFFFFFF8FFFFFF0
FFFFFFFF0FFFFFF0
FFFFFFFE0FFFFFF0
FFFFFFF80FFFFFF0
7FFFFFF00FFFFFF0
7FFFFFE00FFFFFF0
7FFFFF800FFFFFF0
3FFFFF000FFFFFF0
3FFFFE000FFFFFF0
1FFFFC000FFFFFF0
0FFFF0000FFFFFF0
07FFE0000FFFFFF0
01FF80000FFFFFF0
001C00000FFFFFF0
000000000FFFFFF0
000000000FFFFFF0
000000000FFFFFF0
000000000FFFFFF0
000000000FFFFFF0
000000000FFFFFF0
000000000FFFFFF0
000000000FFFFFF0
000000000FFFFFF0
000000000FFFFFF0
000000000FFFFFF0
000000000FFFFFF0
000000000FFFFFF0
000000000FFFFFF0
000000000FFFFFF0
000000000FFFFFF0
000000000FFFFFF0
000000000FFFFFF0
000000000FFFFFF0
000000000FFFFFF0
000000000FFFFFF0
000000000FFFFFF0
000000000FFFFFF0
000000000FFFFFF0
000000000FFFFFF0
000000000FFFFFF0
000000000FFFFFF0
000000000FFFFFF0
000000000FFFFFF0
000000000FFFFFF0
000000000FFFFFF0
000000000FFFFFF0
000000000FFFFFF0
000000000FFFFFF0
000000000FFFFFF0
000000000FFFFFF0
000000000FFFFFF0
000000000FFFFFF0
000000000FFFFFF0
000000000FFFFFF0
000000000FFFFFF0
000000000FFFFFF0
000000000FFFFFF0
000000000FFFFFF0
000000000FFFFFF0
000000000FFFFFF0
000000000FFFFFF0
000000000FFFFFF0
000000000FFFFFE0
0000000007FFFFE0
0000000007FFFFE0
0000000003FFFFC0
0000000003FFFFC0
0000000001FFFF80
00000000007FFF00
00000000003FFC00
00000000000FF000
ENDCHAR
STARTCHAR 0032
ENCODING 50
SWIDTH 783 0
DWIDTH 141 0
BBX 119 103 11 1
BITMAP
007FFFFFFFFFFFFFFFFFFF80000000
01FFFFFFFFFFFFFFFFFFFFFC000000
03FFFFFFFFFFFFFFFFFFFFFFC00000
07FFFFFFFFFFFFFFFFFFFFFFF00000
0FFFFFFFFFFFFFFFFFFFFFFFFC0000
1FFFFFFFFFFFFFFFFFFFFFFFFF0000
3FFFFFFFFFFFFFFFFFFFFFFFFF8000
3FFFFFFFFFFFFFFFFFFFFFFFFFE000
3FFFFFFFFFFFFFFFFFFFFFFFFFF000
7FFFFFFFFFFFFFFFFFFFFFFFFFF800
7FFFFFFFFFFFFFFFFFFFFFFFFFFC00
7FFFFFFFFFFFFFFFFFFFFFFFFFFE00
7FFFFFFFFFFFFFFFFFFFFFFFFFFF00
7FFFFFFFFFFFFFFFFFFFFFFFFFFF80
3FFFFFFFFFFFFFFFFFFFFFFFFFFFC0
3FFFFFFFFFFFFFFFFFFFFFFFFFFFC0
3FFFFFFFFFFFFFFFFFFFFFFFFFFFE0
1FFFFFFFFFFFFFFFFFFFFFFFFFFFF0
1FFFFFFFFFFFFFFFFFFFFFFFFFFFF0
0FFFFFFFFFFFFFFFFFFFFFFFFFFFF8
07FFFFFFFFFFFFFFFFFFFFFFFFFFF8
01FFFFFFFFFFFFFFFFFFFFFFFFFFF8
00FFFFFFFFFFFFFFFFFFFFFFFFFFFC
0000000000000000000007FFFFFFFC
00000000000000000000003FFFFFFC
00000000000000000000001FFFFFFE
000000000000000000000007FFFFFE
000000000000000000000003FFFFFE
000000000000000000000003FFFFFE
000000000000000000000001FFFFFE
000000000000000000000001FFFFFE
000000000000000000000001FFFFFE
000000000000000000000001FFFFFE
000000000000000000000001FFFFFE
000000000000000000000003FFFFFE
000000000000000000000007FFFFFE
00000000000000000000000FFFFFFE
00000000000000000000001FFFFFFE
00000000000000000000007FFFFFFC
00000000FFFFFFFFFFFFFFFFFFFFFC
0000003FFFFFFFFFFFFFFFFFFFFFFC
000003FFFFFFFFFFFFFFFFFFFFFFF8
00000FFFFFFFFFFFFFFFFFFFFFFFF8
00003FFFFFFFFFFFFFFFFFFFFFFFF8
0000FFFFFFFFFFFFFFFFFFFFFFFFF0
0003FFFFFFFFFFFFFFFFFFFFFFFFF0
0007FFFFFFFFFFFFFFFFFFFFFFFFE0
000FFFFFFFFFFFFFFFFFFFFFFFFFE0
003FFFFFFFFFFFFFFFFFFFFFFFFFC0
007FFFFFFFFFFFFFFFFFFFFFFFFF80
00FFFFFFFFFFFFFFFFFFFFFFFFFF00
01FFFFFFFFFFFFFFFFFFFFFFFFFE00
01FFFFFFFFFFFFFFFFFFFFFFFFFC00
03FFFFFFFFFFFFFFFFFFFFFFFFF800
07FFFFFFFFFFFFFFFFFFFFFFFFF000
0FFFFFFFFFFFFFFFFFFFFFFFFFE000
0FFFFFFFFFFFFFFFFFFFFFFFFFC000
1FFFFFFFFFFFFFFFFFFFFFFFFF0000
1FFFFFFFFFFFFFFFFFFFFFFFFC0000
3FFFFFFFFFFFFFFFFFFFFFFFF00000
3FFFFFFFFFFFFFFFFFFFFFFFC00000
3FFFFFFFFFFFFFFFFFFFFFFE000000
7FFFFFFFFFFFFFFFFFFFFF80000000
7FFFFFFE0000000000000000000000
7FFFFFF80000000000000000000000
7FFFFFE00000000000000000000000
FFFFFFC00000000000000000000000
FFFFFFC00000000000000000000000
FFFFFF800000000000000000000000
FFFFFF800000000000000000000000
FFFFFF000000000000000000000000
FFFFFF000000000000000000000000
FFFFFF000000000000000000000000
FFFFFF000000000000000000000000
FFFFFF000000000000000000000000
FFFFFF000000000000000000000000
FFFFFF000000000000000000000000
FFFFFF800000000000000000000000
FFFFFF800000000000000000000000
FFFFFFE00000000000000000000000
FFFFFFFFFFFFFFFFFFFFFFFFFFFE00
FFFFFFFFFFFFFFFFFFFFFFFFFFFF80
FFFFFFFFFFFFFFFFFFFFFFFFFFFFC0
FFFFFFFFFFFFFFFFFFFFFFFFFFFFE0
FFFFFFFFFFFFFFFFFFFFFFFFFFFFF0
FFFFFFFFFFFFFFFFFFFFFFFFFFFFF8
FFFFFFFFFFFFFFFFFFFFFFFFFFFFF8
FFFFFFFFFFFFFFFFFFFFFFFFFFFFFC
FFFFFFFFFFFFFFFFFFFFFFFFFFFFFC
7FFFFFFFFFFFFFFFFFFFFFFFFFFFFC
7FFFFFFFFFFFFFFFFFFFFFFFFFFFFC
7FFFFFFFFFFFFFFFFFFFFFFFFFFFFC
7FFFFFFFFFFFFFFFFFFFFFFFFFFFFC
3FFFFFFFFFFFFFFFFFFFFFFFFFFFFC
3FFFFFFFFFFFFFFFFFFFFFFFFFFFFC
1FFFFFFFFFFFFFFFFFFFFFFFFFFFFC
0FFFFFFFFFFFFFFFFFFFFFFFFFFFF8
0FFFFFFFFFFFFFFFFFFFFFFFFFFFF8
07FFFFFFFFFFFFFFFFFFFFFFFFFFF0
01FFFFFFFFFFFFFFFFFFFFFFFFFFE0
00FFFFFFFFFFFFFFFFFFFFFFFFFFC0
003FFFFFFFFFFFFFFFFFFFFFFFFF80
0007FFFFFFFFFFFFFFFFFFFFFFFE00
ENDCHAR
STARTCHAR 0033
ENCODING 51
SWIDTH 783 0
DWIDTH 141 0
BBX 117 103 12 1
BITMAP
00FFFFFFFFFFFFFFFFFFFF00000000
03FFFFFFFFFFFFFFFFFFFFF8000000
0FFFFFFFFFFFFFFFFFFFFFFF000000
1FFFFFFFFFFFFFFFFFFFFFFFC00000
3FFFFFFFFFFFFFFFFFFFFFFFF00000
3FFFFFFFFFFFFFFFFFFFFFFFFC0000
7FFFFFFFFFFFFFFFFFFFFFFFFE0000
7FFFFFFFFFFFFFFFFFFFFFFFFF8000
FFFFFFFFFFFFFFFFFFFFFFFFFFC000
FFFFFFFFFFFFFFFFFFFFFFFFFFE000
FFFFFFFFFFFFFFFFFFFFFFFFFFF000
FFFFFFFFFFFFFFFFFFFFFFFFFFF800
FFFFFFFFFFFFFFFFFFFFFFFFFFFC00
FFFFFFFFFFFFFFFFFFFFFFFFFFFE00
FFFFFFFFFFFFFFFFFFFFFFFFFFFE00
7FFFFFFFFFFFFFFFFFFFFFFFFFFF00
7FFFFFFFFFFFFFFFFFFFFFFFFFFF80
3FFFFFFFFFFFFFFFFFFFFFFFFFFF80
3FFFFFFFFFFFFFFFFFFFFFFFFFFFC0
0FFFFFFFFFFFFFFFFFFFFFFFFFFFC0
07FFFFFFFFFFFFFFFFFFFFFFFFFFC0
03FFFFFFFFFFFFFFFFFFFFFFFFFFE0
00FFFFFFFFFFFFFFFFFFFFFFFFFFE0
0000000000000000000003FFFFFFE0
0000000000000000000000FFFFFFF0
00000000000000000000007FFFFFF0
00000000000000000000003FFFFFF0
00000000000000000000001FFFFFF0
00000000000000000000000FFFFFF0
00000000000000000000000FFFFFF0
00000000000000000000000FFFFFF0
00000000000000000000000FFFFFF0
00000000000000000000000FFFFFF0
00000000000000000000000FFFFFF0
00000000000000000000001FFFFFF0
00000000000000000000001FFFFFF0
00000000000000000000003FFFFFF0
0000000000000000000000FFFFFFF0
0000000000000000000001FFFFFFE0
003FFFFFFFFFFFFFFFFFFFFFFFFFE0
01FFFFFFFFFFFFFFFFFFFFFFFFFFE0
03FFFFFFFFFFFFFFFFFFFFFFFFFFC0
0FFFFFFFFFFFFFFFFFFFFFFFFFFFC0
1FFFFFFFFFFFFFFFFFFFFFFFFFFFC0
1FFFFFFFFFFFFFFFFFFFFFFFFFFF80
3FFFFFFFFFFFFFFFFFFFFFFFFFFF80
3FFFFFFFFFFFFFFFFFFFFFFFFFFF00
7FFFFFFFFFFFFFFFFFFFFFFFFFFE00
7FFFFFFFFFFFFFFFFFFFFFFFFFFE00
7FFFFFFFFFFFFFFFFFFFFFFFFFFC00
7FFFFFFFFFFFFFFFFFFFFFFFFFF800
7FFFFFFFFFFFFFFFFFFFFFFFFFFC00
7FFFFFFFFFFFFFFFFFFFFFFFFFFE00
7FFFFFFFFFFFFFFFFFFFFFFFFFFF00
7FFFFFFFFFFFFFFFFFFFFFFFFFFF00
7FFFFFFFFFFFFFFFFFFFFFFFFFFF80
3FFFFFFFFFFFFFFFFFFFFFFFFFFFC0
1FFFFFFFFFFFFFFFFFFFFFFFFFFFC0
1FFFFFFFFFFFFFFFFFFFFFFFFFFFC0
0FFFFFFFFFFFFFFFFFFFFFFFFFFFE0
07FFFFFFFFFFFFFFFFFFFFFFFFFFE0
01FFFFFFFFFFFFFFFFFFFFFFFFFFF0
007FFFFFFFFFFFFFFFFFFFFFFFFFF0
0000000000000000000001FFFFFFF0
00000000000000000000007FFFFFF0
00000000000000000000003FFFFFF8
00000000000000000000001FFFFFF8
00000000000000000000000FFFFFF8
00000000000000000000000FFFFFF8
000000000000000000000007FFFFF8
000000000000000000000007FFFFF8
000000000000000000000007FFFFF8
000000000000000000000007FFFFF8
000000000000000000000007FFFFF8
00000000000000000000000FFFFFF8
00000000000000000000000FFFFFF8
00000000000000000000001FFFFFF8
00000000000000000000003FFFFFF0
0000000000000000000000FFFFFFF0
0000000000000000000007FFFFFFF0
00FFFFFFFFFFFFFFFFFFFFFFFFFFF0
03FFFFFFFFFFFFFFFFFFFFFFFFFFE0
07FFFFFFFFFFFFFFFFFFFFFFFFFFE0
0FFFFFFFFFFFFFFFFFFFFFFFFFFFC0
1FFFFFFFFFFFFFFFFFFFFFFFFFFFC0
3FFFFFFFFFFFFFFFFFFFFFFFFFFF80
7FFFFFFFFFFFFFFFFFFFFFFFFFFF80
7FFFFFFFFFFFFFFFFFFFFFFFFFFF00
7FFFFFFFFFFFFFFFFFFFFFFFFFFF00
FFFFFFFFFFFFFFFFFFFFFFFFFFFE00
FFFFFFFFFFFFFFFFFFFFFFFFFFFC00
FFFFFFFFFFFFFFFFFFFFFFFFFFF800
FFFFFFFFFFFFFFFFFFFFFFFFFFF000
FFFFFFFFFFFFFFFFFFFFFFFFFFE000
7FFFFFFFFFFFFFFFFFFFFFFFFFC000
7FFFFFFFFFFFFFFFFFFFFFFFFF8000
7FFFFFFFFFFFFFFFFFFFFFFFFF0000
3FFFFFFFFFFFFFFFFFFFFFFFFC0000
1FFFFFFFFFFFFFFFFFFFFFFFF80000
1FFFFFFFFFFFFFFFFFFFFFFFE00000
0FFFFFFFFFFFFFFFFFFFFFFF000000
03FFFFFFFFFFFFFFFFFFFFF8000000
00FFFFFFFFFFFFFFFFFFFF80000000
ENDCHAR
STARTCHAR 0034
ENCODING 52
SWIDTH 783 0
DWIDTH 141 0
BBX 118 109 13 -3
BITMAP
007E00000000000000003F00000000
01FFC000000000000001FFC0000000
07FFE000000000000003FFF0000000
0FFFF800000000000007FFF8000000
1FFFF80000000000000FFFFC000000
3FFFFC0000000000001FFFFE000000
3FFFFE0000000000003FFFFE000000
7FFFFE0000000000003FFFFF000000
7FFFFF0000000000007FFFFF000000
7FFFFF0000000000007FFFFF000000
FFFFFF0000000000007FFFFF800000
FFFFFF0000000000007FFFFF800000
FFFFFF0000000000007FFFFF800000
FFFFFF0000000000007FFFFF800000
FFFFFF0000000000007FFFFF800000
FFFFFF0000000000007FFFFF800000
FFFFFF0000000000007FFFFF800000
FFFFFF0000000000007FFFFF800000
FFFFFF0000000000007FFFFF800000
FFFFFF0000000000007FFFFF800000
FFFFFF0000000000007FFFFF800000
FFFFFF0000000000007FFFFF800000
FFFFFF0000000000007FFFFF800000
FFFFFF0000000000007FFFFF800000
FFFFFF0000000000007FFFFF800000
FFFFFF0000000000007FFFFF800000
FFFFFF0000000000007FFFFF800000
FFFFFF0000000000007FFFFF800000
FFFFFF0000000000007FFFFF800000
FFFFFF0000000000007FFFFF800000
FFFFFF0000000000007FFFFF800000
FFFFFF0000000000007FFFFF800000
FFFFFF0000000000007FFFFF800000
FFFFFF0000000000007FFFFF800000
7FFFFF0000000000007FFFFF800000
7FFFFF0000000000007FFFFF800000
7FFFFF0000000000007FFFFF800000
7FFFFF0000000000007FFFFF800000
7FFFFF8000000000007FFFFF800000
7FFFFF8000000000007FFFFF800000
7FFFFF8000000000007FFFFF800000
7FFFFF8000000000007FFFFF800000
7FFFFF8000000000007FFFFF800000
3FFFFFC000000000007FFFFF800000
3FFFFFC000000000007FFFFF800000
3FFFFFC000000000007FFFFF800000
3FFFFFE000000000007FFFFF800000
3FFFFFE000000000007FFFFF800000
3FFFFFF000000000007FFFFF800000
1FFFFFF800000000007FFFFF800000
1FFFFFF800000000007FFFFF800000
1FFFFFFC00000000007FFFFF800000
0FFFFFFE00000000007FFFFF800000
0FFFFFFF00000000007FFFFF800000
0FFFFFFF80000000007FFFFF800000
07FFFFFFE0000000007FFFFF800000
07FFFFFFFC000000007FFFFF800000
07FFFFFFFFFFFFFFFFFFFFFFFFF800
03FFFFFFFFFFFFFFFFFFFFFFFFFF00
03FFFFFFFFFFFFFFFFFFFFFFFFFF80
01FFFFFFFFFFFFFFFFFFFFFFFFFFE0
01FFFFFFFFFFFFFFFFFFFFFFFFFFE0
00FFFFFFFFFFFFFFFFFFFFFFFFFFF0
00FFFFFFFFFFFFFFFFFFFFFFFFFFF8
007FFFFFFFFFFFFFFFFFFFFFFFFFF8
003FFFFFFFFFFFFFFFFFFFFFFFFFFC
003FFFFFFFFFFFFFFFFFFFFFFFFFFC
001FFFFFFFFFFFFFFFFFFFFFFFFFFC
000FFFFFFFFFFFFFFFFFFFFFFFFFFC
0007FFFFFFFFFFFFFFFFFFFFFFFFFC
0003FFFFFFFFFFFFFFFFFFFFFFFFFC
0001FFFFFFFFFFFFFFFFFFFFFFFFFC
0000FFFFFFFFFFFFFFFFFFFFFFFFFC
00007FFFFFFFFFFFFFFFFFFFFFFFF8
00003FFFFFFFFFFFFFFFFFFFFFFFF8
00001FFFFFFFFFFFFFFFFFFFFFFFF0
000007FFFFFFFFFFFFFFFFFFFFFFE0
000001FFFFFFFFFFFFFFFFFFFFFFC0
0000007FFFFFFFFFFFFFFFFFFFFF80
0000000FFFFFFFFFFFFFFFFFFFFE00
000000003FFFFFFFFFFFFFFFFFF000
0000000000000000007FFFFF800000
0000000000000000007FFFFF800000
0000000000000000007FFFFF800000
0000000000000000007FFFFF800000
0000000000000000007FFFFF800000
0000000000000000007FFFFF800000
0000000000000000007FFFFF800000
0000000000000000007FFFFF800000
0000000000000000007FFFFF800000
0000000000000000007FFFFF800000
0000000000000000007FFFFF800000
0000000000000000007FFFFF800000
0000000000000000007FFFFF800000
0000000000000000007FFFFF800000
0000000000000000007FFFFF800000
0000000000000000007FFFFF800000
0000000000000000007FFFFF800000
0000000000000000007FFFFF800000
0000000000000000007FFFFF000000
0000000000000000007FFFFF000000
0000000000000000003FFFFF000000
0000000000000000003FFFFF000000
0000000000000000001FFFFE000000
0000000000000000001FFFFC000000
0000000000000000000FFFFC000000
00000000000000000007FFF8000000
00000000000000000001FFE0000000
000000000000000000007F80000000
ENDCHAR
STARTCHAR 0035
ENCODING 53
SWIDTH 783 0
DWIDTH 141 0
BBX 119 103 11 1
BITMAP
0003FFFFFFFFFFFFFFFFFFFFFFFC00
001FFFFFFFFFFFFFFFFFFFFFFFFF00
007FFFFFFFFFFFFFFFFFFFFFFFFFC0
01FFFFFFFFFFFFFFFFFFFFFFFFFFE0
03FFFFFFFFFFFFFFFFFFFFFFFFFFF0
07FFFFFFFFFFFFFFFFFFFFFFFFFFF8
0FFFFFFFFFFFFFFFFFFFFFFFFFFFF8
1FFFFFFFFFFFFFFFFFFFFFFFFFFFFC
3FFFFFFFFFFFFFFFFFFFFFFFFFFFFC
3FFFFFFFFFFFFFFFFFFFFFFFFFFFFC
3FFFFFFFFFFFFFFFFFFFFFFFFFFFFC
7FFFFFFFFFFFFFFFFFFFFFFFFFFFFC
7FFFFFFFFFFFFFFFFFFFFFFFFFFFFC
7FFFFFFFFFFFFFFFFFFFFFFFFFFFFC
FFFFFFFFFFFFFFFFFFFFFFFFFFFFFC
FFFFFFFFFFFFFFFFFFFFFFFFFFFFFC
FFFFFFFFFFFFFFFFFFFFFFFFFFFFF8
FFFFFFFFFFFFFFFFFFFFFFFFFFFFF8
FFFFFFFFFFFFFFFFFFFFFFFFFFFFF0
FFFFFFFFFFFFFFFFFFFFFFFFFFFFE0
FFFFFFFFFFFFFFFFFFFFFFFFFFFFC0
FFFFFFFFFFFFFFFFFFFFFFFFFFFF80
FFFFFFFFFFFFFFFFFFFFFFFFFFFE00
FFFFFFF00000000000000000000000
FFFFFFC00000000000000000000000
FFFFFF800000000000000000000000
FFFFFF000000000000000000000000
FFFFFF000000000000000000000000
FFFFFF000000000000000000000000
FFFFFF000000000000000000000000
FFFFFF000000000000000000000000
FFFFFF000000000000000000000000
FFFFFF800000000000000000000000
FFFFFF800000000000000000000000
FFFFFFC00000000000000000000000
FFFFFFC00000000000000000000000
7FFFFFE00000000000000000000000
7FFFFFF00000000000000000000000
7FFFFFFC0000000000000000000000
7FFFFFFFFFFFFFFFFFFFFE00000000
3FFFFFFFFFFFFFFFFFFFFFFC000000
3FFFFFFFFFFFFFFFFFFFFFFFC00000
3FFFFFFFFFFFFFFFFFFFFFFFF00000
1FFFFFFFFFFFFFFFFFFFFFFFFC0000
1FFFFFFFFFFFFFFFFFFFFFFFFF0000
0FFFFFFFFFFFFFFFFFFFFFFFFF8000
0FFFFFFFFFFFFFFFFFFFFFFFFFE000
07FFFFFFFFFFFFFFFFFFFFFFFFF000
03FFFFFFFFFFFFFFFFFFFFFFFFF800
03FFFFFFFFFFFFFFFFFFFFFFFFFC00
01FFFFFFFFFFFFFFFFFFFFFFFFFE00
00FFFFFFFFFFFFFFFFFFFFFFFFFF00
007FFFFFFFFFFFFFFFFFFFFFFFFF80
003FFFFFFFFFFFFFFFFFFFFFFFFFC0
001FFFFFFFFFFFFFFFFFFFFFFFFFC0
0007FFFFFFFFFFFFFFFFFFFFFFFFE0
0003FFFFFFFFFFFFFFFFFFFFFFFFE0
0001FFFFFFFFFFFFFFFFFFFFFFFFF0
00007FFFFFFFFFFFFFFFFFFFFFFFF0
00001FFFFFFFFFFFFFFFFFFFFFFFF8
000003FFFFFFFFFFFFFFFFFFFFFFF8
0000007FFFFFFFFFFFFFFFFFFFFFFC
00000001FFFFFFFFFFFFFFFFFFFFFC
00000000000000000000007FFFFFFC
00000000000000000000001FFFFFFC
00000000000000000000000FFFFFFE
000000000000000000000007FFFFFE
000000000000000000000003FFFFFE
000000000000000000000003FFFFFE
000000000000000000000001FFFFFE
000000000000000000000001FFFFFE
000000000000000000000001FFFFFE
000000000000000000000001FFFFFE
000000000000000000000001FFFFFE
000000000000000000000003FFFFFE
000000000000000000000003FFFFFE
000000000000000000000007FFFFFE
00000000000000000000000FFFFFFE
00000000000000000000003FFFFFFC
0000000000000000000001FFFFFFFC
007FFFFFFFFFFFFFFFFFFFFFFFFFFC
01FFFFFFFFFFFFFFFFFFFFFFFFFFF8
03FFFFFFFFFFFFFFFFFFFFFFFFFFF8
07FFFFFFFFFFFFFFFFFFFFFFFFFFF8
0FFFFFFFFFFFFFFFFFFFFFFFFFFFF0
1FFFFFFFFFFFFFFFFFFFFFFFFFFFF0
3FFFFFFFFFFFFFFFFFFFFFFFFFFFE0
3FFFFFFFFFFFFFFFFFFFFFFFFFFFC0
3FFFFFFFFFFFFFFFFFFFFFFFFFFFC0
7FFFFFFFFFFFFFFFFFFFFFFFFFFF80
7FFFFFFFFFFFFFFFFFFFFFFFFFFF00
7FFFFFFFFFFFFFFFFFFFFFFFFFFE00
7FFFFFFFFFFFFFFFFFFFFFFFFFFC00
7FFFFFFFFFFFFFFFFFFFFFFFFFF800
3FFFFFFFFFFFFFFFFFFFFFFFFFF000
3FFFFFFFFFFFFFFFFFFFFFFFFFE000
3FFFFFFFFFFFFFFFFFFFFFFFFFC000
1FFFFFFFFFFFFFFFFFFFFFFFFF0000
0FFFFFFFFFFFFFFFFFFFFFFFFE0000
0FFFFFFFFFFFFFFFFFFFFFFFF80000
07FFFFFFFFFFFFFFFFFFFFFFC00000
01FFFFFFFFFFFFFFFFFFFFFE000000
007FFFFFFFFFFFFFFFFFFFE0000000
ENDCHAR
STARTCHAR 0036
ENCODING 54
SWIDTH 783 0
DWIDTH 141 0
BBX 122 103 10 1
BITMAP
00000001FFFFFFFFFFFFFFFFFFF00000
0000001FFFFFFFFFFFFFFFFFFFFC0000
0000007FFFFFFFFFFFFFFFFFFFFE0000
000001FFFFFFFFFFFFFFFFFFFFFF0000
000007FFFFFFFFFFFFFFFFFFFFFF8000
00001FFFFFFFFFFFFFFFFFFFFFFFC000
00003FFFFFFFFFFFFFFFFFFFFFFFE000
00007FFFFFFFFFFFFFFFFFFFFFFFE000
0000FFFFFFFFFFFFFFFFFFFFFFFFE000
0001FFFFFFFFFFFFFFFFFFFFFFFFF000
0003FFFFFFFFFFFFFFFFFFFFFFFFF000
0007FFFFFFFFFFFFFFFFFFFFFFFFF000
000FFFFFFFFFFFFFFFFFFFFFFFFFF000
000FFFFFFFFFFFFFFFFFFFFFFFFFF000
001FFFFFFFFFFFFFFFFFFFFFFFFFF000
003FFFFFFFFFFFFFFFFFFFFFFFFFE000
003FFFFFFFFFFFFFFFFFFFFFFFFFE000
007FFFFFFFFFFFFFFFFFFFFFFFFFC000
00FFFFFFFFFFFFFFFFFFFFFFFFFFC000
00FFFFFFFFFFFFFFFFFFFFFFFFFF8000
01FFFFFFFFFFFFFFFFFFFFFFFFFF0000
01FFFFFFFFFFFFFFFFFFFFFFFFFE0000
03FFFFFFFFFFFFFFFFFFFFFFFFF80000
03FFFFFFFF8000000000000000000000
07FFFFFFF80000000000000000000000
07FFFFFFC00000000000000000000000
0FFFFFFF800000000000000000000000
0FFFFFFF000000000000000000000000
0FFFFFFE000000000000000000000000
1FFFFFFC000000000000000000000000
1FFFFFF8000000000000000000000000
1FFFFFF0000000000000000000000000
1FFFFFE0000000000000000000000000
3FFFFFE0000000000000000000000000
3FFFFFC0000000000000000000000000
3FFFFFC0000000000000000000000000
3FFFFF80000000000000000000000000
7FFFFF80000000000000000000000000
7FFFFF00000000000000000000000000
7FFFFF00007FFFFFFFFFFFC000000000
7FFFFF0003FFFFFFFFFFFFFF80000000
7FFFFE000FFFFFFFFFFFFFFFF0000000
7FFFFE001FFFFFFFFFFFFFFFFE000000
FFFFFE003FFFFFFFFFFFFFFFFF800000
FFFFFE007FFFFFFFFFFFFFFFFFE00000
FFFFFE007FFFFFFFFFFFFFFFFFF00000
FFFFFC00FFFFFFFFFFFFFFFFFFFC0000
FFFFFC00FFFFFFFFFFFFFFFFFFFE0000
FFFFFC00FFFFFFFFFFFFFFFFFFFF0000
FFFFFC00FFFFFFFFFFFFFFFFFFFF8000
FFFFFC01FFFFFFFFFFFFFFFFFFFFC000
FFFFFC01FFFFFFFFFFFFFFFFFFFFE000
FFFFFC00FFFFFFFFFFFFFFFFFFFFF000
FFFFFC00FFFFFFFFFFFFFFFFFFFFF800
FFFFFC00FFFFFFFFFFFFFFFFFFFFF800
FFFFFC00FFFFFFFFFFFFFFFFFFFFFC00
FFFFFC007FFFFFFFFFFFFFFFFFFFFC00
FFFFFC007FFFFFFFFFFFFFFFFFFFFE00
FFFFFE003FFFFFFFFFFFFFFFFFFFFE00
FFFFFE001FFFFFFFFFFFFFFFFFFFFF00
FFFFFE000FFFFFFFFFFFFFFFFFFFFF00
7FFFFE0003FFFFFFFFFFFFFFFFFFFF80
7FFFFF0000FFFFFFFFFFFFFFFFFFFF80
7FFFFF00000000000000000FFFFFFF80
7FFFFF000000000000000003FFFFFFC0
7FFFFF800000000000000001FFFFFFC0
7FFFFF800000000000000000FFFFFFC0
3FFFFF8000000000000000007FFFFFC0
3FFFFFC000000000000000007FFFFFC0
3FFFFFE000000000000000003FFFFFC0
3FFFFFE000000000000000003FFFFFC0
1FFFFFF000000000000000003FFFFFC0
1FFFFFF800000000000000003FFFFFC0
1FFFFFF800000000000000003FFFFFC0
0FFFFFFC00000000000000007FFFFFC0
0FFFFFFE00000000000000007FFFFFC0
0FFFFFFF0000000000000000FFFFFFC0
07FFFFFFC000000000000001FFFFFFC0
07FFFFFFF000000000000003FFFFFF80
07FFFFFFFF0000000000001FFFFFFF80
03FFFFFFFFFFFFFFFFFFFFFFFFFFFF80
03FFFFFFFFFFFFFFFFFFFFFFFFFFFF80
01FFFFFFFFFFFFFFFFFFFFFFFFFFFF00
01FFFFFFFFFFFFFFFFFFFFFFFFFFFF00
00FFFFFFFFFFFFFFFFFFFFFFFFFFFE00
007FFFFFFFFFFFFFFFFFFFFFFFFFFE00
007FFFFFFFFFFFFFFFFFFFFFFFFFFC00
003FFFFFFFFFFFFFFFFFFFFFFFFFFC00
001FFFFFFFFFFFFFFFFFFFFFFFFFF800
001FFFFFFFFFFFFFFFFFFFFFFFFFF000
000FFFFFFFFFFFFFFFFFFFFFFFFFF000
0007FFFFFFFFFFFFFFFFFFFFFFFFE000
0003FFFFFFFFFFFFFFFFFFFFFFFFC000
0001FFFFFFFFFFFFFFFFFFFFFFFF8000
0000FFFFFFFFFFFFFFFFFFFFFFFF0000
00007FFFFFFFFFFFFFFFFFFFFFFC0000
00003FFFFFFFFFFFFFFFFFFFFFF80000
00001FFFFFFFFFFFFFFFFFFFFFF00000
00000FFFFFFFFFFFFFFFFFFFFFC00000
000003FFFFFFFFFFFFFFFFFFFF800000
000000FFFFFFFFFFFFFFFFFFFC000000
0000003FFFFFFFFFFFFFFFFFE0000000
00000003FFFFFFFFFFFFFFFE00000000
ENDCHAR
STARTCHAR 0037
ENCODING 55
SWIDTH 783 0
DWIDTH 141 0
BBX 119 108 12 -7
BITMAP
01FFFFFFFFFFFFFFFFFFFFFFFFFE00
07FFFFFFFFFFFFFFFFFFFFFFFFFF80
0FFFFFFFFFFFFFFFFFFFFFFFFFFFC0
1FFFFFFFFFFFFFFFFFFFFFFFFFFFF0
3FFFFFFFFFFFFFFFFFFFFFFFFFFFF0
7FFFFFFFFFFFFFFFFFFFFFFFFFFFF8
7FFFFFFFFFFFFFFFFFFFFFFFFFFFFC
FFFFFFFFFFFFFFFFFFFFFFFFFFFFFC
FFFFFFFFFFFFFFFFFFFFFFFFFFFFFC
FFFFFFFFFFFFFFFFFFFFFFFFFFFFFE
FFFFFFFFFFFFFFFFFFFFFFFFFFFFFE
FFFFFFFFFFFFFFFFFFFFFFFFFFFFFE
FFFFFFFFFFFFFFFFFFFFFFFFFFFFFE
FFFFFFFFFFFFFFFFFFFFFFFFFFFFFE
FFFFFFFFFFFFFFFFFFFFFFFFFFFFFC
FFFFFFFFFFFFFFFFFFFFFFFFFFFFFC
FFFFFFFFFFFFFFFFFFFFFFFFFFFFFC
FFFFFFFFFFFFFFFFFFFFFFFFFFFFF8
FFFFFFFFFFFFFFFFFFFFFFFFFFFFF8
FFFFFFFFFFFFFFFFFFFFFFFFFFFFF0
FFFFFFFFFFFFFFFFFFFFFFFFFFFFF0
FFFFFFFFFFFFFFFFFFFFFFFFFFFFE0
FFFFFFFFFFFFFFFFFFFFFFFFFFFFC0
FFFFFFE000000000000003FFFFFFC0
FFFFFF0000000000000003FFFFFF80
FFFFFF0000000000000007FFFFFF80
FFFFFE000000000000000FFFFFFF00
FFFFFE000000000000000FFFFFFE00
FFFFFE000000000000001FFFFFFE00
FFFFFE000000000000001FFFFFFC00
FFFFFE000000000000003FFFFFFC00
FFFFFE000000000000007FFFFFF800
FFFFFE000000000000007FFFFFF000
FFFFFE00000000000000FFFFFFF000
FFFFFE00000000000000FFFFFFE000
FFFFFE00000000000001FFFFFFE000
FFFFFE00000000000003FFFFFFC000
FFFFFE00000000000003FFFFFFC000
FFFFFE00000000000007FFFFFF8000
FFFFFE00000000000007FFFFFF0000
FFFFFE0000000000000FFFFFFF0000
FFFFFE0000000000000FFFFFFE0000
FFFFFE0000000000001FFFFFFE0000
FFFFFE0000000000003FFFFFFC0000
FFFFFE0000000000003FFFFFF80000
FFFFFE0000000000007FFFFFF80000
FFFFFE0000000000007FFFFFF00000
FFFFFE000000000000FFFFFFF00000
FFFFFE000000000001FFFFFFE00000
FFFFFE000000000001FFFFFFC00000
FFFFFE000000000003FFFFFFC00000
FFFFFC000000000003FFFFFF800000
7FFFFC000000000007FFFFFF800000
7FFFF800000000000FFFFFFF000000
3FFFF800000000000FFFFFFE000000
1FFFF000000000001FFFFFFE000000
0FFFE000000000001FFFFFFC000000
03FF8000000000003FFFFFFC000000
00FE0000000000007FFFFFF8000000
00000000000000007FFFFFF0000000
0000000000000000FFFFFFF0000000
0000000000000000FFFFFFE0000000
0000000000000001FFFFFFE0000000
0000000000000003FFFFFFC0000000
0000000000000003FFFFFF80000000
0000000000000007FFFFFF80000000
0000000000000007FFFFFF00000000
000000000000000FFFFFFF00000000
000000000000001FFFFFFE00000000
000000000000001FFFFFFC00000000
000000000000003FFFFFFC00000000
000000000000003FFFFFF800000000
000000000000007FFFFFF800000000
00000000000000FFFFFFF000000000
00000000000000FFFFFFE000000000
00000000000001FFFFFFE000000000
00000000000001FFFFFFC000000000
00000000000003FFFFFFC000000000
00000000000007FFFFFF8000000000
00000000000007FFFFFF8000000000
0000000000000FFFFFFF0000000000
0000000000000FFFFFFE0000000000
0000000000001FFFFFFE0000000000
0000000000003FFFFFFC0000000000
0000000000003FFFFFFC0000000000
0000000000007FFFFFF80000000000
0000000000007FFFFFF00000000000
000000000000FFFFFFF00000000000
000000000000FFFFFFE00000000000
000000000001FFFFFFE00000000000
000000000003FFFFFFC00000000000
000000000003FFFFFF800000000000
000000000007FFFFFF800000000000
000000000007FFFFFF000000000000
000000000007FFFFFF000000000000
000000000007FFFFFE000000000000
000000000007FFFFFC000000000000
000000000007FFFFFC000000000000
000000000007FFFFF8000000000000
000000000007FFFFF8000000000000
000000000003FFFFF0000000000000
000000000003FFFFE0000000000000
000000000001FFFFE0000000000000
000000000001FFFFC0000000000000
000000000000FFFF80000000000000
0000000000007FFF00000000000000
0000000000001FFE00000000000000
00000000000003F800000000000000
ENDCHAR
STARTCHAR 0038
ENCODING 56
SWIDTH 783 0
DWIDTH 141 0
BBX 122 103 9 1
BITMAP
00000007FFFFFFFFFFFFFFF800000000
000000FFFFFFFFFFFFFFFFFFC0000000
000007FFFFFFFFFFFFFFFFFFF8000000
00001FFFFFFFFFFFFFFFFFFFFE000000
00007FFFFFFFFFFFFFFFFFFFFF800000
0001FFFFFFFFFFFFFFFFFFFFFFE00000
0003FFFFFFFFFFFFFFFFFFFFFFF00000
000FFFFFFFFFFFFFFFFFFFFFFFFC0000
001FFFFFFFFFFFFFFFFFFFFFFFFE0000
003FFFFFFFFFFFFFFFFFFFFFFFFF0000
007FFFFFFFFFFFFFFFFFFFFFFFFF8000
00FFFFFFFFFFFFFFFFFFFFFFFFFFC000
01FFFFFFFFFFFFFFFFFFFFFFFFFFE000
03FFFFFFFFFFFFFFFFFFFFFFFFFFF000
03FFFFFFFFFFFFFFFFFFFFFFFFFFF000
07FFFFFFFFFFFFFFFFFFFFFFFFFFF800
07FFFFFFFFFFFFFFFFFFFFFFFFFFFC00
0FFFFFFFFFFFFFFFFFFFFFFFFFFFFC00
0FFFFFFFFFFFFFFFFFFFFFFFFFFFFE00
1FFFFFFFFFFFFFFFFFFFFFFFFFFFFE00
1FFFFFFFFFFFFFFFFFFFFFFFFFFFFF00
3FFFFFFFFFFFFFFFFFFFFFFFFFFFFF00
3FFFFFFFFFFFFFFFFFFFFFFFFFFFFF00
3FFFFFFF000000000000001FFFFFFF80
7FFFFFF80000000000000007FFFFFF80
7FFFFFF00000000000000003FFFFFF80
7FFFFFE00000000000000001FFFFFF80
7FFFFFC00000000000000000FFFFFF80
7FFFFF8000000000000000007FFFFF80
7FFFFF8000000000000000007FFFFFC0
7FFFFF8000000000000000007FFFFFC0
7FFFFF8000000000000000007FFFFFC0
7FFFFF8000000000000000007FFFFFC0
7FFFFF8000000000000000007FFFFF80
7FFFFFC00000000000000000FFFFFF80
7FFFFFC00000000000000000FFFFFF80
7FFFFFE00000000000000001FFFFFF80
7FFFFFF80000000000000003FFFFFF80
3FFFFFFE000000000000000FFFFFFF80
3FFFFFFFFFFFFFFFFFFFFFFFFFFFFF00
3FFFFFFFFFFFFFFFFFFFFFFFFFFFFF00
1FFFFFFFFFFFFFFFFFFFFFFFFFFFFF00
1FFFFFFFFFFFFFFFFFFFFFFFFFFFFE00
0FFFFFFFFFFFFFFFFFFFFFFFFFFFFE00
0FFFFFFFFFFFFFFFFFFFFFFFFFFFFC00
07FFFFFFFFFFFFFFFFFFFFFFFFFFFC00
07FFFFFFFFFFFFFFFFFFFFFFFFFFF800
03FFFFFFFFFFFFFFFFFFFFFFFFFFF000
01FFFFFFFFFFFFFFFFFFFFFFFFFFF000
01FFFFFFFFFFFFFFFFFFFFFFFFFFE000
00FFFFFFFFFFFFFFFFFFFFFFFFFFC000
01FFFFFFFFFFFFFFFFFFFFFFFFFFE000
03FFFFFFFFFFFFFFFFFFFFFFFFFFF000
03FFFFFFFFFFFFFFFFFFFFFFFFFFF800
07FFFFFFFFFFFFFFFFFFFFFFFFFFF800
0FFFFFFFFFFFFFFFFFFFFFFFFFFFFC00
0FFFFFFFFFFFFFFFFFFFFFFFFFFFFE00
1FFFFFFFFFFFFFFFFFFFFFFFFFFFFE00
1FFFFFFFFFFFFFFFFFFFFFFFFFFFFF00
3FFFFFFFFFFFFFFFFFFFFFFFFFFFFF00
3FFFFFFFFFFFFFFFFFFFFFFFFFFFFF00
3FFFFFFFFFFFFFFFFFFFFFFFFFFFFF80
7FFFFFFFFFFFFFFFFFFFFFFFFFFFFF80
7FFFFFFE000000000000000FFFFFFF80
7FFFFFF00000000000000003FFFFFFC0
7FFFFFE00000000000000001FFFFFFC0
FFFFFFC00000000000000000FFFFFFC0
FFFFFF8000000000000000007FFFFFC0
FFFFFF8000000000000000007FFFFFC0
FFFFFF0000000000000000003FFFFFC0
FFFFFF0000000000000000003FFFFFC0
FFFFFF0000000000000000003FFFFFC0
FFFFFF0000000000000000003FFFFFC0
FFFFFF8000000000000000003FFFFFC0
FFFFFF8000000000000000007FFFFFC0
FFFFFFC000000000000000007FFFFFC0
FFFFFFC00000000000000000FFFFFFC0
7FFFFFF00000000000000001FFFFFFC0
7FFFFFF80000000000000007FFFFFF80
7FFFFFFF800000000000003FFFFFFF80
7FFFFFFFFFFFFFFFFFFFFFFFFFFFFF80
3FFFFFFFFFFFFFFFFFFFFFFFFFFFFF00
3FFFFFFFFFFFFFFFFFFFFFFFFFFFFF00
1FFFFFFFFFFFFFFFFFFFFFFFFFFFFF00
1FFFFFFFFFFFFFFFFFFFFFFFFFFFFE00
0FFFFFFFFFFFFFFFFFFFFFFFFFFFFE00
0FFFFFFFFFFFFFFFFFFFFFFFFFFFFC00
07FFFFFFFFFFFFFFFFFFFFFFFFFFF800
03FFFFFFFFFFFFFFFFFFFFFFFFFFF800
03FFFFFFFFFFFFFFFFFFFFFFFFFFF000
01FFFFFFFFFFFFFFFFFFFFFFFFFFE000
00FFFFFFFFFFFFFFFFFFFFFFFFFFC000
007FFFFFFFFFFFFFFFFFFFFFFFFF8000
003FFFFFFFFFFFFFFFFFFFFFFFFF0000
001FFFFFFFFFFFFFFFFFFFFFFFFE0000
000FFFFFFFFFFFFFFFFFFFFFFFFC0000
0003FFFFFFFFFFFFFFFFFFFFFFF80000
0001FFFFFFFFFFFFFFFFFFFFFFE00000
00007FFFFFFFFFFFFFFFFFFFFFC00000
00001FFFFFFFFFFFFFFFFFFFFF000000
000007FFFFFFFFFFFFFFFFFFF8000000
000000FFFFFFFFFFFFFFFFFFC0000000
0000000FFFFFFFFFFFFFFFFC00000000
ENDCHAR
STARTCHAR 0039
ENCODING 57
SWIDTH 783 0
DWIDTH 141 0
BBX 122 103 9 1
BITMAP
00000007FFFFFFFFFFFFFFE000000000
000001FFFFFFFFFFFFFFFFFE00000000
00000FFFFFFFFFFFFFFFFFFF80000000
00003FFFFFFFFFFFFFFFFFFFE0000000
0000FFFFFFFFFFFFFFFFFFFFF8000000
0001FFFFFFFFFFFFFFFFFFFFFE000000
0007FFFFFFFFFFFFFFFFFFFFFF000000
000FFFFFFFFFFFFFFFFFFFFFFF800000
001FFFFFFFFFFFFFFFFFFFFFFFC00000
007FFFFFFFFFFFFFFFFFFFFFFFE00000
00FFFFFFFFFFFFFFFFFFFFFFFFF00000
01FFFFFFFFFFFFFFFFFFFFFFFFF80000
01FFFFFFFFFFFFFFFFFFFFFFFFFC0000
03FFFFFFFFFFFFFFFFFFFFFFFFFC0000
07FFFFFFFFFFFFFFFFFFFFFFFFFE0000
0FFFFFFFFFFFFFFFFFFFFFFFFFFF0000
0FFFFFFFFFFFFFFFFFFFFFFFFFFF8000
1FFFFFFFFFFFFFFFFFFFFFFFFFFF8000
1FFFFFFFFFFFFFFFFFFFFFFFFFFFC000
3FFFFFFFFFFFFFFFFFFFFFFFFFFFC000
3FFFFFFFFFFFFFFFFFFFFFFFFFFFE000
7FFFFFFFFFFFFFFFFFFFFFFFFFFFE000
7FFFFFFFFFFFFFFFFFFFFFFFFFFFF000
7FFFFFFF8000000000007FFFFFFFF000
7FFFFFF800000000000007FFFFFFF800
FFFFFFE000000000000000FFFFFFF800
FFFFFFC0000000000000007FFFFFFC00
FFFFFF80000000000000003FFFFFFC00
FFFFFF80000000000000001FFFFFFC00
FFFFFF00000000000000000FFFFFFE00
FFFFFF000000000000000007FFFFFE00
FFFFFF000000000000000003FFFFFE00
FFFFFF000000000000000001FFFFFF00
FFFFFF000000000000000001FFFFFF00
FFFFFF800000000000000000FFFFFF00
FFFFFF800000000000000000FFFFFF00
FFFFFFC000000000000000007FFFFF00
FFFFFFE000000000000000007FFFFF80
FFFFFFF000000000000000003FFFFF80
7FFFFFFC00000000000000003FFFFF80
7FFFFFFFFFFFFFFFFFFF00003FFFFF80
7FFFFFFFFFFFFFFFFFFFF0001FFFFF80
3FFFFFFFFFFFFFFFFFFFFC001FFFFF80
3FFFFFFFFFFFFFFFFFFFFE001FFFFFC0
3FFFFFFFFFFFFFFFFFFFFF001FFFFFC0
1FFFFFFFFFFFFFFFFFFFFF000FFFFFC0
1FFFFFFFFFFFFFFFFFFFFF800FFFFFC0
0FFFFFFFFFFFFFFFFFFFFFC00FFFFFC0
07FFFFFFFFFFFFFFFFFFFFC00FFFFFC0
07FFFFFFFFFFFFFFFFFFFFC00FFFFFC0
03FFFFFFFFFFFFFFFFFFFFC00FFFFFC0
01FFFFFFFFFFFFFFFFFFFFC00FFFFFC0
00FFFFFFFFFFFFFFFFFFFFC00FFFFFC0
007FFFFFFFFFFFFFFFFFFFC00FFFFFC0
003FFFFFFFFFFFFFFFFFFFC00FFFFFC0
001FFFFFFFFFFFFFFFFFFFC00FFFFFC0
000FFFFFFFFFFFFFFFFFFFC00FFFFFC0
0007FFFFFFFFFFFFFFFFFF801FFFFFC0
0001FFFFFFFFFFFFFFFFFF801FFFFFC0
00007FFFFFFFFFFFFFFFFF001FFFFFC0
00001FFFFFFFFFFFFFFFFE001FFFFF80
000007FFFFFFFFFFFFFFFC001FFFFF80
000000FFFFFFFFFFFFFFF8003FFFFF80
00000007FFFFFFFFFFFFC0003FFFFF80
0000000000000000000000003FFFFF80
0000000000000000000000007FFFFF80
0000000000000000000000007FFFFF00
000000000000000000000000FFFFFF00
000000000000000000000000FFFFFF00
000000000000000000000001FFFFFF00
000000000000000000000001FFFFFE00
000000000000000000000003FFFFFE00
000000000000000000000007FFFFFE00
000000000000000000000007FFFFFE00
00000000000000000000000FFFFFFC00
00000000000000000000001FFFFFFC00
00000000000000000000007FFFFFFC00
0000000000000000000000FFFFFFF800
0000000000000000000003FFFFFFF800
000000000000000000003FFFFFFFF000
0003FFFFFFFFFFFFFFFFFFFFFFFFF000
001FFFFFFFFFFFFFFFFFFFFFFFFFE000
003FFFFFFFFFFFFFFFFFFFFFFFFFE000
007FFFFFFFFFFFFFFFFFFFFFFFFFC000
00FFFFFFFFFFFFFFFFFFFFFFFFFFC000
00FFFFFFFFFFFFFFFFFFFFFFFFFF8000
01FFFFFFFFFFFFFFFFFFFFFFFFFF8000
01FFFFFFFFFFFFFFFFFFFFFFFFFF0000
01FFFFFFFFFFFFFFFFFFFFFFFFFE0000
03FFFFFFFFFFFFFFFFFFFFFFFFFC0000
03FFFFFFFFFFFFFFFFFFFFFFFFFC0000
03FFFFFFFFFFFFFFFFFFFFFFFFF80000
03FFFFFFFFFFFFFFFFFFFFFFFFF00000
03FFFFFFFFFFFFFFFFFFFFFFFFE00000
01FFFFFFFFFFFFFFFFFFFFFFFFC00000
01FFFFFFFFFFFFFFFFFFFFFFFF800000
01FFFFFFFFFFFFFFFFFFFFFFFF000000
00FFFFFFFFFFFFFFFFFFFFFFFE000000
00FFFFFFFFFFFFFFFFFFFFFFF8000000
007FFFFFFFFFFFFFFFFFFFFFF0000000
003FFFFFFFFFFFFFFFFFFFFFC0000000
000FFFFFFFFFFFFFFFFFFFFF00000000
0003FFFFFFFFFFFFFFFFFFF000000000
ENDCHAR
STARTCHAR 003A
ENCODING 58
SWIDTH 322 0
DWIDTH 58 0
BBX 33 102 13 -2
BITMAP
001FF80000
007FFF0000
01FFFF8000
03FFFFE000
07FFFFF000
0FFFFFF800
1FFFFFF800
3FFFFFFC00
3FFFFFFE00
7FFFFFFE00
7FFFFFFF00
7FFFFFFF00
FFFFFFFF00
FFFFFFFF00
FFFFFFFF80
FFFFFFFF80
FFFFFFFF80
FFFFFFFF80
FFFFFFFF80
FFFFFFFF80
FFFFFFFF00
FFFFFFFF00
7FFFFFFF00
7FFFFFFF00
7FFFFFFE00
3FFFFFFE00
3FFFFFFC00
1FFFFFF800
0FFFFFF800
07FFFFF000
03FFFFE000
01FFFF8000
007FFE0000
000FF80000
0000000000
0000000000
0000000000
0000000000
0000000000
0000000000
0000000000
0000000000
0000000000
0000000000
0000000000
0000000000
0000000000
0000000000
0000000000
0000000000
0000000000
0000000000
0000000000
0000000000
0000000000
0000000000
0000000000
0000000000
0000000000
0000000000
0000000000
0000000000
0000000000
0000000000
0000000000
0000000000
0000000000
0000000000
000FF00000
007FFE0000
01FFFF8000
03FFFFC000
07FFFFF000
0FFFFFF000
1FFFFFF800
3FFFFFFC00
3FFFFFFE00
7FFFFFFE00
7FFFFFFF00
7FFFFFFF00
FFFFFFFF00
FFFFFFFF00
FFFFFFFF80
FFFFFFFF80
FFFFFFFF80
FFFFFFFF80
FFFFFFFF80
FFFFFFFF80
FFFFFFFF00
FFFFFFFF00
FFFFFFFF00
7FFFFFFF00
7FFFFFFE00
3FFFFFFE00
3FFFFFFC00
1FFFFFFC00
0FFFFFF800
0FFFFFF000
07FFFFE000
01FFFFC000
00FFFF0000
003FFC0000
ENDCHAR
STARTCHAR 003B
ENCODING 59
SWIDTH 322 0
DWIDTH 58 0
BBX 37 137 12 -37
BITMAP
0003F80000
003FFF0000
007FFFC000
01FFFFE000
03FFFFF000
07FFFFF800
0FFFFFFC00
0FFFFFFE00
1FFFFFFF00
3FFFFFFF00
3FFFFFFF00
3FFFFFFF80
7FFFFFFF80
7FFFFFFF80
7FFFFFFF80
7FFFFFFFC0
7FFFFFFFC0
7FFFFFFFC0
7FFFFFFFC0
7FFFFFFFC0
7FFFFFFF80
7FFFFFFF80
7FFFFFFF80
3FFFFFFF80
3FFFFFFF00
1FFFFFFF00
1FFFFFFE00
0FFFFFFE00
0FFFFFFC00
07FFFFF800
03FFFFF000
00FFFFE000
007FFF8000
001FFE0000
0000000000
0000000000
0000000000
0000000000
0000000000
0000000000
0000000000
0000000000
0000000000
0000000000
0000000000
0000000000
0000000000
0000000000
0000000000
0000000000
0000000000
0000000000
0000000000
0000000000
0000000000
0000000000
0000000000
0000000000
0000000000
0000000000
0000000000
0000000000
0000000000
0000000000
0000000000
0000000000
0000000000
0000000000
0000E00000
001FFF8000
007FFFE000
01FFFFF000
03FFFFFC00
07FFFFFE00
0FFFFFFE00
1FFFFFFF00
1FFFFFFF80
3FFFFFFF80
3FFFFFFFC0
7FFFFFFFC0
7FFFFFFFE0
7FFFFFFFE0
7FFFFFFFE0
7FFFFFFFF0
7FFFFFFFF0
7FFFFFFFF0
7FFFFFFFF0
7FFFFFFFF8
7FFFFFFFF8
3FFFFFFFF8
3FFFFFFFF8
1FFFFFFFF8
1FFFFFFFF8
0FFFFFFFF8
07FFFFFFF8
03FFFFFFF8
01FFFFFFF8
007FFFFFF8
001FFFFFF8
0001FFFFF8
00001FFFF8
00001FFFF8
00001FFFF0
00001FFFF0
00003FFFF0
00003FFFF0
00003FFFF0
00003FFFE0
00007FFFE0
00007FFFE0
0000FFFFC0
0001FFFFC0
0001FFFFC0
0003FFFF80
0007FFFF80
000FFFFF00
001FFFFF00
003FFFFE00
007FFFFC00
01FFFFFC00
07FFFFF800
0FFFFFF000
1FFFFFF000
3FFFFFE000
7FFFFFC000
FFFFFF8000
FFFFFF0000
FFFFFE0000
FFFFFC0000
FFFFF00000
FFFFE00000
FFFFC00000
7FFF000000
7FFE000000
3FF8000000
1FE0000000
0100000000
ENDCHAR
STARTCHAR 003C
ENCODING 60
SWIDTH 588 0
DWIDTH 106 0
BBX 92 83 7 27
BITMAP
000000000000000000007F00
00000000000000000001FFC0
0000000000000000000FFFC0
0000000000000000007FFFE0
000000000000000001FFFFF0
00000000000000000FFFFFF0
00000000000000003FFFFFF0
0000000000000001FFFFFFF0
0000000000000007FFFFFFF0
000000000000003FFFFFFFF0
00000000000001FFFFFFFFF0
00000000000007FFFFFFFFF0
0000000000003FFFFFFFFFE0
000000000000FFFFFFFFFFE0
000000000007FFFFFFFFFFC0
00000000001FFFFFFFFFFFC0
0000000000FFFFFFFFFFFF80
0000000007FFFFFFFFFFFF00
000000001FFFFFFFFFFFFE00
00000000FFFFFFFFFFFFFC00
00000003FFFFFFFFFFFFF800
0000001FFFFFFFFFFFFFC000
0000007FFFFFFFFFFFFE0000
000003FFFFFFFFFFFFF80000
00001FFFFFFFFFFFFFC00000
00007FFFFFFFFFFFFE000000
0003FFFFFFFFFFFFF0000000
000FFFFFFFFFFFFF80000000
007FFFFFFFFFFFFC00000000
01FFFFFFFFFFFFE000000000
07FFFFFFFFFFFF0000000000
0FFFFFFFFFFFF80000000000
1FFFFFFFFFFFC00000000000
3FFFFFFFFFFF000000000000
3FFFFFFFFFF8000000000000
7FFFFFFFFFC0000000000000
7FFFFFFFFE00000000000000
FFFFFFFFF000000000000000
FFFFFFFF8000000000000000
FFFFFFFE0000000000000000
FFFFFFF00000000000000000
FFFFFFE00000000000000000
FFFFFFF80000000000000000
FFFFFFFF0000000000000000
FFFFFFFFE000000000000000
FFFFFFFFFC00000000000000
7FFFFFFFFF80000000000000
7FFFFFFFFFE0000000000000
3FFFFFFFFFFC000000000000
1FFFFFFFFFFF800000000000
1FFFFFFFFFFFF00000000000
0FFFFFFFFFFFFE0000000000
03FFFFFFFFFFFFC000000000
01FFFFFFFFFFFFF800000000
003FFFFFFFFFFFFE00000000
0007FFFFFFFFFFFFC0000000
0001FFFFFFFFFFFFF8000000
00003FFFFFFFFFFFFF000000
00000FFFFFFFFFFFFFE00000
000001FFFFFFFFFFFFFC0000
0000003FFFFFFFFFFFFF8000
0000000FFFFFFFFFFFFFE000
00000001FFFFFFFFFFFFF800
000000007FFFFFFFFFFFFE00
000000000FFFFFFFFFFFFF00
0000000003FFFFFFFFFFFF80
00000000007FFFFFFFFFFF80
00000000000FFFFFFFFFFFC0
000000000003FFFFFFFFFFE0
0000000000007FFFFFFFFFE0
0000000000001FFFFFFFFFE0
00000000000003FFFFFFFFF0
000000000000007FFFFFFFF0
000000000000001FFFFFFFF0
0000000000000003FFFFFFF0
0000000000000000FFFFFFF0
00000000000000001FFFFFF0
000000000000000003FFFFF0
000000000000000000FFFFF0
0000000000000000001FFFE0
00000000000000000007FFC0
00000000000000000000FF80
000000000000000000003E00
ENDCHAR
STARTCHAR 003D
ENCODING 61
SWIDTH 588 0
DWIDTH 106 0
BBX 92 66 7 34
BITMAP
03FFFFFFFFFFFFFFFFFFFC00
0FFFFFFFFFFFFFFFFFFFFF00
1FFFFFFFFFFFFFFFFFFFFF80
3FFFFFFFFFFFFFFFFFFFFFC0
7FFFFFFFFFFFFFFFFFFFFFE0
7FFFFFFFFFFFFFFFFFFFFFE0
FFFFFFFFFFFFFFFFFFFFFFF0
FFFFFFFFFFFFFFFFFFFFFFF0
FFFFFFFFFFFFFFFFFFFFFFF0
FFFFFFFFFFFFFFFFFFFFFFF0
FFFFFFFFFFFFFFFFFFFFFFF0
FFFFFFFFFFFFFFFFFFFFFFF0
FFFFFFFFFFFFFFFFFFFFFFF0
7FFFFFFFFFFFFFFFFFFFFFE0
7FFFFFFFFFFFFFFFFFFFFFE0
3FFFFFFFFFFFFFFFFFFFFFC0
1FFFFFFFFFFFFFFFFFFFFF80
0FFFFFFFFFFFFFFFFFFFFF00
03FFFFFFFFFFFFFFFFFFFC00
000000000000000000000000
000000000000000000000000
000000000000000000000000
000000000000000000000000
000000000000000000000000
000000000000000000000000
000000000000000000000000
000000000000000000000000
000000000000000000000000
000000000000000000000000
000000000000000000000000
000000000000000000000000
000000000000000000000000
000000000000000000000000
000000000000000000000000
000000000000000000000000
000000000000000000000000
000000000000000000000000
000000000000000000000000
000000000000000000000000
000000000000000000000000
000000000000000000000000
000000000000000000000000
000000000000000000000000
000000000000000000000000
000000000000000000000000
000000000000000000000000
000000000000000000000000
03FFFFFFFFFFFFFFFFFFFC00
0FFFFFFFFFFFFFFFFFFFFF00
1FFFFFFFFFFFFFFFFFFFFF80
3FFFFFFFFFFFFFFFFFFFFFC0
7FFFFFFFFFFFFFFFFFFFFFE0
7FFFFFFFFFFFFFFFFFFFFFE0
FFFFFFFFFFFFFFFFFFFFFFF0
FFFFFFFFFFFFFFFFFFFFFFF0
FFFFFFFFFFFFFFFFFFFFFFF0
FFFFFFFFFFFFFFFFFFFFFFF0
FFFFFFFFFFFFFFFFFFFFFFF0
FFFFFFFFFFFFFFFFFFFFFFF0
FFFFFFFFFFFFFFFFFFFFFFF0
7FFFFFFFFFFFFFFFFFFFFFE0
7FFFFFFFFFFFFFFFFFFFFFE0
3FFFFFFFFFFFFFFFFFFFFFC0
1FFFFFFFFFFFFFFFFFFFFF80
0FFFFFFFFFFFFFFFFFFFFF00
03FFFFFFFFFFFFFFFFFFFC00
ENDCHAR
STARTCHAR 003E
ENCODING 62
SWIDTH 588 0
DWIDTH 106 0
BBX 92 83 7 27
BITMAP
0FE000000000000000000000
3FF800000000000000000000
7FFF00000000000000000000
7FFFE0000000000000000000
FFFFF8000000000000000000
FFFFFF000000000000000000
FFFFFFC00000000000000000
FFFFFFF80000000000000000
FFFFFFFE0000000000000000
FFFFFFFFC000000000000000
FFFFFFFFF800000000000000
FFFFFFFFFE00000000000000
7FFFFFFFFFC0000000000000
7FFFFFFFFFF0000000000000
3FFFFFFFFFFE000000000000
3FFFFFFFFFFFC00000000000
1FFFFFFFFFFFF00000000000
0FFFFFFFFFFFFE0000000000
07FFFFFFFFFFFF8000000000
03FFFFFFFFFFFFF000000000
00FFFFFFFFFFFFFC00000000
003FFFFFFFFFFFFF80000000
0007FFFFFFFFFFFFF0000000
0000FFFFFFFFFFFFFC000000
00001FFFFFFFFFFFFF800000
000007FFFFFFFFFFFFE00000
000000FFFFFFFFFFFFFC0000
0000001FFFFFFFFFFFFF0000
00000003FFFFFFFFFFFFE000
000000007FFFFFFFFFFFF800
000000000FFFFFFFFFFFFE00
0000000001FFFFFFFFFFFF00
00000000003FFFFFFFFFFF80
000000000007FFFFFFFFFFC0
000000000001FFFFFFFFFFC0
0000000000003FFFFFFFFFE0
00000000000007FFFFFFFFE0
00000000000000FFFFFFFFF0
000000000000001FFFFFFFF0
0000000000000003FFFFFFF0
00000000000000007FFFFFF0
00000000000000007FFFFFF0
0000000000000001FFFFFFF0
000000000000000FFFFFFFF0
000000000000007FFFFFFFF0
00000000000003FFFFFFFFF0
0000000000000FFFFFFFFFE0
0000000000007FFFFFFFFFE0
000000000003FFFFFFFFFFC0
00000000001FFFFFFFFFFF80
0000000000FFFFFFFFFFFF80
0000000007FFFFFFFFFFFF00
000000003FFFFFFFFFFFFC00
00000000FFFFFFFFFFFFF800
00000007FFFFFFFFFFFFC000
0000003FFFFFFFFFFFFF0000
000001FFFFFFFFFFFFF80000
00000FFFFFFFFFFFFFC00000
00007FFFFFFFFFFFFF000000
0003FFFFFFFFFFFFF8000000
001FFFFFFFFFFFFFE0000000
007FFFFFFFFFFFFF00000000
01FFFFFFFFFFFFF800000000
07FFFFFFFFFFFFE000000000
0FFFFFFFFFFFFF0000000000
1FFFFFFFFFFFFC0000000000
1FFFFFFFFFFFE00000000000
3FFFFFFFFFFF000000000000
7FFFFFFFFFFC000000000000
7FFFFFFFFFE0000000000000
7FFFFFFFFF80000000000000
FFFFFFFFFC00000000000000
FFFFFFFFE000000000000000
FFFFFFFF8000000000000000
FFFFFFFC0000000000000000
FFFFFFF00000000000000000
FFFFFF800000000000000000
FFFFFC000000000000000000
FFFFF0000000000000000000
7FFF80000000000000000000
3FFE00000000000000000000
1FF000000000000000000000
07C000000000000000000000
ENDCHAR
STARTCHAR 003F
ENCODING 63
SWIDTH 783 0
DWIDTH 141 0
BBX 118 106 11 -1
BITMAP
00FFFFFFFFFFFFFFFFFFFF00000000
03FFFFFFFFFFFFFFFFFFFFF8000000
0FFFFFFFFFFFFFFFFFFFFFFF000000
1FFFFFFFFFFFFFFFFFFFFFFFE00000
3FFFFFFFFFFFFFFFFFFFFFFFF80000
3FFFFFFFFFFFFFFFFFFFFFFFFE0000
7FFFFFFFFFFFFFFFFFFFFFFFFF0000
7FFFFFFFFFFFFFFFFFFFFFFFFF8000
FFFFFFFFFFFFFFFFFFFFFFFFFFE000
FFFFFFFFFFFFFFFFFFFFFFFFFFF000
FFFFFFFFFFFFFFFFFFFFFFFFFFF800
FFFFFFFFFFFFFFFFFFFFFFFFFFFC00
FFFFFFFFFFFFFFFFFFFFFFFFFFFE00
FFFFFFFFFFFFFFFFFFFFFFFFFFFF00
FFFFFFFFFFFFFFFFFFFFFFFFFFFF00
FFFFFFFFFFFFFFFFFFFFFFFFFFFF80
7FFFFFFFFFFFFFFFFFFFFFFFFFFFC0
7FFFFFFFFFFFFFFFFFFFFFFFFFFFC0
3FFFFFFFFFFFFFFFFFFFFFFFFFFFE0
1FFFFFFFFFFFFFFFFFFFFFFFFFFFE0
0FFFFFFFFFFFFFFFFFFFFFFFFFFFF0
07FFFFFFFFFFFFFFFFFFFFFFFFFFF0
01FFFFFFFFFFFFFFFFFFFFFFFFFFF0
000000000000000000000FFFFFFFF8
0000000000000000000000FFFFFFF8
00000000000000000000003FFFFFF8
00000000000000000000001FFFFFF8
00000000000000000000000FFFFFFC
000000000000000000000007FFFFFC
000000000000000000000007FFFFFC
000000000000000000000003FFFFFC
000000000000000000000003FFFFFC
000000000000000000000007FFFFFC
000000000000000000000007FFFFFC
00000000000000000000000FFFFFFC
00000000000000000000001FFFFFF8
00000000000000000000007FFFFFF8
0000000000000000000003FFFFFFF8
0000000000003FFFFFFFFFFFFFFFF8
000000000003FFFFFFFFFFFFFFFFF8
00000000000FFFFFFFFFFFFFFFFFF0
00000000001FFFFFFFFFFFFFFFFFF0
00000000007FFFFFFFFFFFFFFFFFE0
0000000000FFFFFFFFFFFFFFFFFFE0
0000000000FFFFFFFFFFFFFFFFFFC0
0000000001FFFFFFFFFFFFFFFFFFC0
0000000003FFFFFFFFFFFFFFFFFF80
0000000003FFFFFFFFFFFFFFFFFF80
0000000007FFFFFFFFFFFFFFFFFF00
0000000007FFFFFFFFFFFFFFFFFE00
000000000FFFFFFFFFFFFFFFFFFC00
000000000FFFFFFFFFFFFFFFFFF800
000000000FFFFFFFFFFFFFFFFFF000
000000000FFFFFFFFFFFFFFFFFE000
000000001FFFFFFFFFFFFFFFFFC000
000000001FFFFFFFFFFFFFFFFF0000
000000001FFFFFFFFFFFFFFFFE0000
000000001FFFFFFFFFFFFFFFF80000
000000001FFFFFFFFFFFFFFFE00000
000000001FFFFFFFFFFFFFFF800000
000000001FFFFFFFFFFFFFF8000000
000000001FFFFFFC00000000000000
000000001FFFFFF000000000000000
000000001FFFFFF000000000000000
000000001FFFFFF000000000000000
000000001FFFFFE000000000000000
000000001FFFFFE000000000000000
000000001FFFFFE000000000000000
000000000FFFFFE000000000000000
000000000FFFFFE000000000000000
0000000007FFFFC000000000000000
0000000007FFFFC000000000000000
0000000003FFFF8000000000000000
0000000001FFFF0000000000000000
0000000000FFFE0000000000000000
00000000003FF80000000000000000
000000000001000000000000000000
000000000000000000000000000000
000000000000000000000000000000
000000000000000000000000000000
000000000000000000000000000000
000000000000000000000000000000
00000000003FF80000000000000000
0000000000FFFE0000000000000000
0000000003FFFF8000000000000000
0000000007FFFFC000000000000000
000000000FFFFFE000000000000000
000000001FFFFFF000000000000000
000000003FFFFFF800000000000000
000000003FFFFFF800000000000000
000000003FFFFFF800000000000000
000000007FFFFFFC00000000000000
000000007FFFFFFC00000000000000
000000007FFFFFFC00000000000000
000000007FFFFFFC00000000000000
000000007FFFFFFC00000000000000
000000007FFFFFFC00000000000000
000000003FFFFFF800000000000000
000000003FFFFFF800000000000000
000000001FFFFFF000000000000000
000000000FFFFFE000000000000000
000000000FFFFFE000000000000000
0000000003FFFF8000000000000000
0000000001FFFF0000000000000000
00000000007FFC0000000000000000
00000000000FE00000000000000000
ENDCHAR
STARTCHAR 0040
ENCODING 64
SWIDTH 1000 0
DWIDTH 180 0
BBX 161 169 10 -34
BITMAP
00000000000000000000FFFFF00000000000000000
0000000000000000007FFFFFFFE000000000000000
000000000000000007FFFFFFFFFE00000000000000
00000000000000007FFFFFFFFFFFE0000000000000
0000000000000003FFFFFFFFFFFFFC000000000000
000000000000001FFFFFFFFFFFFFFF000000000000
00000000000000FFFFFFFFFFFFFFFFE00000000000
00000000000003FFFFFFFFFFFFFFFFF80000000000
0000000000000FFFFFFFFFFFFFFFFFFE0000000000
0000000000007FFFFFFFFFFFFFFFFFFF8000000000
000000000000FFFFFFFFFFFFFFFFFFFFC000000000
000000000003FFFFFFFFFFFFFFFFFFFFF000000000
00000000000FFFFFFFFFFFFFFFFFFFFFF800000000
00000000003FFFFFFFFFFFFFFFFFFFFFFE00000000
00000000007FFFFFFFFFFFFFFFFFFFFFFF00000000
0000000001FFFFFFFFFFFFFFFFFFFFFFFF80000000
0000000003FFFFFFFFFF00007FFFFFFFFFC0000000
000000000FFFFFFFFFC0000001FFFFFFFFE0000000
000000001FFFFFFFFE000000000FFFFFFFF0000000
000000003FFFFFFFE00000000001FFFFFFF8000000
00000000FFFFFFFF8000000000007FFFFFFC000000
00000001FFFFFFFC0000000000000FFFFFFE000000
00000003FFFFFFF000000000000003FFFFFF000000
00000007FFFFFFC000000000000000FFFFFF800000
0000000FFFFFFF00000000000000007FFFFFC00000
0000001FFFFFFE00000000000000001FFFFFE00000
0000003FFFFFF800000000000000000FFFFFE00000
0000007FFFFFE0000000000000000007FFFFF00000
000000FFFFFFC0000000000000000001FFFFF80000
000001FFFFFF00000000000000000000FFFFFC0000
000003FFFFFE000000000000000000007FFFFC0000
000007FFFFFC000000000000000000003FFFFE0000
000007FFFFF8000000000000000000001FFFFE0000
00000FFFFFE0000000000000000000001FFFFF0000
00001FFFFFC0000000000000000000000FFFFF8000
00003FFFFF800000000000000000000007FFFF8000
00007FFFFF000000000000000000000003FFFFC000
00007FFFFE000000000000000000000003FFFFC000
0000FFFFFC000000000000000000000001FFFFE000
0001FFFFF8000000000000000000000000FFFFE000
0001FFFFF0000000000000000000000000FFFFE000
0003FFFFE00000000000000000000000007FFFF000
0003FFFFE00000000000000000000000007FFFF000
0007FFFFC00000000000000000000000003FFFF800
000FFFFF800000000000000000000000003FFFF800
000FFFFF000000000000000000000000001FFFF800
001FFFFF000000000007FE0000000000001FFFFC00
001FFFFE00000000007FFFC000000000000FFFFC00
003FFFFC0000000003FFFFF0007F8000000FFFFC00
003FFFFC000000000FFFFFF801FFC000000FFFFC00
007FFFF8000000003FFFFFFC03FFE0000007FFFE00
007FFFF800000000FFFFFFFE07FFF0000007FFFE00
00FFFFF000000001FFFFFFFF0FFFF0000007FFFE00
00FFFFE000000003FFFFFFFF8FFFF0000003FFFE00
00FFFFE00000000FFFFFFFFF9FFFF0000003FFFE00
01FFFFC00000001FFFFFFFFFDFFFF0000003FFFF00
01FFFFC00000003FFFFFFFFFFFFFF0000003FFFF00
03FFFFC00000007FFFFFFFFFFFFFF0000001FFFF00
03FFFF80000000FFFFFFFFFFFFFFF0000001FFFF00
03FFFF80000001FFFFFFFFFFFFFFE0000001FFFF00
07FFFF00000003FFFFFFFFFFFFFFE0000001FFFF00
07FFFF00000007FFFFFFFFFFFFFFE0000001FFFF00
07FFFE00000007FFFFFFFFFFFFFFE0000001FFFF80
0FFFFE0000000FFFFFFF01FFFFFFE0000000FFFF80
0FFFFE0000001FFFFFF8007FFFFFC0000000FFFF80
0FFFFC0000001FFFFFE0003FFFFFC0000000FFFF80
1FFFFC0000003FFFFFC0001FFFFFC0000000FFFF80
1FFFFC0000007FFFFF80000FFFFFC0000000FFFF80
1FFFF80000007FFFFE000007FFFFC0000000FFFF80
1FFFF8000000FFFFFE000003FFFF80000000FFFF80
3FFFF8000000FFFFFC000003FFFF80000000FFFF80
3FFFF8000001FFFFF8000003FFFF80000000FFFF80
3FFFF0000001FFFFF0000007FFFF80000000FFFF80
3FFFF0000003FFFFF0000007FFFF80000000FFFF80
3FFFF0000003FFFFE0000007FFFF00000000FFFF80
7FFFF0000003FFFFC0000007FFFF00000000FFFF80
7FFFE0000007FFFFC0000007FFFF00000000FFFF80
7FFFE0000007FFFF8000000FFFFF00000000FFFF80
7FFFE0000007FFFF8000000FFFFF00000000FFFF80
7FFFE000000FFFFF8000000FFFFE00000000FFFF80
7FFFE000000FFFFF0000000FFFFE00000001FFFF00
7FFFE000000FFFFF0000000FFFFE00000001FFFF00
FFFFE000001FFFFF0000000FFFFE00000001FFFF00
FFFFC000001FFFFE0000001FFFFE00000001FFFF00
FFFFC000001FFFFE0000001FFFFC00000001FFFF00
FFFFC000001FFFFE0000001FFFFC00000003FFFF00
FFFFC000001FFFFE0000001FFFFC00000003FFFE00
FFFFC000003FFFFC0000001FFFFC00000003FFFE00
FFFFC000003FFFFC0000003FFFFC00000003FFFE00
FFFFC000003FFFFC0000003FFFF800000007FFFE00
FFFFC000003FFFFC0000003FFFF800000007FFFE00
FFFFC000003FFFFC0000003FFFF800000007FFFC00
FFFFC000003FFFFC0000003FFFF80000000FFFFC00
FFFFC000003FFFFC0000003FFFF80000000FFFFC00
FFFFC000003FFFFC0000007FFFF00000001FFFF800
FFFFC000003FFFFC0000007FFFF00000001FFFF800
FFFFC000003FFFFC0000007FFFF00000003FFFF800
FFFFC000003FFFFC0000007FFFF00000007FFFF000
FFFFC000003FFFFC000000FFFFF00000007FFFF000
FFFFC000003FFFFE000001FFFFF0000000FFFFE000
FFFFC000003FFFFE000001FFFFF0000001FFFFE000
FFFFC000003FFFFE000003FFFFF0000001FFFFC000
FFFFE000001FFFFF000007FFFFF0000003FFFFC000
FFFFE000001FFFFF80000FFFFFF0000007FFFF8000
7FFFE000001FFFFF80003FFFFFF800000FFFFF8000
7FFFE000001FFFFFC0007FFFFFF800001FFFFF0000
7FFFE000000FFFFFF001FFFFFFFC00007FFFFE0000
7FFFE000000FFFFFFC07FFFFFFFE0000FFFFFE0000
7FFFF000000FFFFFFFFFFFFFFFFF0003FFFFFC0000
7FFFF0000007FFFFFFFFFFFFFFFFE01FFFFFF80000
7FFFF0000007FFFFFFFFFFFFFFFFFFFFFFFFF80000
3FFFF0000003FFFFFFFFFFFFFFFFFFFFFFFFF00000
3FFFF8000003FFFFFFFFFFF7FFFFFFFFFFFFE00000
3FFFF8000001FFFFFFFFFFE3FFFFFFFFFFFFC00000
3FFFF8000001FFFFFFFFFFC3FFFFFFFFFFFF800000
3FFFF8000000FFFFFFFFFF81FFFFFFFFFFFF000000
1FFFFC0000007FFFFFFFFF01FFFFFFFFFFFE000000
1FFFFC0000003FFFFFFFFE00FFFFFFFFFFF8000000
1FFFFE0000001FFFFFFFFC00FFFFFFFFFFF0000000
0FFFFE0000000FFFFFFFF0007FFFFFFFFFE0000000
0FFFFE00000007FFFFFFE0003FFFFFFFFF80000000
0FFFFF00000001FFFFFF80001FFFFFFFFE00000000
07FFFF000000007FFFFE00000FFFFFFFFC00000000
07FFFF800000001FFFF8000003FFFFFFF000000000
07FFFF8000000001FF80000000FFFFFF8000000000
03FFFFC00000000000000000003FFFFC0000000000
03FFFFC000000000000000000003FFC00000000000
01FFFFE00000000000000000000000000000000000
01FFFFF00000000000000000000000000000000000
01FFFFF00000000000000000000000000000000000
00FFFFF80000000000000000000000000000000000
00FFFFFC0000000000000000000000000000000000
007FFFFE0000000000000000000000000000000000
007FFFFE0000000000000000000000000000000000
003FFFFF0000000000000000000000000000000000
001FFFFF8000000000000000000000000000000000
001FFFFFC000000000000000000000000000000000
000FFFFFE000000000000000000000000000000000
000FFFFFF000000000000000000000000000000000
0007FFFFFC00000000000000000000000000000000
0003FFFFFE00000000000000000000000000000000
0001FFFFFF00000000000000000000000000000000
0001FFFFFFC0000000000000000000000000000000
0000FFFFFFE0000000000000000000000000000000
00007FFFFFF8000000000000000000000000000000
00003FFFFFFE000000000000000000000000000000
00001FFFFFFF800000000000000000000000000000
00000FFFFFFFE00000000000000000000000000000
000007FFFFFFF8000000000007F800000000000000
000003FFFFFFFF00000000001FFE00000000000000
000001FFFFFFFFE000000001FFFF00000000000000
000000FFFFFFFFFE0000000FFFFF00000000000000
0000007FFFFFFFFFF80003FFFFFF80000000000000
0000001FFFFFFFFFFFFFFFFFFFFF80000000000000
0000000FFFFFFFFFFFFFFFFFFFFF80000000000000
00000007FFFFFFFFFFFFFFFFFFFF80000000000000
00000001FFFFFFFFFFFFFFFFFFFF80000000000000
00000000FFFFFFFFFFFFFFFFFFFF80000000000000
000000003FFFFFFFFFFFFFFFFFFF80000000000000
000000000FFFFFFFFFFFFFFFFFFF00000000000000
0000000003FFFFFFFFFFFFFFFFFE00000000000000
0000000000FFFFFFFFFFFFFFFFFE00000000000000
00000000003FFFFFFFFFFFFFFFF800000000000000
000000000007FFFFFFFFFFFFFFE000000000000000
000000000001FFFFFFFFFFFFFF0000000000000000
0000000000001FFFFFFFFFFFF80000000000000000
00000000000003FFFFFFFFFF800000000000000000
000000000000001FFFFFFFF8000000000000000000
00000000000000003FFFFC00000000000000000000
ENDCHAR
STARTCHAR 0041
ENCODING 65
SWIDTH 733 0
DWIDTH 132 0
BBX 119 110 6 -1
BITMAP
00000000000007FFE0000000000000
0000000000007FFFFC000000000000
000000000001FFFFFF000000000000
000000000007FFFFFFC00000000000
00000000000FFFFFFFF00000000000
00000000003FFFFFFFF80000000000
00000000007FFFFFFFFC0000000000
0000000000FFFFFFFFFE0000000000
0000000001FFFFFFFFFF0000000000
0000000003FFFFFFFFFF8000000000
0000000007FFFFFFFFFFC000000000
0000000007FFFFFFFFFFE000000000
000000000FFFFFFFFFFFE000000000
000000001FFFFFFFFFFFF000000000
000000001FFFFFFFFFFFF800000000
000000003FFFFFFFFFFFF800000000
000000003FFFFFFFFFFFFC00000000
000000007FFFFFFFFFFFFC00000000
00000000FFFFFFFFFFFFFE00000000
00000000FFFFFFFFFFFFFF00000000
00000001FFFFFFFFFFFFFF00000000
00000001FFFFFFFFFFFFFF80000000
00000003FFFFFFFFFFFFFF80000000
00000003FFFFFFFFFFFFFFC0000000
00000007FFFFFFFFFFFFFFC0000000
00000007FFFFFF83FFFFFFE0000000
0000000FFFFFFE00FFFFFFE0000000
0000000FFFFFFC007FFFFFF0000000
0000001FFFFFF8003FFFFFF0000000
0000001FFFFFF8003FFFFFF8000000
0000003FFFFFF0001FFFFFF8000000
0000003FFFFFE0000FFFFFFC000000
0000007FFFFFE0000FFFFFFC000000
0000007FFFFFC00007FFFFFE000000
000000FFFFFFC00007FFFFFE000000
000000FFFFFF800003FFFFFE000000
000001FFFFFF800001FFFFFF000000
000001FFFFFF000001FFFFFF000000
000001FFFFFF000000FFFFFF800000
000003FFFFFE000000FFFFFF800000
000003FFFFFE0000007FFFFFC00000
000007FFFFFC0000007FFFFFC00000
000007FFFFFC0000007FFFFFC00000
00000FFFFFF80000003FFFFFE00000
00000FFFFFF80000003FFFFFE00000
00000FFFFFF80000001FFFFFF00000
00001FFFFFF00000001FFFFFF00000
00001FFFFFF00000001FFFFFF00000
00003FFFFFE00000000FFFFFF80000
00003FFFFFE00000000FFFFFF80000
00003FFFFFE000000007FFFFFC0000
00007FFFFFC000000007FFFFFC0000
00007FFFFFC000000007FFFFFC0000
00007FFFFF8000000003FFFFFE0000
0000FFFFFF8000000003FFFFFE0000
0000FFFFFF8000000001FFFFFF0000
0001FFFFFF0000000001FFFFFF0000
0001FFFFFF0000000001FFFFFF0000
0001FFFFFF0000000000FFFFFF8000
0003FFFFFE0000000000FFFFFF8000
0003FFFFFE0000000000FFFFFF8000
0007FFFFFC00000000007FFFFFC000
0007FFFFFC00000000007FFFFFC000
0007FFFFFC00000000003FFFFFE000
000FFFFFF800000000003FFFFFE000
000FFFFFF800000000003FFFFFE000
001FFFFFF800000000001FFFFFF000
001FFFFFF000000000001FFFFFF000
001FFFFFF000000000001FFFFFF800
003FFFFFF0000FFFFFFFFFFFFFF800
003FFFFFE0003FFFFFFFFFFFFFF800
003FFFFFE0007FFFFFFFFFFFFFFC00
007FFFFFC000FFFFFFFFFFFFFFFC00
007FFFFFC001FFFFFFFFFFFFFFFC00
00FFFFFFC003FFFFFFFFFFFFFFFE00
00FFFFFF8003FFFFFFFFFFFFFFFE00
00FFFFFF8007FFFFFFFFFFFFFFFF00
01FFFFFF8007FFFFFFFFFFFFFFFF00
01FFFFFF0007FFFFFFFFFFFFFFFF00
03FFFFFF0007FFFFFFFFFFFFFFFF80
03FFFFFF0007FFFFFFFFFFFFFFFF80
03FFFFFE0007FFFFFFFFFFFFFFFFC0
07FFFFFE0007FFFFFFFFFFFFFFFFC0
07FFFFFC0007FFFFFFFFFFFFFFFFC0
07FFFFFC0007FFFFFFFFFFFFFFFFE0
0FFFFFFC0003FFFFFFFFFFFFFFFFE0
0FFFFFF80003FFFFFFFFFFFFFFFFF0
1FFFFFF80001FFFFFFFFFFFFFFFFF0
1FFFFFF80000FFFFFFFFFFFFFFFFF0
1FFFFFF000007FFFFFFFFFFFFFFFF8
3FFFFFF000003FFFFFFFFFFFFFFFF8
3FFFFFF000000FFFFFFFFFFFFFFFF8
7FFFFFE0000000000000000FFFFFFC
7FFFFFE0000000000000000FFFFFFC
7FFFFFC00000000000000007FFFFFE
FFFFFFC00000000000000007FFFFFE
FFFFFFC00000000000000007FFFFFE
FFFFFF800000000000000003FFFFFE
FFFFFF800000000000000003FFFFFE
FFFFFF800000000000000003FFFFFE
FFFFFF000000000000000001FFFFFE
FFFFFF000000000000000001FFFFFE
7FFFFE000000000000000000FFFFFE
7FFFFE000000000000000000FFFFFC
3FFFFC0000000000000000007FFFFC
3FFFF80000000000000000003FFFF8
1FFFF00000000000000000001FFFF0
0FFFE00000000000000000000FFFE0
03FFC000000000000000000007FFC0
007C00000000000000000000007E00
ENDCHAR
STARTCHAR 0042
ENCODING 66
SWIDTH 772 0
DWIDTH 139 0
BBX 121 103 11 1
BITMAP
00FFFFFFFFFFFFFFFFFF000000000000
03FFFFFFFFFFFFFFFFFFFC0000000000
07FFFFFFFFFFFFFFFFFFFF8000000000
0FFFFFFFFFFFFFFFFFFFFFE000000000
1FFFFFFFFFFFFFFFFFFFFFF800000000
3FFFFFFFFFFFFFFFFFFFFFFE00000000
7FFFFFFFFFFFFFFFFFFFFFFF80000000
7FFFFFFFFFFFFFFFFFFFFFFFC0000000
7FFFFFFFFFFFFFFFFFFFFFFFE0000000
FFFFFFFFFFFFFFFFFFFFFFFFF0000000
FFFFFFFFFFFFFFFFFFFFFFFFF8000000
FFFFFFFFFFFFFFFFFFFFFFFFFC000000
FFFFFFFFFFFFFFFFFFFFFFFFFE000000
FFFFFFFFFFFFFFFFFFFFFFFFFF000000
FFFFFFFFFFFFFFFFFFFFFFFFFF800000
FFFFFFFFFFFFFFFFFFFFFFFFFFC00000
FFFFFFFFFFFFFFFFFFFFFFFFFFC00000
FFFFFFFFFFFFFFFFFFFFFFFFFFE00000
FFFFFFFFFFFFFFFFFFFFFFFFFFE00000
FFFFFFFFFFFFFFFFFFFFFFFFFFF00000
FFFFFFFFFFFFFFFFFFFFFFFFFFF00000
FFFFFFFFFFFFFFFFFFFFFFFFFFF80000
FFFFFFFFFFFFFFFFFFFFFFFFFFF80000
FFFFFFF800000000000FFFFFFFF80000
FFFFFF800000000000007FFFFFFC0000
FFFFFF800000000000001FFFFFFC0000
FFFFFF000000000000000FFFFFFC0000
FFFFFF0000000000000007FFFFFC0000
FFFFFF0000000000000007FFFFFC0000
FFFFFF0000000000000003FFFFFC0000
FFFFFF0000000000000003FFFFFC0000
FFFFFF0000000000000003FFFFFC0000
FFFFFF0000000000000003FFFFFC0000
FFFFFF0000000000000003FFFFFC0000
FFFFFF0000000000000007FFFFFC0000
FFFFFF0000000000000007FFFFFC0000
FFFFFF000000000000000FFFFFFC0000
FFFFFF000000000000003FFFFFFC0000
FFFFFF00000000000000FFFFFFFC0000
FFFFFFFFFFFFFFFFFFFFFFFFFFF80000
FFFFFFFFFFFFFFFFFFFFFFFFFFF80000
FFFFFFFFFFFFFFFFFFFFFFFFFFF80000
FFFFFFFFFFFFFFFFFFFFFFFFFFF00000
FFFFFFFFFFFFFFFFFFFFFFFFFFF00000
FFFFFFFFFFFFFFFFFFFFFFFFFFE00000
FFFFFFFFFFFFFFFFFFFFFFFFFFE00000
FFFFFFFFFFFFFFFFFFFFFFFFFFF00000
FFFFFFFFFFFFFFFFFFFFFFFFFFF80000
FFFFFFFFFFFFFFFFFFFFFFFFFFFC0000
FFFFFFFFFFFFFFFFFFFFFFFFFFFE0000
FFFFFFFFFFFFFFFFFFFFFFFFFFFF0000
FFFFFFFFFFFFFFFFFFFFFFFFFFFF8000
FFFFFFFFFFFFFFFFFFFFFFFFFFFFC000
FFFFFFFFFFFFFFFFFFFFFFFFFFFFE000
FFFFFFFFFFFFFFFFFFFFFFFFFFFFF000
FFFFFFFFFFFFFFFFFFFFFFFFFFFFF000
FFFFFFFFFFFFFFFFFFFFFFFFFFFFF800
FFFFFFFFFFFFFFFFFFFFFFFFFFFFF800
FFFFFFFFFFFFFFFFFFFFFFFFFFFFFC00
FFFFFFFFFFFFFFFFFFFFFFFFFFFFFC00
FFFFFFFFFFFFFFFFFFFFFFFFFFFFFE00
FFFFFFFFFFFFFFFFFFFFFFFFFFFFFE00
FFFFFFFFFFFFFFFFFFFFFFFFFFFFFE00
FFFFFF00000000000000003FFFFFFF00
FFFFFF00000000000000000FFFFFFF00
FFFFFF000000000000000007FFFFFF00
FFFFFF000000000000000003FFFFFF00
FFFFFF000000000000000001FFFFFF00
FFFFFF000000000000000000FFFFFF00
FFFFFF000000000000000000FFFFFF80
FFFFFF000000000000000000FFFFFF80
FFFFFF000000000000000000FFFFFF80
FFFFFF000000000000000000FFFFFF80
FFFFFF000000000000000000FFFFFF80
FFFFFF000000000000000000FFFFFF00
FFFFFF000000000000000001FFFFFF00
FFFFFF000000000000000003FFFFFF00
FFFFFF000000000000000007FFFFFF00
FFFFFF80000000000000000FFFFFFF00
FFFFFFE0000000000000003FFFFFFF00
FFFFFFFFFFFFFFFFFFFFFFFFFFFFFE00
FFFFFFFFFFFFFFFFFFFFFFFFFFFFFE00
FFFFFFFFFFFFFFFFFFFFFFFFFFFFFC00
FFFFFFFFFFFFFFFFFFFFFFFFFFFFFC00
FFFFFFFFFFFFFFFFFFFFFFFFFFFFFC00
FFFFFFFFFFFFFFFFFFFFFFFFFFFFF800
FFFFFFFFFFFFFFFFFFFFFFFFFFFFF800
FFFFFFFFFFFFFFFFFFFFFFFFFFFFF000
FFFFFFFFFFFFFFFFFFFFFFFFFFFFE000
FFFFFFFFFFFFFFFFFFFFFFFFFFFFE000
FFFFFFFFFFFFFFFFFFFFFFFFFFFFC000
FFFFFFFFFFFFFFFFFFFFFFFFFFFF8000
FFFFFFFFFFFFFFFFFFFFFFFFFFFF0000
FFFFFFFFFFFFFFFFFFFFFFFFFFFE0000
7FFFFFFFFFFFFFFFFFFFFFFFFFFC0000
7FFFFFFFFFFFFFFFFFFFFFFFFFF80000
7FFFFFFFFFFFFFFFFFFFFFFFFFE00000
3FFFFFFFFFFFFFFFFFFFFFFFFFC00000
3FFFFFFFFFFFFFFFFFFFFFFFFF800000
1FFFFFFFFFFFFFFFFFFFFFFFFE000000
0FFFFFFFFFFFFFFFFFFFFFFFF8000000
03FFFFFFFFFFFFFFFFFFFFFFC0000000
00FFFFFFFFFFFFFFFFFFFFF800000000
ENDCHAR
STARTCHAR 0043
ENCODING 67
SWIDTH 700 0
DWIDTH 126 0
BBX 112 104 10 1
BITMAP
00000003FFFFFFFFFFFFFFFFFE00
0000001FFFFFFFFFFFFFFFFFFF80
000000FFFFFFFFFFFFFFFFFFFFE0
000003FFFFFFFFFFFFFFFFFFFFF0
000007FFFFFFFFFFFFFFFFFFFFF8
00001FFFFFFFFFFFFFFFFFFFFFFC
00003FFFFFFFFFFFFFFFFFFFFFFC
00007FFFFFFFFFFFFFFFFFFFFFFE
0000FFFFFFFFFFFFFFFFFFFFFFFE
0001FFFFFFFFFFFFFFFFFFFFFFFE
0003FFFFFFFFFFFFFFFFFFFFFFFE
0007FFFFFFFFFFFFFFFFFFFFFFFF
000FFFFFFFFFFFFFFFFFFFFFFFFF
001FFFFFFFFFFFFFFFFFFFFFFFFF
001FFFFFFFFFFFFFFFFFFFFFFFFE
003FFFFFFFFFFFFFFFFFFFFFFFFE
007FFFFFFFFFFFFFFFFFFFFFFFFE
007FFFFFFFFFFFFFFFFFFFFFFFFC
00FFFFFFFFFFFFFFFFFFFFFFFFFC
00FFFFFFFFFFFFFFFFFFFFFFFFF8
01FFFFFFFFFFFFFFFFFFFFFFFFF0
01FFFFFFFFFFFFFFFFFFFFFFFFC0
03FFFFFFFFFFFFFFFFFFFFFFFF80
03FFFFFFFF800000000000000000
07FFFFFFF8000000000000000000
07FFFFFFC0000000000000000000
0FFFFFFF80000000000000000000
0FFFFFFE00000000000000000000
0FFFFFFC00000000000000000000
1FFFFFFC00000000000000000000
1FFFFFF800000000000000000000
1FFFFFF000000000000000000000
1FFFFFE000000000000000000000
3FFFFFE000000000000000000000
3FFFFFC000000000000000000000
3FFFFFC000000000000000000000
3FFFFF8000000000000000000000
7FFFFF8000000000000000000000
7FFFFF0000000000000000000000
7FFFFF0000000000000000000000
7FFFFF0000000000000000000000
7FFFFE0000000000000000000000
7FFFFE0000000000000000000000
FFFFFE0000000000000000000000
FFFFFE0000000000000000000000
FFFFFE0000000000000000000000
FFFFFC0000000000000000000000
FFFFFC0000000000000000000000
FFFFFC0000000000000000000000
FFFFFC0000000000000000000000
FFFFFC0000000000000000000000
FFFFFC0000000000000000000000
FFFFFC0000000000000000000000
FFFFFC0000000000000000000000
FFFFFC0000000000000000000000
FFFFFC0000000000000000000000
FFFFFC0000000000000000000000
FFFFFC0000000000000000000000
FFFFFE0000000000000000000000
FFFFFE0000000000000000000000
FFFFFE0000000000000000000000
7FFFFE0000000000000000000000
7FFFFE0000000000000000000000
7FFFFF0000000000000000000000
7FFFFF0000000000000000000000
7FFFFF0000000000000000000000
7FFFFF8000000000000000000000
3FFFFF8000000000000000000000
3FFFFF8000000000000000000000
3FFFFFC000000000000000000000
3FFFFFE000000000000000000000
1FFFFFE000000000000000000000
1FFFFFF000000000000000000000
1FFFFFF800000000000000000000
1FFFFFFC00000000000000000000
0FFFFFFE00000000000000000000
0FFFFFFF00000000000000000000
07FFFFFF80000000000000000000
07FFFFFFE0000000000000000000
07FFFFFFFC000000000000000000
03FFFFFFFFFFFFFFFFFFFFFFFC00
03FFFFFFFFFFFFFFFFFFFFFFFF80
01FFFFFFFFFFFFFFFFFFFFFFFFE0
01FFFFFFFFFFFFFFFFFFFFFFFFF0
00FFFFFFFFFFFFFFFFFFFFFFFFF8
00FFFFFFFFFFFFFFFFFFFFFFFFFC
007FFFFFFFFFFFFFFFFFFFFFFFFC
003FFFFFFFFFFFFFFFFFFFFFFFFE
003FFFFFFFFFFFFFFFFFFFFFFFFE
001FFFFFFFFFFFFFFFFFFFFFFFFE
000FFFFFFFFFFFFFFFFFFFFFFFFE
0007FFFFFFFFFFFFFFFFFFFFFFFF
0007FFFFFFFFFFFFFFFFFFFFFFFF
0003FFFFFFFFFFFFFFFFFFFFFFFF
0001FFFFFFFFFFFFFFFFFFFFFFFE
0000FFFFFFFFFFFFFFFFFFFFFFFE
00007FFFFFFFFFFFFFFFFFFFFFFE
00003FFFFFFFFFFFFFFFFFFFFFFC
00000FFFFFFFFFFFFFFFFFFFFFFC
000007FFFFFFFFFFFFFFFFFFFFF8
000001FFFFFFFFFFFFFFFFFFFFF0
0000007FFFFFFFFFFFFFFFFFFFE0
0000000FFFFFFFFFFFFFFFFFFF80
000000003FFFFFFFFFFFFFFFF800
ENDCHAR
STARTCHAR 0044
ENCODING 68
SWIDTH 727 0
DWIDTH 131 0
BBX 112 104 11 1
BITMAP
00FFFFFFFFFFFFFFFFFF80000000
03FFFFFFFFFFFFFFFFFFF8000000
07FFFFFFFFFFFFFFFFFFFE000000
0FFFFFFFFFFFFFFFFFFFFF800000
1FFFFFFFFFFFFFFFFFFFFFE00000
3FFFFFFFFFFFFFFFFFFFFFF80000
3FFFFFFFFFFFFFFFFFFFFFFC0000
7FFFFFFFFFFFFFFFFFFFFFFE0000
7FFFFFFFFFFFFFFFFFFFFFFF0000
7FFFFFFFFFFFFFFFFFFFFFFF8000
FFFFFFFFFFFFFFFFFFFFFFFFC000
FFFFFFFFFFFFFFFFFFFFFFFFE000
FFFFFFFFFFFFFFFFFFFFFFFFE000
7FFFFFFFFFFFFFFFFFFFFFFFF000
7FFFFFFFFFFFFFFFFFFFFFFFF800
7FFFFFFFFFFFFFFFFFFFFFFFFC00
7FFFFFFFFFFFFFFFFFFFFFFFFC00
3FFFFFFFFFFFFFFFFFFFFFFFFE00
3FFFFFFFFFFFFFFFFFFFFFFFFF00
1FFFFFFFFFFFFFFFFFFFFFFFFF00
0FFFFFFFFFFFFFFFFFFFFFFFFF80
07FFFFFFFFFFFFFFFFFFFFFFFF80
01FFFFFFFFFFFFFFFFFFFFFFFFC0
000000000000000001FFFFFFFFC0
0000000000000000001FFFFFFFE0
00000000000000000003FFFFFFE0
00000000000000000001FFFFFFE0
00000000000000000000FFFFFFF0
000000000000000000007FFFFFF0
000000000000000000003FFFFFF8
000000000000000000001FFFFFF8
000000000000000000000FFFFFF8
0000000000000000000007FFFFF8
0000000000000000000007FFFFFC
0000000000000000000003FFFFFC
0000000000000000000003FFFFFC
0000000000000000000001FFFFFC
003E000000000000000001FFFFFE
01FFC00000000000000000FFFFFE
07FFE00000000000000000FFFFFE
0FFFF00000000000000000FFFFFE
1FFFF800000000000000007FFFFE
3FFFFC00000000000000007FFFFE
3FFFFE00000000000000007FFFFF
7FFFFE00000000000000007FFFFF
7FFFFF00000000000000007FFFFF
7FFFFF00000000000000003FFFFF
FFFFFF00000000000000003FFFFF
FFFFFF00000000000000003FFFFF
FFFFFF00000000000000003FFFFF
FFFFFF00000000000000003FFFFF
FFFFFF00000000000000003FFFFF
FFFFFF00000000000000003FFFFF
FFFFFF00000000000000003FFFFF
FFFFFF00000000000000003FFFFF
FFFFFF00000000000000003FFFFF
FFFFFF00000000000000003FFFFF
FFFFFF00000000000000003FFFFF
FFFFFF00000000000000007FFFFF
FFFFFF00000000000000007FFFFF
FFFFFF00000000000000007FFFFF
FFFFFF00000000000000007FFFFE
FFFFFF0000000000000000FFFFFE
FFFFFF0000000000000000FFFFFE
FFFFFF0000000000000000FFFFFE
FFFFFF0000000000000001FFFFFE
FFFFFF0000000000000001FFFFFE
FFFFFF0000000000000001FFFFFC
FFFFFF0000000000000003FFFFFC
FFFFFF0000000000000003FFFFFC
FFFFFF0000000000000007FFFFFC
FFFFFF000000000000000FFFFFF8
FFFFFF000000000000000FFFFFF8
FFFFFF000000000000001FFFFFF8
FFFFFF000000000000003FFFFFF8
FFFFFF000000000000007FFFFFF0
FFFFFF00000000000000FFFFFFF0
FFFFFF00000000000001FFFFFFE0
FFFFFF80000000000007FFFFFFE0
FFFFFFC000000000003FFFFFFFE0
FFFFFFFFFFFFFFFFFFFFFFFFFFC0
FFFFFFFFFFFFFFFFFFFFFFFFFFC0
FFFFFFFFFFFFFFFFFFFFFFFFFF80
FFFFFFFFFFFFFFFFFFFFFFFFFF80
FFFFFFFFFFFFFFFFFFFFFFFFFF00
FFFFFFFFFFFFFFFFFFFFFFFFFF00
FFFFFFFFFFFFFFFFFFFFFFFFFE00
FFFFFFFFFFFFFFFFFFFFFFFFFC00
FFFFFFFFFFFFFFFFFFFFFFFFFC00
FFFFFFFFFFFFFFFFFFFFFFFFF800
FFFFFFFFFFFFFFFFFFFFFFFFF000
FFFFFFFFFFFFFFFFFFFFFFFFE000
FFFFFFFFFFFFFFFFFFFFFFFFC000
FFFFFFFFFFFFFFFFFFFFFFFFC000
7FFFFFFFFFFFFFFFFFFFFFFF8000
7FFFFFFFFFFFFFFFFFFFFFFF0000
7FFFFFFFFFFFFFFFFFFFFFFE0000
3FFFFFFFFFFFFFFFFFFFFFF80000
3FFFFFFFFFFFFFFFFFFFFFF00000
1FFFFFFFFFFFFFFFFFFFFFC00000
0FFFFFFFFFFFFFFFFFFFFF800000
07FFFFFFFFFFFFFFFFFFFC000000
01FFFFFFFFFFFFFFFFFFF0000000
001FFFFFFFFFFFFFFFFC00000000
ENDCHAR
STARTCHAR 0045
ENCODING 69
SWIDTH 722 0
DWIDTH 130 0
BBX 115 104 9 1
BITMAP
00000001FFFFFFFFFFFFFFFFFFE000
0000001FFFFFFFFFFFFFFFFFFFF800
0000007FFFFFFFFFFFFFFFFFFFFC00
000001FFFFFFFFFFFFFFFFFFFFFE00
000007FFFFFFFFFFFFFFFFFFFFFF00
00001FFFFFFFFFFFFFFFFFFFFFFF80
00003FFFFFFFFFFFFFFFFFFFFFFFC0
00007FFFFFFFFFFFFFFFFFFFFFFFC0
0000FFFFFFFFFFFFFFFFFFFFFFFFC0
0001FFFFFFFFFFFFFFFFFFFFFFFFE0
0003FFFFFFFFFFFFFFFFFFFFFFFFE0
0007FFFFFFFFFFFFFFFFFFFFFFFFE0
000FFFFFFFFFFFFFFFFFFFFFFFFFE0
000FFFFFFFFFFFFFFFFFFFFFFFFFE0
001FFFFFFFFFFFFFFFFFFFFFFFFFC0
003FFFFFFFFFFFFFFFFFFFFFFFFFC0
003FFFFFFFFFFFFFFFFFFFFFFFFFC0
007FFFFFFFFFFFFFFFFFFFFFFFFF80
00FFFFFFFFFFFFFFFFFFFFFFFFFF80
00FFFFFFFFFFFFFFFFFFFFFFFFFF00
01FFFFFFFFFFFFFFFFFFFFFFFFFE00
01FFFFFFFFFFFFFFFFFFFFFFFFFC00
03FFFFFFFFFFFFFFFFFFFFFFFFF000
03FFFFFFFF80000000000000000000
07FFFFFFF800000000000000000000
07FFFFFFC000000000000000000000
0FFFFFFF8000000000000000000000
0FFFFFFF0000000000000000000000
0FFFFFFE0000000000000000000000
1FFFFFFC0000000000000000000000
1FFFFFF80000000000000000000000
1FFFFFF00000000000000000000000
1FFFFFE00000000000000000000000
3FFFFFE00000000000000000000000
3FFFFFC00000000000000000000000
3FFFFFC00000000000000000000000
3FFFFF800000000000000000000000
7FFFFF800000000000000000000000
7FFFFF000000000000000000000000
7FFFFF000001FFFFFFFFFFFFFF0000
7FFFFF00001FFFFFFFFFFFFFFFE000
7FFFFE00003FFFFFFFFFFFFFFFF800
7FFFFE00007FFFFFFFFFFFFFFFFC00
FFFFFE0000FFFFFFFFFFFFFFFFFE00
FFFFFE0001FFFFFFFFFFFFFFFFFF00
FFFFFE0003FFFFFFFFFFFFFFFFFF00
FFFFFC0003FFFFFFFFFFFFFFFFFF80
FFFFFC0003FFFFFFFFFFFFFFFFFF80
FFFFFC0007FFFFFFFFFFFFFFFFFF80
FFFFFC0007FFFFFFFFFFFFFFFFFFC0
FFFFFC0007FFFFFFFFFFFFFFFFFFC0
FFFFFC0007FFFFFFFFFFFFFFFFFFC0
FFFFFC0007FFFFFFFFFFFFFFFFFFC0
FFFFFC0007FFFFFFFFFFFFFFFFFF80
FFFFFC0007FFFFFFFFFFFFFFFFFF80
FFFFFC0003FFFFFFFFFFFFFFFFFF80
FFFFFC0003FFFFFFFFFFFFFFFFFF00
FFFFFC0001FFFFFFFFFFFFFFFFFF00
FFFFFE0000FFFFFFFFFFFFFFFFFE00
FFFFFE00007FFFFFFFFFFFFFFFFC00
FFFFFE00003FFFFFFFFFFFFFFFF800
7FFFFE00001FFFFFFFFFFFFFFFE000
7FFFFE000003FFFFFFFFFFFFFF8000
7FFFFF000000000000000000000000
7FFFFF000000000000000000000000
7FFFFF000000000000000000000000
7FFFFF800000000000000000000000
3FFFFF800000000000000000000000
3FFFFFC00000000000000000000000
3FFFFFC00000000000000000000000
3FFFFFE00000000000000000000000
1FFFFFF00000000000000000000000
1FFFFFF00000000000000000000000
1FFFFFF80000000000000000000000
1FFFFFFC0000000000000000000000
0FFFFFFE0000000000000000000000
0FFFFFFF0000000000000000000000
07FFFFFF8000000000000000000000
07FFFFFFE000000000000000000000
07FFFFFFFC00000000000000000000
03FFFFFFFFFFFFFFFFFFFFFFFFC000
03FFFFFFFFFFFFFFFFFFFFFFFFF800
01FFFFFFFFFFFFFFFFFFFFFFFFFC00
01FFFFFFFFFFFFFFFFFFFFFFFFFE00
00FFFFFFFFFFFFFFFFFFFFFFFFFF00
00FFFFFFFFFFFFFFFFFFFFFFFFFF80
007FFFFFFFFFFFFFFFFFFFFFFFFF80
003FFFFFFFFFFFFFFFFFFFFFFFFFC0
003FFFFFFFFFFFFFFFFFFFFFFFFFC0
001FFFFFFFFFFFFFFFFFFFFFFFFFE0
000FFFFFFFFFFFFFFFFFFFFFFFFFE0
0007FFFFFFFFFFFFFFFFFFFFFFFFE0
0003FFFFFFFFFFFFFFFFFFFFFFFFE0
0003FFFFFFFFFFFFFFFFFFFFFFFFE0
0001FFFFFFFFFFFFFFFFFFFFFFFFE0
0000FFFFFFFFFFFFFFFFFFFFFFFFC0
00007FFFFFFFFFFFFFFFFFFFFFFFC0
00001FFFFFFFFFFFFFFFFFFFFFFF80
00000FFFFFFFFFFFFFFFFFFFFFFF80
000007FFFFFFFFFFFFFFFFFFFFFF00
000001FFFFFFFFFFFFFFFFFFFFFE00
0000003FFFFFFFFFFFFFFFFFFFFC00
0000000FFFFFFFFFFFFFFFFFFFF000
000000003FFFFFFFFFFFFFFFFF8000
ENDCHAR
STARTCHAR 0046
ENCODING 70
SWIDTH 727 0
DWIDTH 131 0
BBX 115 106 12 -1
BITMAP
00000003FFFFFFFFFFFFFFFFFFC000
0000003FFFFFFFFFFFFFFFFFFFF000
000001FFFFFFFFFFFFFFFFFFFFFC00
000007FFFFFFFFFFFFFFFFFFFFFE00
00000FFFFFFFFFFFFFFFFFFFFFFF00
00003FFFFFFFFFFFFFFFFFFFFFFF00
00007FFFFFFFFFFFFFFFFFFFFFFF80
0001FFFFFFFFFFFFFFFFFFFFFFFF80
0003FFFFFFFFFFFFFFFFFFFFFFFFC0
0007FFFFFFFFFFFFFFFFFFFFFFFFC0
000FFFFFFFFFFFFFFFFFFFFFFFFFC0
000FFFFFFFFFFFFFFFFFFFFFFFFFC0
001FFFFFFFFFFFFFFFFFFFFFFFFFC0
003FFFFFFFFFFFFFFFFFFFFFFFFFC0
007FFFFFFFFFFFFFFFFFFFFFFFFFC0
007FFFFFFFFFFFFFFFFFFFFFFFFFC0
00FFFFFFFFFFFFFFFFFFFFFFFFFF80
01FFFFFFFFFFFFFFFFFFFFFFFFFF80
01FFFFFFFFFFFFFFFFFFFFFFFFFF00
03FFFFFFFFFFFFFFFFFFFFFFFFFE00
03FFFFFFFFFFFFFFFFFFFFFFFFFC00
07FFFFFFFFFFFFFFFFFFFFFFFFF800
07FFFFFFFFFFFFFFFFFFFFFFFFE000
0FFFFFFFFF80000000000000000000
0FFFFFFFF000000000000000000000
0FFFFFFFC000000000000000000000
1FFFFFFF0000000000000000000000
1FFFFFFE0000000000000000000000
1FFFFFFC0000000000000000000000
3FFFFFF80000000000000000000000
3FFFFFF00000000000000000000000
3FFFFFF00000000000000000000000
3FFFFFE00000000000000000000000
7FFFFFC00000000000000000000000
7FFFFFC00000000000000000000000
7FFFFF800000000000000000000000
7FFFFF800000000000000000000000
7FFFFF800000000000000000000000
7FFFFF000000000000000000000000
FFFFFF000000000000000000000000
FFFFFF000000000000000000000000
FFFFFF000000000000000000000000
FFFFFF000000000000000000000000
FFFFFF000000000000000000000000
FFFFFF000000000000000000000000
FFFFFF000000000000000000000000
FFFFFE000000000000000000000000
FFFFFE000000000000000000000000
FFFFFE0001FFFFFFFFFFFFFFFFE000
FFFFFE0007FFFFFFFFFFFFFFFFF800
FFFFFE000FFFFFFFFFFFFFFFFFFC00
FFFFFE001FFFFFFFFFFFFFFFFFFE00
FFFFFE003FFFFFFFFFFFFFFFFFFF00
FFFFFE007FFFFFFFFFFFFFFFFFFF80
FFFFFE007FFFFFFFFFFFFFFFFFFF80
FFFFFE00FFFFFFFFFFFFFFFFFFFFC0
FFFFFE00FFFFFFFFFFFFFFFFFFFFC0
FFFFFE00FFFFFFFFFFFFFFFFFFFFC0
FFFFFE00FFFFFFFFFFFFFFFFFFFFE0
FFFFFE00FFFFFFFFFFFFFFFFFFFFE0
FFFFFE00FFFFFFFFFFFFFFFFFFFFE0
FFFFFE00FFFFFFFFFFFFFFFFFFFFC0
FFFFFE00FFFFFFFFFFFFFFFFFFFFC0
FFFFFE00FFFFFFFFFFFFFFFFFFFFC0
FFFFFE007FFFFFFFFFFFFFFFFFFFC0
FFFFFE007FFFFFFFFFFFFFFFFFFF80
FFFFFE003FFFFFFFFFFFFFFFFFFF00
FFFFFE001FFFFFFFFFFFFFFFFFFF00
FFFFFE000FFFFFFFFFFFFFFFFFFE00
FFFFFE0007FFFFFFFFFFFFFFFFF800
FFFFFE0001FFFFFFFFFFFFFFFFE000
FFFFFE000000000000000000000000
FFFFFE000000000000000000000000
FFFFFE000000000000000000000000
FFFFFE000000000000000000000000
FFFFFE000000000000000000000000
FFFFFE000000000000000000000000
FFFFFE000000000000000000000000
FFFFFE000000000000000000000000
FFFFFE000000000000000000000000
FFFFFE000000000000000000000000
FFFFFE000000000000000000000000
FFFFFE000000000000000000000000
FFFFFE000000000000000000000000
FFFFFE000000000000000000000000
FFFFFE000000000000000000000000
FFFFFE000000000000000000000000
FFFFFE000000000000000000000000
FFFFFE000000000000000000000000
FFFFFE000000000000000000000000
FFFFFE000000000000000000000000
FFFFFE000000000000000000000000
FFFFFE000000000000000000000000
FFFFFE000000000000000000000000
FFFFFE000000000000000000000000
FFFFFE000000000000000000000000
FFFFFE000000000000000000000000
FFFFFE000000000000000000000000
FFFFFC000000000000000000000000
7FFFFC000000000000000000000000
3FFFF8000000000000000000000000
3FFFF8000000000000000000000000
1FFFF0000000000000000000000000
0FFFC0000000000000000000000000
03FF80000000000000000000000000
007C00000000000000000000000000
ENDCHAR
STARTCHAR 0047
ENCODING 71
SWIDTH 788 0
DWIDTH 142 0
BBX 122 104 9 1
BITMAP
00000001FFFFFFFFFFFFFFFFFFFF8000
0000001FFFFFFFFFFFFFFFFFFFFFE000
0000007FFFFFFFFFFFFFFFFFFFFFF800
000001FFFFFFFFFFFFFFFFFFFFFFFC00
000007FFFFFFFFFFFFFFFFFFFFFFFE00
00001FFFFFFFFFFFFFFFFFFFFFFFFE00
00003FFFFFFFFFFFFFFFFFFFFFFFFF00
00007FFFFFFFFFFFFFFFFFFFFFFFFF00
0000FFFFFFFFFFFFFFFFFFFFFFFFFF80
0001FFFFFFFFFFFFFFFFFFFFFFFFFF80
0003FFFFFFFFFFFFFFFFFFFFFFFFFF80
0007FFFFFFFFFFFFFFFFFFFFFFFFFF80
000FFFFFFFFFFFFFFFFFFFFFFFFFFF80
000FFFFFFFFFFFFFFFFFFFFFFFFFFF80
001FFFFFFFFFFFFFFFFFFFFFFFFFFF80
003FFFFFFFFFFFFFFFFFFFFFFFFFFF80
003FFFFFFFFFFFFFFFFFFFFFFFFFFF00
007FFFFFFFFFFFFFFFFFFFFFFFFFFF00
00FFFFFFFFFFFFFFFFFFFFFFFFFFFE00
00FFFFFFFFFFFFFFFFFFFFFFFFFFFC00
01FFFFFFFFFFFFFFFFFFFFFFFFFFFC00
01FFFFFFFFFFFFFFFFFFFFFFFFFFF000
03FFFFFFFFFFFFFFFFFFFFFFFFFFC000
03FFFFFFFF8000000000000000000000
07FFFFFFF80000000000000000000000
07FFFFFFC00000000000000000000000
0FFFFFFF800000000000000000000000
0FFFFFFF000000000000000000000000
0FFFFFFE000000000000000000000000
1FFFFFFC000000000000000000000000
1FFFFFF8000000000000000000000000
1FFFFFF0000000000000000000000000
1FFFFFE0000000000000000000000000
3FFFFFE0000000000000000000000000
3FFFFFC0000000000000000000000000
3FFFFFC0000000000000000000000000
3FFFFF80000000000000000000000000
7FFFFF80000000000000000000000000
7FFFFF00000000000000000000000000
7FFFFF000000FFFFFFFFFFFFFFFF0000
7FFFFF000007FFFFFFFFFFFFFFFFE000
7FFFFE00001FFFFFFFFFFFFFFFFFF800
7FFFFE00003FFFFFFFFFFFFFFFFFFC00
FFFFFE00007FFFFFFFFFFFFFFFFFFE00
FFFFFE0000FFFFFFFFFFFFFFFFFFFF00
FFFFFE0001FFFFFFFFFFFFFFFFFFFF00
FFFFFC0001FFFFFFFFFFFFFFFFFFFF80
FFFFFC0001FFFFFFFFFFFFFFFFFFFF80
FFFFFC0003FFFFFFFFFFFFFFFFFFFFC0
FFFFFC0003FFFFFFFFFFFFFFFFFFFFC0
FFFFFC0003FFFFFFFFFFFFFFFFFFFFC0
FFFFFC0003FFFFFFFFFFFFFFFFFFFFC0
FFFFFC0003FFFFFFFFFFFFFFFFFFFFC0
FFFFFC0003FFFFFFFFFFFFFFFFFFFFC0
FFFFFC0001FFFFFFFFFFFFFFFFFFFFC0
FFFFFC0001FFFFFFFFFFFFFFFFFFFFC0
FFFFFC0001FFFFFFFFFFFFFFFFFFFFC0
FFFFFC0000FFFFFFFFFFFFFFFFFFFFC0
FFFFFE00007FFFFFFFFFFFFFFFFFFFC0
FFFFFE00003FFFFFFFFFFFFFFFFFFFC0
FFFFFE00001FFFFFFFFFFFFFFFFFFFC0
7FFFFE00000FFFFFFFFFFFFFFFFFFFC0
7FFFFE000001FFFFFFFFFFFFFFFFFFC0
7FFFFF0000000000000000007FFFFFC0
7FFFFF0000000000000000003FFFFFC0
7FFFFF0000000000000000003FFFFFC0
7FFFFF8000000000000000003FFFFFC0
3FFFFF8000000000000000003FFFFFC0
3FFFFFC000000000000000003FFFFFC0
3FFFFFC000000000000000003FFFFFC0
3FFFFFE000000000000000003FFFFFC0
1FFFFFF000000000000000003FFFFFC0
1FFFFFF000000000000000003FFFFFC0
1FFFFFF800000000000000003FFFFFC0
1FFFFFFC00000000000000003FFFFFC0
0FFFFFFE00000000000000003FFFFFC0
0FFFFFFF00000000000000003FFFFFC0
07FFFFFF80000000000000003FFFFFC0
07FFFFFFE0000000000000003FFFFFC0
07FFFFFFFC000000000000007FFFFFC0
03FFFFFFFFFFFFFFFFFFFFFFFFFFFFC0
03FFFFFFFFFFFFFFFFFFFFFFFFFFFFC0
01FFFFFFFFFFFFFFFFFFFFFFFFFFFFC0
01FFFFFFFFFFFFFFFFFFFFFFFFFFFFC0
00FFFFFFFFFFFFFFFFFFFFFFFFFFFFC0
00FFFFFFFFFFFFFFFFFFFFFFFFFFFFC0
007FFFFFFFFFFFFFFFFFFFFFFFFFFFC0
003FFFFFFFFFFFFFFFFFFFFFFFFFFFC0
003FFFFFFFFFFFFFFFFFFFFFFFFFFFC0
001FFFFFFFFFFFFFFFFFFFFFFFFFFFC0
000FFFFFFFFFFFFFFFFFFFFFFFFFFFC0
0007FFFFFFFFFFFFFFFFFFFFFFFFFFC0
0003FFFFFFFFFFFFFFFFFFFFFFFFFFC0
0003FFFFFFFFFFFFFFFFFFFFFFFFFFC0
0001FFFFFFFFFFFFFFFFFFFFFFFFFFC0
0000FFFFFFFFFFFFFFFFFFFFFFFFFF80
00007FFFFFFFFFFFFFFFFFFFFFFFFF80
00001FFFFFFFFFFFFFFFFFFFFFFFFF00
00000FFFFFFFFFFFFFFFFFFFFFFFFF00
000007FFFFFFFFFFFFFFFFFFFFFFFE00
000001FFFFFFFFFFFFFFFFFFFFFFFC00
0000003FFFFFFFFFFFFFFFFFFFFFF800
0000000FFFFFFFFFFFFFFFFFFFFFE000
000000003FFFFFFFFFFFFFFFFFFF0000
ENDCHAR
STARTCHAR 0048
ENCODING 72
SWIDTH 700 0
DWIDTH 126 0
BBX 105 109 11 -3
BITMAP
007E0000000000000000003F0000
03FF800000000000000001FFC000
07FFE00000000000000003FFF000
0FFFF0000000000000000FFFF800
1FFFF8000000000000000FFFFC00
3FFFFC000000000000001FFFFE00
7FFFFC000000000000003FFFFE00
7FFFFE000000000000003FFFFF00
7FFFFE000000000000007FFFFF00
FFFFFF000000000000007FFFFF00
FFFFFF000000000000007FFFFF80
FFFFFF000000000000007FFFFF80
FFFFFF000000000000007FFFFF80
FFFFFF000000000000007FFFFF80
FFFFFF000000000000007FFFFF80
FFFFFF000000000000007FFFFF80
FFFFFF000000000000007FFFFF80
FFFFFF000000000000007FFFFF80
FFFFFF000000000000007FFFFF80
FFFFFF000000000000007FFFFF80
FFFFFF000000000000007FFFFF80
FFFFFF000000000000007FFFFF80
FFFFFF000000000000007FFFFF80
FFFFFF000000000000007FFFFF80
FFFFFF000000000000007FFFFF80
FFFFFF000000000000007FFFFF80
FFFFFF000000000000007FFFFF80
FFFFFF000000000000007FFFFF80
FFFFFF000000000000007FFFFF80
FFFFFF000000000000007FFFFF80
FFFFFF000000000000007FFFFF80
FFFFFF000000000000007FFFFF80
FFFFFF000000000000007FFFFF80
FFFFFF000000000000007FFFFF80
FFFFFF000000000000007FFFFF80
FFFFFF000000000000007FFFFF80
FFFFFF000000000000007FFFFF80
FFFFFF000000000000007FFFFF80
FFFFFF000000000000007FFFFF80
FFFFFF000000000000007FFFFF80
FFFFFF000000000000007FFFFF80
FFFFFFFFFFFFFFFFFFFFFFFFFF80
FFFFFFFFFFFFFFFFFFFFFFFFFF80
FFFFFFFFFFFFFFFFFFFFFFFFFF80
FFFFFFFFFFFFFFFFFFFFFFFFFF80
FFFFFFFFFFFFFFFFFFFFFFFFFF80
FFFFFFFFFFFFFFFFFFFFFFFFFF80
FFFFFFFFFFFFFFFFFFFFFFFFFF80
FFFFFFFFFFFFFFFFFFFFFFFFFF80
FFFFFFFFFFFFFFFFFFFFFFFFFF80
FFFFFFFFFFFFFFFFFFFFFFFFFF80
FFFFFFFFFFFFFFFFFFFFFFFFFF80
FFFFFFFFFFFFFFFFFFFFFFFFFF80
FFFFFFFFFFFFFFFFFFFFFFFFFF80
FFFFFFFFFFFFFFFFFFFFFFFFFF80
FFFFFFFFFFFFFFFFFFFFFFFFFF80
FFFFFFFFFFFFFFFFFFFFFFFFFF80
FFFFFFFFFFFFFFFFFFFFFFFFFF80
FFFFFFFFFFFFFFFFFFFFFFFFFF80
FFFFFFFFFFFFFFFFFFFFFFFFFF80
FFFFFFFFFFFFFFFFFFFFFFFFFF80
FFFFFFFFFFFFFFFFFFFFFFFFFF80
FFFFFFFFFFFFFFFFFFFFFFFFFF80
FFFFFFFFFFFFFFFFFFFFFFFFFF80
FFFFFF000000000000007FFFFF80
FFFFFF000000000000007FFFFF80
FFFFFF000000000000007FFFFF80
FFFFFF000000000000007FFFFF80
FFFFFF000000000000007FFFFF80
FFFFFF000000000000007FFFFF80
FFFFFF000000000000007FFFFF80
FFFFFF000000000000007FFFFF80
FFFFFF000000000000007FFFFF80
FFFFFF000000000000007FFFFF80
FFFFFF000000000000007FFFFF80
FFFFFF000000000000007FFFFF80
FFFFFF000000000000007FFFFF80
FFFFFF000000000000007FFFFF80
FFFFFF000000000000007FFFFF80
FFFFFF000000000000007FFFFF80
FFFFFF000000000000007FFFFF80
FFFFFF000000000000007FFFFF80
FFFFFF000000000000007FFFFF80
FFFFFF000000000000007FFFFF80
FFFFFF000000000000007FFFFF80
FFFFFF000000000000007FFFFF80
FFFFFF000000000000007FFFFF80
FFFFFF000000000000007FFFFF80
FFFFFF000000000000007FFFFF80
FFFFFF000000000000007FFFFF80
FFFFFF000000000000007FFFFF80
FFFFFF000000000000007FFFFF80
FFFFFF000000000000007FFFFF80
FFFFFF000000000000007FFFFF80
FFFFFF000000000000007FFFFF80
FFFFFF000000000000007FFFFF80
FFFFFF000000000000007FFFFF80
FFFFFF000000000000007FFFFF80
FFFFFF000000000000007FFFFF80
FFFFFF000000000000007FFFFF00
FFFFFE000000000000007FFFFF00
7FFFFE000000000000003FFFFF00
7FFFFE000000000000003FFFFF00
3FFFFC000000000000001FFFFE00
3FFFFC000000000000001FFFFC00
1FFFF8000000000000000FFFFC00
0FFFF00000000000000007FFF000
03FFC00000000000000001FFE000
00FF0000000000000000007F0000
ENDCHAR
STARTCHAR 0049
ENCODING 73
SWIDTH 716 0
DWIDTH 129 0
BBX 115 104 7 1
BITMAP
00FFFFFFFFFFFFFFFFFFFFFFFFE000
03FFFFFFFFFFFFFFFFFFFFFFFFF800
07FFFFFFFFFFFFFFFFFFFFFFFFFE00
0FFFFFFFFFFFFFFFFFFFFFFFFFFF00
1FFFFFFFFFFFFFFFFFFFFFFFFFFF80
3FFFFFFFFFFFFFFFFFFFFFFFFFFF80
3FFFFFFFFFFFFFFFFFFFFFFFFFFFC0
7FFFFFFFFFFFFFFFFFFFFFFFFFFFC0
7FFFFFFFFFFFFFFFFFFFFFFFFFFFE0
7FFFFFFFFFFFFFFFFFFFFFFFFFFFE0
FFFFFFFFFFFFFFFFFFFFFFFFFFFFE0
FFFFFFFFFFFFFFFFFFFFFFFFFFFFE0
FFFFFFFFFFFFFFFFFFFFFFFFFFFFE0
7FFFFFFFFFFFFFFFFFFFFFFFFFFFE0
7FFFFFFFFFFFFFFFFFFFFFFFFFFFE0
7FFFFFFFFFFFFFFFFFFFFFFFFFFFC0
7FFFFFFFFFFFFFFFFFFFFFFFFFFFC0
3FFFFFFFFFFFFFFFFFFFFFFFFFFFC0
1FFFFFFFFFFFFFFFFFFFFFFFFFFF80
1FFFFFFFFFFFFFFFFFFFFFFFFFFF00
0FFFFFFFFFFFFFFFFFFFFFFFFFFE00
03FFFFFFFFFFFFFFFFFFFFFFFFFC00
01FFFFFFFFFFFFFFFFFFFFFFFFF000
000000000003FFFFFC000000000000
000000000003FFFFFC000000000000
000000000003FFFFFC000000000000
000000000003FFFFFC000000000000
000000000003FFFFFC000000000000
000000000003FFFFFC000000000000
000000000003FFFFFC000000000000
000000000003FFFFFC000000000000
000000000003FFFFFC000000000000
000000000003FFFFFC000000000000
000000000003FFFFFC000000000000
000000000003FFFFFC000000000000
000000000003FFFFFC000000000000
000000000003FFFFFC000000000000
000000000003FFFFFC000000000000
000000000003FFFFFC000000000000
000000000003FFFFFC000000000000
000000000003FFFFFC000000000000
000000000003FFFFFC000000000000
000000000003FFFFFC000000000000
000000000003FFFFFC000000000000
000000000003FFFFFC000000000000
000000000003FFFFFC000000000000
000000000003FFFFFC000000000000
000000000003FFFFFC000000000000
000000000003FFFFFC000000000000
000000000003FFFFFC000000000000
000000000003FFFFFC000000000000
000000000003FFFFFC000000000000
000000000003FFFFFC000000000000
000000000003FFFFFC000000000000
000000000003FFFFFC000000000000
000000000003FFFFFC000000000000
000000000003FFFFFC000000000000
000000000003FFFFFC000000000000
000000000003FFFFFC000000000000
000000000003FFFFFC000000000000
000000000003FFFFFC000000000000
000000000003FFFFFC000000000000
000000000003FFFFFC000000000000
000000000003FFFFFC000000000000
000000000003FFFFFC000000000000
000000000003FFFFFC000000000000
000000000003FFFFFC000000000000
000000000003FFFFFC000000000000
000000000003FFFFFC000000000000
000000000003FFFFFC000000000000
000000000003FFFFFC000000000000
000000000003FFFFFC000000000000
000000000003FFFFFC000000000000
000000000003FFFFFC000000000000
000000000003FFFFFC000000000000
000000000003FFFFFC000000000000
000000000003FFFFFC000000000000
000000000003FFFFFC000000000000
000000000003FFFFFC000000000000
000000000003FFFFFC000000000000
007FFFFFFFFFFFFFFFFFFFFFFFC000
03FFFFFFFFFFFFFFFFFFFFFFFFF800
07FFFFFFFFFFFFFFFFFFFFFFFFFE00
0FFFFFFFFFFFFFFFFFFFFFFFFFFF00
1FFFFFFFFFFFFFFFFFFFFFFFFFFF80
3FFFFFFFFFFFFFFFFFFFFFFFFFFF80
3FFFFFFFFFFFFFFFFFFFFFFFFFFFC0
7FFFFFFFFFFFFFFFFFFFFFFFFFFFC0
7FFFFFFFFFFFFFFFFFFFFFFFFFFFE0
7FFFFFFFFFFFFFFFFFFFFFFFFFFFE0
FFFFFFFFFFFFFFFFFFFFFFFFFFFFE0
FFFFFFFFFFFFFFFFFFFFFFFFFFFFE0
FFFFFFFFFFFFFFFFFFFFFFFFFFFFE0
FFFFFFFFFFFFFFFFFFFFFFFFFFFFE0
7FFFFFFFFFFFFFFFFFFFFFFFFFFFE0
7FFFFFFFFFFFFFFFFFFFFFFFFFFFC0
7FFFFFFFFFFFFFFFFFFFFFFFFFFFC0
3FFFFFFFFFFFFFFFFFFFFFFFFFFFC0
3FFFFFFFFFFFFFFFFFFFFFFFFFFF80
1FFFFFFFFFFFFFFFFFFFFFFFFFFF00
0FFFFFFFFFFFFFFFFFFFFFFFFFFE00
07FFFFFFFFFFFFFFFFFFFFFFFFFC00
01FFFFFFFFFFFFFFFFFFFFFFFFF000
001FFFFFFFFFFFFFFFFFFFFFFF8000
ENDCHAR
STARTCHAR 004A
ENCODING 74
SWIDTH 733 0
DWIDTH 132 0
BBX 112 110 9 -3
BITMAP
000000000000000000000001FF00
000000000000000000000007FFE0
00000000000000000000000FFFF0
00000000000000000000001FFFF8
00000000000000000000003FFFFC
00000000000000000000007FFFFC
00000000000000000000007FFFFE
00000000000000000000007FFFFE
0000000000000000000000FFFFFE
0000000000000000000000FFFFFF
0000000000000000000000FFFFFF
0000000000000000000000FFFFFF
0000000000000000000000FFFFFF
0000000000000000000000FFFFFF
0000000000000000000000FFFFFF
0000000000000000000000FFFFFF
0000000000000000000000FFFFFF
0000000000000000000000FFFFFF
0000000000000000000000FFFFFF
0000000000000000000000FFFFFF
0000000000000000000000FFFFFF
0000000000000000000000FFFFFF
0000000000000000000000FFFFFF
0000000000000000000000FFFFFF
0000000000000000000000FFFFFF
0000000000000000000000FFFFFF
0000000000000000000000FFFFFF
0000000000000000000000FFFFFF
0000000000000000000000FFFFFF
0000000000000000000000FFFFFF
0000000000000000000000FFFFFF
0000000000000000000000FFFFFF
0000000000000000000000FFFFFF
0000000000000000000000FFFFFF
0000000000000000000000FFFFFF
0000000000000000000000FFFFFF
0000000000000000000000FFFFFF
0000000000000000000000FFFFFF
0000000000000000000000FFFFFF
0000000000000000000000FFFFFF
0000000000000000000000FFFFFF
0000000000000000000000FFFFFF
0000000000000000000000FFFFFF
0000000000000000000000FFFFFF
0000000000000000000000FFFFFF
0000000000000000000000FFFFFF
0000000000000000000000FFFFFF
0000000000000000000000FFFFFF
0000000000000000000000FFFFFF
0000000000000000000000FFFFFF
0000000000000000000000FFFFFF
0000000000000000000000FFFFFF
0000000000000000000000FFFFFF
00FE000000000000000000FFFFFF
03FF800000000000000000FFFFFF
0FFFE00000000000000000FFFFFF
1FFFF00000000000000000FFFFFF
3FFFF80000000000000000FFFFFF
7FFFFC0000000000000000FFFFFF
7FFFFC0000000000000000FFFFFF
FFFFFE0000000000000000FFFFFF
FFFFFE0000000000000000FFFFFF
FFFFFE0000000000000000FFFFFF
FFFFFE0000000000000000FFFFFF
FFFFFE0000000000000000FFFFFF
FFFFFE0000000000000000FFFFFF
FFFFFE0000000000000000FFFFFF
FFFFFE0000000000000000FFFFFF
FFFFFE0000000000000000FFFFFF
FFFFFE0000000000000000FFFFFF
FFFFFE0000000000000000FFFFFF
FFFFFF0000000000000000FFFFFF
FFFFFF0000000000000001FFFFFF
FFFFFF0000000000000001FFFFFF
FFFFFF8000000000000001FFFFFF
FFFFFF8000000000000003FFFFFF
FFFFFFC000000000000007FFFFFF
FFFFFFE00000000000000FFFFFFE
FFFFFFF00000000000001FFFFFFE
FFFFFFF80000000000003FFFFFFE
7FFFFFFC0000000000007FFFFFFE
7FFFFFFF000000000000FFFFFFFC
7FFFFFFF800000000003FFFFFFFC
3FFFFFFFE0000000000FFFFFFFFC
3FFFFFFFFC000000003FFFFFFFF8
1FFFFFFFFF00000001FFFFFFFFF8
1FFFFFFFFFF000000FFFFFFFFFF0
0FFFFFFFFFFF8001FFFFFFFFFFF0
07FFFFFFFFFFFFFFFFFFFFFFFFE0
07FFFFFFFFFFFFFFFFFFFFFFFFC0
03FFFFFFFFFFFFFFFFFFFFFFFF80
01FFFFFFFFFFFFFFFFFFFFFFFF00
00FFFFFFFFFFFFFFFFFFFFFFFE00
007FFFFFFFFFFFFFFFFFFFFFFC00
003FFFFFFFFFFFFFFFFFFFFFF800
001FFFFFFFFFFFFFFFFFFFFFF000
0007FFFFFFFFFFFFFFFFFFFFE000
0003FFFFFFFFFFFFFFFFFFFFC000
0001FFFFFFFFFFFFFFFFFFFF0000
00007FFFFFFFFFFFFFFFFFFE0000
00003FFFFFFFFFFFFFFFFFF80000
00000FFFFFFFFFFFFFFFFFE00000
000003FFFFFFFFFFFFFFFF800000
000000FFFFFFFFFFFFFFFE000000
0000001FFFFFFFFFFFFFF8000000
00000007FFFFFFFFFFFFC0000000
00000000FFFFFFFFFFFE00000000
000000000FFFFFFFFFE000000000
0000000000FFFFFFFE0000000000
000000000001FFFF800000000000
ENDCHAR
STARTCHAR 004B
ENCODING 75
SWIDTH 777 0
DWIDTH 140 0
BBX 122 109 11 -3
BITMAP
007E0000000000000000000000000000
03FF8000000000000000000000000000
07FFE000000000000000000000FF0000
0FFFF000000000000000000007FFC000
1FFFF80000000000000000001FFFE000
3FFFFC000000000000000000FFFFF000
7FFFFC000000000000000003FFFFF800
7FFFFE00000000000000000FFFFFFC00
7FFFFE00000000000000007FFFFFFC00
FFFFFF0000000000000001FFFFFFFE00
FFFFFF0000000000000007FFFFFFFE00
FFFFFF000000000000003FFFFFFFFE00
FFFFFF00000000000000FFFFFFFFFE00
FFFFFF00000000000003FFFFFFFFFE00
FFFFFF0000000000001FFFFFFFFFFE00
FFFFFF0000000000007FFFFFFFFFFE00
FFFFFF000000000001FFFFFFFFFFFE00
FFFFFF00000000000FFFFFFFFFFFFE00
FFFFFF00000000003FFFFFFFFFFFFC00
FFFFFF0000000000FFFFFFFFFFFFFC00
FFFFFF0000000007FFFFFFFFFFFFF800
FFFFFF000000001FFFFFFFFFFFFFF800
FFFFFF000000007FFFFFFFFFFFFFF000
FFFFFF00000001FFFFFFFFFFFFFFE000
FFFFFF00000007FFFFFFFFFFFFFF8000
FFFFFF0000000FFFFFFFFFFFFFFF0000
FFFFFF0000003FFFFFFFFFFFFFF80000
FFFFFF000000FFFFFFFFFFFFFFE00000
FFFFFF000003FFFFFFFFFFFFFF000000
FFFFFF000007FFFFFFFFFFFFF8000000
FFFFFF00001FFFFFFFFFFFFFE0000000
FFFFFF00003FFFFFFFFFFFFF00000000
FFFFFF0000FFFFFFFFFFFFF800000000
FFFFFF0001FFFFFFFFFFFFE000000000
FFFFFF0003FFFFFFFFFFFF0000000000
FFFFFF0007FFFFFFFFFFFC0000000000
FFFFFF000FFFFFFFFFFFE00000000000
FFFFFF001FFFFFFFFFFF000000000000
FFFFFF001FFFFFFFFFFC000000000000
FFFFFF003FFFFFFFFFF0000000000000
FFFFFF007FFFFFFFFF80000000000000
FFFFFF007FFFFFFFFE00000000000000
FFFFFF00FFFFFFFFF800000000000000
FFFFFF00FFFFFFFFE000000000000000
FFFFFF00FFFFFFFF8000000000000000
FFFFFF01FFFFFFFE0000000000000000
FFFFFF01FFFFFFFC0000000000000000
FFFFFF01FFFFFFF00000000000000000
FFFFFF01FFFFFFE00000000000000000
FFFFFF03FFFFFFC00000000000000000
FFFFFF03FFFFFF800000000000000000
FFFFFF03FFFFFF000000000000000000
FFFFFF03FFFFFE000000000000000000
FFFFFF03FFFFFE000000000000000000
FFFFFF03FFFFFE000000000000000000
FFFFFF03FFFFFE000000000000000000
FFFFFF03FFFFFF000000000000000000
FFFFFF03FFFFFF000000000000000000
FFFFFF03FFFFFF800000000000000000
FFFFFF01FFFFFFC00000000000000000
FFFFFF01FFFFFFE00000000000000000
FFFFFF01FFFFFFF80000000000000000
FFFFFF01FFFFFFFC0000000000000000
FFFFFF01FFFFFFFF0000000000000000
FFFFFF00FFFFFFFFC000000000000000
FFFFFF00FFFFFFFFF000000000000000
FFFFFF007FFFFFFFFC00000000000000
FFFFFF007FFFFFFFFF00000000000000
FFFFFF003FFFFFFFFFC0000000000000
FFFFFF003FFFFFFFFFF8000000000000
FFFFFF001FFFFFFFFFFE000000000000
FFFFFF000FFFFFFFFFFFC00000000000
FFFFFF0007FFFFFFFFFFF00000000000
FFFFFF0007FFFFFFFFFFFE0000000000
FFFFFF0003FFFFFFFFFFFF8000000000
FFFFFF0000FFFFFFFFFFFFF000000000
FFFFFF00007FFFFFFFFFFFFE00000000
FFFFFF00003FFFFFFFFFFFFFC0000000
FFFFFF00000FFFFFFFFFFFFFF0000000
FFFFFF000007FFFFFFFFFFFFFE000000
FFFFFF000001FFFFFFFFFFFFFFC00000
FFFFFF0000007FFFFFFFFFFFFFF80000
FFFFFF0000001FFFFFFFFFFFFFFE0000
FFFFFF0000000FFFFFFFFFFFFFFFC000
FFFFFF00000003FFFFFFFFFFFFFFF000
FFFFFF00000000FFFFFFFFFFFFFFF800
FFFFFF000000003FFFFFFFFFFFFFFC00
FFFFFF000000000FFFFFFFFFFFFFFE00
FFFFFF0000000003FFFFFFFFFFFFFF00
FFFFFF00000000007FFFFFFFFFFFFF80
FFFFFF00000000001FFFFFFFFFFFFF80
FFFFFF000000000007FFFFFFFFFFFF80
FFFFFF000000000000FFFFFFFFFFFFC0
FFFFFF0000000000003FFFFFFFFFFFC0
FFFFFF00000000000007FFFFFFFFFFC0
FFFFFF00000000000001FFFFFFFFFFC0
FFFFFF000000000000007FFFFFFFFFC0
FFFFFF000000000000000FFFFFFFFFC0
FFFFFF0000000000000003FFFFFFFFC0
FFFFFF00000000000000007FFFFFFF80
FFFFFE00000000000000001FFFFFFF80
7FFFFE000000000000000003FFFFFF80
7FFFFE000000000000000000FFFFFF00
3FFFFC0000000000000000001FFFFE00
3FFFFC00000000000000000007FFFE00
1FFFF800000000000000000001FFF800
0FFFF0000000000000000000003FF000
03FFC000000000000000000000030000
00FF0000000000000000000000000000
ENDCHAR
STARTCHAR 004C
ENCODING 76
SWIDTH 700 0
DWIDTH 126 0
BBX 109 107 11 0
BITMAP
007E000000000000000000000000
01FFC00000000000000000000000
07FFE00000000000000000000000
0FFFF00000000000000000000000
1FFFF80000000000000000000000
3FFFFC0000000000000000000000
3FFFFE0000000000000000000000
7FFFFE0000000000000000000000
7FFFFE0000000000000000000000
FFFFFF0000000000000000000000
FFFFFF0000000000000000000000
FFFFFF0000000000000000000000
FFFFFF0000000000000000000000
FFFFFF0000000000000000000000
FFFFFF0000000000000000000000
FFFFFF0000000000000000000000
FFFFFF0000000000000000000000
FFFFFF0000000000000000000000
FFFFFF0000000000000000000000
FFFFFF0000000000000000000000
FFFFFF0000000000000000000000
FFFFFF0000000000000000000000
FFFFFF0000000000000000000000
FFFFFF0000000000000000000000
FFFFFF0000000000000000000000
FFFFFF0000000000000000000000
FFFFFF0000000000000000000000
FFFFFF0000000000000000000000
FFFFFF0000000000000000000000
FFFFFF0000000000000000000000
FFFFFF0000000000000000000000
FFFFFF0000000000000000000000
FFFFFF0000000000000000000000
FFFFFF0000000000000000000000
FFFFFF0000000000000000000000
FFFFFF0000000000000000000000
FFFFFF0000000000000000000000
FFFFFF0000000000000000000000
FFFFFF0000000000000000000000
FFFFFF0000000000000000000000
FFFFFF0000000000000000000000
FFFFFF0000000000000000000000
FFFFFF0000000000000000000000
FFFFFF0000000000000000000000
FFFFFF0000000000000000000000
FFFFFF0000000000000000000000
FFFFFF0000000000000000000000
FFFFFF0000000000000000000000
FFFFFF0000000000000000000000
FFFFFF0000000000000000000000
FFFFFF0000000000000000000000
FFFFFF0000000000000000000000
FFFFFF0000000000000000000000
FFFFFF0000000000000000000000
FFFFFF0000000000000000000000
FFFFFF0000000000000000000000
FFFFFF0000000000000000000000
FFFFFF0000000000000000000000
FFFFFF0000000000000000000000
FFFFFF0000000000000000000000
FFFFFF0000000000000000000000
FFFFFF0000000000000000000000
7FFFFF0000000000000000000000
7FFFFF0000000000000000000000
7FFFFF0000000000000000000000
7FFFFF8000000000000000000000
7FFFFF8000000000000000000000
7FFFFF8000000000000000000000
7FFFFF8000000000000000000000
7FFFFFC000000000000000000000
3FFFFFC000000000000000000000
3FFFFFC000000000000000000000
3FFFFFE000000000000000000000
3FFFFFE000000000000000000000
3FFFFFF000000000000000000000
1FFFFFF000000000000000000000
1FFFFFF800000000000000000000
1FFFFFFC00000000000000000000
1FFFFFFE00000000000000000000
0FFFFFFF00000000000000000000
0FFFFFFF80000000000000000000
0FFFFFFFE0000000000000000000
07FFFFFFFC000000000000000000
07FFFFFFFFFFFFFFFFFFFFFFF000
03FFFFFFFFFFFFFFFFFFFFFFFE00
03FFFFFFFFFFFFFFFFFFFFFFFF80
01FFFFFFFFFFFFFFFFFFFFFFFFC0
01FFFFFFFFFFFFFFFFFFFFFFFFE0
00FFFFFFFFFFFFFFFFFFFFFFFFE0
00FFFFFFFFFFFFFFFFFFFFFFFFF0
007FFFFFFFFFFFFFFFFFFFFFFFF0
007FFFFFFFFFFFFFFFFFFFFFFFF8
003FFFFFFFFFFFFFFFFFFFFFFFF8
001FFFFFFFFFFFFFFFFFFFFFFFF8
000FFFFFFFFFFFFFFFFFFFFFFFF8
0007FFFFFFFFFFFFFFFFFFFFFFF8
0007FFFFFFFFFFFFFFFFFFFFFFF8
0003FFFFFFFFFFFFFFFFFFFFFFF8
0001FFFFFFFFFFFFFFFFFFFFFFF8
00007FFFFFFFFFFFFFFFFFFFFFF0
00003FFFFFFFFFFFFFFFFFFFFFF0
00001FFFFFFFFFFFFFFFFFFFFFE0
000007FFFFFFFFFFFFFFFFFFFFC0
000001FFFFFFFFFFFFFFFFFFFFC0
0000007FFFFFFFFFFFFFFFFFFF00
0000000FFFFFFFFFFFFFFFFFFE00
000000003FFFFFFFFFFFFFFFE000
ENDCHAR
STARTCHAR 004D
ENCODING 77
SWIDTH 816 0
DWIDTH 147 0
BBX 125 110 11 -2
BITMAP
00000000FFE0000000003FFC00000000
0000001FFFFE00000003FFFFC0000000
000000FFFFFFC000001FFFFFF8000000
000003FFFFFFF800007FFFFFFE000000
00000FFFFFFFFE0001FFFFFFFF800000
00003FFFFFFFFF0007FFFFFFFFE00000
00007FFFFFFFFFC01FFFFFFFFFF80000
0001FFFFFFFFFFF03FFFFFFFFFFC0000
0003FFFFFFFFFFF8FFFFFFFFFFFE0000
0007FFFFFFFFFFFDFFFFFFFFFFFF8000
000FFFFFFFFFFFFFFFFFFFFFFFFFC000
003FFFFFFFFFFFFFFFFFFFFFFFFFE000
003FFFFFFFFFFFFFFFFFFFFFFFFFF000
007FFFFFFFFFFFFFFFFFFFFFFFFFF000
00FFFFFFFFFFFFFFFFFFFFFFFFFFF800
01FFFFFFFFFFFFFFFFFFFFFFFFFFFC00
03FFFFFFFFFFFFFFFFFFFFFFFFFFFE00
03FFFFFFFFFFFFFFFFFFFFFFFFFFFE00
07FFFFFFFFFFFFFFFFFFFFFFFFFFFF00
0FFFFFFFFFFFFFFFFFFFFFFFFFFFFF80
0FFFFFFFFFFFFFFFFFFFFFFFFFFFFF80
1FFFFFFFFFFFFFFFFFFFFFFFFFFFFFC0
1FFFFFFFC0FFFFFFFFFFF01FFFFFFFC0
1FFFFFFF001FFFFFFFFFC007FFFFFFE0
3FFFFFFC000FFFFFFFFF0001FFFFFFE0
3FFFFFF80003FFFFFFFE0000FFFFFFE0
3FFFFFF00001FFFFFFFC00007FFFFFF0
7FFFFFE00001FFFFFFFC00003FFFFFF0
7FFFFFC00000FFFFFFF800001FFFFFF0
7FFFFFC000007FFFFFF000001FFFFFF0
7FFFFF8000007FFFFFF000000FFFFFF0
7FFFFF8000003FFFFFE000000FFFFFF0
FFFFFF0000003FFFFFE000000FFFFFF8
FFFFFF0000003FFFFFE0000007FFFFF8
FFFFFF0000003FFFFFC0000007FFFFF8
FFFFFF0000003FFFFFC0000007FFFFF8
FFFFFF0000001FFFFFC0000007FFFFF8
FFFFFF0000001FFFFFC0000007FFFFF8
FFFFFF0000001FFFFFC0000007FFFFF8
FFFFFF0000001FFFFFC0000007FFFFF8
FFFFFF0000001FFFFFC0000007FFFFF8
FFFFFF0000001FFFFFC0000007FFFFF8
FFFFFF0000001FFFFFC0000007FFFFF8
FFFFFF0000001FFFFFC0000007FFFFF8
FFFFFF0000001FFFFFC0000007FFFFF8
FFFFFF0000001FFFFFC0000007FFFFF8
FFFFFF0000001FFFFFC0000007FFFFF8
FFFFFF0000001FFFFFC0000007FFFFF8
FFFFFF0000001FFFFFC0000007FFFFF8
FFFFFF0000001FFFFFC0000007FFFFF8
FFFFFF0000001FFFFFC0000007FFFFF8
FFFFFF0000001FFFFFC0000007FFFFF8
FFFFFF0000001FFFFFC0000007FFFFF8
FFFFFF0000001FFFFFC0000007FFFFF8
FFFFFF0000001FFFFFC0000007FFFFF8
FFFFFF0000001FFFFFC0000007FFFFF8
FFFFFF0000001FFFFFC0000007FFFFF8
FFFFFF0000001FFFFFC0000007FFFFF8
FFFFFF0000001FFFFFC0000007FFFFF8
FFFFFF0000001FFFFFC0000007FFFFF8
FFFFFF0000001FFFFFC0000007FFFFF8
FFFFFF0000001FFFFFC0000007FFFFF8
FFFFFF0000001FFFFFC0000007FFFFF8
FFFFFF0000001FFFFFC0000007FFFFF8
FFFFFF0000001FFFFFC0000007FFFFF8
FFFFFF0000001FFFFFC0000007FFFFF8
FFFFFF0000001FFFFFC0000007FFFFF8
FFFFFF0000001FFFFFC0000007FFFFF8
FFFFFF0000001FFFFFC0000007FFFFF8
FFFFFF0000001FFFFFC0000007FFFFF8
FFFFFF0000001FFFFFC0000007FFFFF8
FFFFFF0000001FFFFFC0000007FFFFF8
FFFFFF0000001FFFFFC0000007FFFFF8
FFFFFF0000001FFFFFC0000007FFFFF8
FFFFFF0000001FFFFFC0000007FFFFF8
FFFFFF0000001FFFFFC0000007FFFFF8
FFFFFF0000001FFFFFC0000007FFFFF8
FFFFFF0000001FFFFFC0000007FFFFF8
FFFFFF0000001FFFFFC0000007FFFFF8
FFFFFF0000001FFFFFC0000007FFFFF8
FFFFFF0000001FFFFFC0000007FFFFF8
FFFFFF0000001FFFFFC0000007FFFFF8
FFFFFF0000001FFFFFC0000007FFFFF8
FFFFFF0000001FFFFFC0000007FFFFF8
FFFFFF0000001FFFFFC0000007FFFFF8
FFFFFF0000001FFFFFC0000007FFFFF8
FFFFFF0000001FFFFFC0000007FFFFF8
FFFFFF0000001FFFFFC0000007FFFFF8
FFFFFF0000001FFFFFC0000007FFFFF8
FFFFFF0000001FFFFFC0000007FFFFF8
FFFFFF0000001FFFFFC0000007FFFFF8
FFFFFF0000001FFFFFC0000007FFFFF8
FFFFFF0000001FFFFFC0000007FFFFF8
FFFFFF0000001FFFFFC0000007FFFFF8
FFFFFF0000001FFFFFC0000007FFFFF8
FFFFFF0000001FFFFFC0000007FFFFF8
FFFFFF0000001FFFFFC0000007FFFFF8
FFFFFF0000001FFFFFC0000007FFFFF8
FFFFFF0000001FFFFFC0000007FFFFF8
FFFFFF0000001FFFFFC0000007FFFFF8
FFFFFF0000001FFFFFC0000007FFFFF0
FFFFFE0000001FFFFFC0000007FFFFF0
7FFFFE0000001FFFFFC0000007FFFFF0
7FFFFE0000001FFFFF80000003FFFFF0
3FFFFC0000000FFFFF80000003FFFFE0
3FFFFC00000007FFFF00000001FFFFE0
1FFFF800000007FFFE00000000FFFFC0
0FFFF000000003FFFC000000007FFF80
03FFE000000000FFF8000000003FFF00
00FF80000000003FE0000000000FF800
ENDCHAR
STARTCHAR 004E
ENCODING 78
SWIDTH 744 0
DWIDTH 134 0
BBX 112 110 11 -2
BITMAP
000000000001FFFF800000000000
00000000007FFFFFFE0000000000
000000000FFFFFFFFFF000000000
000000007FFFFFFFFFFE00000000
00000003FFFFFFFFFFFFC0000000
0000001FFFFFFFFFFFFFF8000000
0000007FFFFFFFFFFFFFFE000000
000001FFFFFFFFFFFFFFFF800000
000007FFFFFFFFFFFFFFFFE00000
00001FFFFFFFFFFFFFFFFFF80000
00007FFFFFFFFFFFFFFFFFFE0000
0000FFFFFFFFFFFFFFFFFFFF8000
0003FFFFFFFFFFFFFFFFFFFFC000
0007FFFFFFFFFFFFFFFFFFFFE000
000FFFFFFFFFFFFFFFFFFFFFF800
001FFFFFFFFFFFFFFFFFFFFFFC00
003FFFFFFFFFFFFFFFFFFFFFFE00
007FFFFFFFFFFFFFFFFFFFFFFF00
00FFFFFFFFFFFFFFFFFFFFFFFF80
01FFFFFFFFFFFFFFFFFFFFFFFFC0
03FFFFFFFFFFFFFFFFFFFFFFFFE0
07FFFFFFFFFFFFFFFFFFFFFFFFE0
0FFFFFFFFFFF8001FFFFFFFFFFF0
0FFFFFFFFFF000000FFFFFFFFFF8
1FFFFFFFFF80000001FFFFFFFFF8
1FFFFFFFFC000000003FFFFFFFFC
3FFFFFFFF0000000000FFFFFFFFC
3FFFFFFFC00000000003FFFFFFFE
7FFFFFFF000000000000FFFFFFFE
7FFFFFFE0000000000007FFFFFFE
7FFFFFFC0000000000001FFFFFFE
7FFFFFF00000000000000FFFFFFF
7FFFFFE000000000000007FFFFFF
FFFFFFE000000000000003FFFFFF
FFFFFFC000000000000003FFFFFF
FFFFFF8000000000000001FFFFFF
FFFFFF8000000000000001FFFFFF
FFFFFF0000000000000000FFFFFF
FFFFFF0000000000000000FFFFFF
FFFFFF0000000000000000FFFFFF
FFFFFF0000000000000000FFFFFF
FFFFFF0000000000000000FFFFFF
FFFFFF0000000000000000FFFFFF
FFFFFF0000000000000000FFFFFF
FFFFFF0000000000000000FFFFFF
FFFFFF0000000000000000FFFFFF
FFFFFF0000000000000000FFFFFF
FFFFFF0000000000000000FFFFFF
FFFFFF0000000000000000FFFFFF
FFFFFF0000000000000000FFFFFF
FFFFFF0000000000000000FFFFFF
FFFFFF0000000000000000FFFFFF
FFFFFF0000000000000000FFFFFF
FFFFFF0000000000000000FFFFFF
FFFFFF0000000000000000FFFFFF
FFFFFF0000000000000000FFFFFF
FFFFFF0000000000000000FFFFFF
FFFFFF0000000000000000FFFFFF
FFFFFF0000000000000000FFFFFF
FFFFFF0000000000000000FFFFFF
FFFFFF0000000000000000FFFFFF
FFFFFF0000000000000000FFFFFF
FFFFFF0000000000000000FFFFFF
FFFFFF0000000000000000FFFFFF
FFFFFF0000000000000000FFFFFF
FFFFFF0000000000000000FFFFFF
FFFFFF0000000000000000FFFFFF
FFFFFF0000000000000000FFFFFF
FFFFFF0000000000000000FFFFFF
FFFFFF0000000000000000FFFFFF
FFFFFF0000000000000000FFFFFF
FFFFFF0000000000000000FFFFFF
FFFFFF0000000000000000FFFFFF
FFFFFF0000000000000000FFFFFF
FFFFFF0000000000000000FFFFFF
FFFFFF0000000000000000FFFFFF
FFFFFF0000000000000000FFFFFF
FFFFFF0000000000000000FFFFFF
FFFFFF0000000000000000FFFFFF
FFFFFF0000000000000000FFFFFF
FFFFFF0000000000000000FFFFFF
FFFFFF0000000000000000FFFFFF
FFFFFF0000000000000000FFFFFF
FFFFFF0000000000000000FFFFFF
FFFFFF0000000000000000FFFFFF
FFFFFF0000000000000000FFFFFF
FFFFFF0000000000000000FFFFFF
FFFFFF0000000000000000FFFFFF
FFFFFF0000000000000000FFFFFF
FFFFFF0000000000000000FFFFFF
FFFFFF0000000000000000FFFFFF
FFFFFF0000000000000000FFFFFF
FFFFFF0000000000000000FFFFFF
FFFFFF0000000000000000FFFFFF
FFFFFF0000000000000000FFFFFF
FFFFFF0000000000000000FFFFFF
FFFFFF0000000000000000FFFFFF
FFFFFF0000000000000000FFFFFF
FFFFFF0000000000000000FFFFFF
FFFFFF0000000000000000FFFFFF
FFFFFF00000000000000007FFFFF
FFFFFE00000000000000007FFFFF
7FFFFE00000000000000007FFFFF
7FFFFE00000000000000007FFFFE
3FFFFC00000000000000003FFFFE
3FFFFC00000000000000001FFFFC
1FFFF800000000000000001FFFF8
0FFFF000000000000000000FFFF0
03FFE0000000000000000003FFE0
00FF80000000000000000000FF80
ENDCHAR
STARTCHAR 004F
ENCODING 79
SWIDTH 827 0
DWIDTH 149 0
BBX 133 104 8 1
BITMAP
00000001FFFFFFFFFFFFFFFFFC00000000
0000001FFFFFFFFFFFFFFFFFFFC0000000
000000FFFFFFFFFFFFFFFFFFFFF0000000
000003FFFFFFFFFFFFFFFFFFFFFC000000
000007FFFFFFFFFFFFFFFFFFFFFF000000
00001FFFFFFFFFFFFFFFFFFFFFFF800000
00003FFFFFFFFFFFFFFFFFFFFFFFC00000
00007FFFFFFFFFFFFFFFFFFFFFFFE00000
0000FFFFFFFFFFFFFFFFFFFFFFFFF80000
0001FFFFFFFFFFFFFFFFFFFFFFFFFC0000
0003FFFFFFFFFFFFFFFFFFFFFFFFFC0000
0007FFFFFFFFFFFFFFFFFFFFFFFFFE0000
000FFFFFFFFFFFFFFFFFFFFFFFFFFF0000
000FFFFFFFFFFFFFFFFFFFFFFFFFFF8000
001FFFFFFFFFFFFFFFFFFFFFFFFFFFC000
003FFFFFFFFFFFFFFFFFFFFFFFFFFFE000
007FFFFFFFFFFFFFFFFFFFFFFFFFFFE000
007FFFFFFFFFFFFFFFFFFFFFFFFFFFF000
00FFFFFFFFFFFFFFFFFFFFFFFFFFFFF000
00FFFFFFFFFFFFFFFFFFFFFFFFFFFFF800
01FFFFFFFFFFFFFFFFFFFFFFFFFFFFFC00
01FFFFFFFFFFFFFFFFFFFFFFFFFFFFFC00
03FFFFFFFFFFFFFFFFFFFFFFFFFFFFFE00
03FFFFFFFF8000000000000FFFFFFFFE00
07FFFFFFF800000000000000FFFFFFFE00
07FFFFFFC0000000000000001FFFFFFF00
0FFFFFFF80000000000000000FFFFFFF00
0FFFFFFF000000000000000007FFFFFF80
0FFFFFFE000000000000000003FFFFFF80
1FFFFFFC000000000000000001FFFFFF80
1FFFFFF8000000000000000000FFFFFFC0
1FFFFFF00000000000000000007FFFFFC0
3FFFFFE00000000000000000003FFFFFC0
3FFFFFE00000000000000000003FFFFFE0
3FFFFFC00000000000000000001FFFFFE0
3FFFFFC00000000000000000001FFFFFE0
3FFFFF800000000000000000000FFFFFE0
7FFFFF800000000000000000000FFFFFF0
7FFFFF0000000000000000000007FFFFF0
7FFFFF0000000000000000000007FFFFF0
7FFFFF0000000000000000000007FFFFF0
7FFFFE0000000000000000000003FFFFF0
7FFFFE0000000000000000000003FFFFF0
FFFFFE0000000000000000000003FFFFF0
FFFFFE0000000000000000000003FFFFF8
FFFFFE0000000000000000000003FFFFF8
FFFFFC0000000000000000000001FFFFF8
FFFFFC0000000000000000000001FFFFF8
FFFFFC0000000000000000000001FFFFF8
FFFFFC0000000000000000000001FFFFF8
FFFFFC0000000000000000000001FFFFF8
FFFFFC0000000000000000000001FFFFF8
FFFFFC0000000000000000000001FFFFF8
FFFFFC0000000000000000000001FFFFF8
FFFFFC0000000000000000000001FFFFF8
FFFFFC0000000000000000000001FFFFF8
FFFFFC0000000000000000000001FFFFF8
FFFFFC0000000000000000000001FFFFF8
FFFFFE0000000000000000000003FFFFF8
FFFFFE0000000000000000000003FFFFF8
FFFFFE0000000000000000000003FFFFF0
7FFFFE0000000000000000000003FFFFF0
7FFFFE0000000000000000000003FFFFF0
7FFFFF0000000000000000000007FFFFF0
7FFFFF0000000000000000000007FFFFF0
7FFFFF0000000000000000000007FFFFF0
7FFFFF800000000000000000000FFFFFF0
3FFFFF800000000000000000000FFFFFE0
3FFFFFC00000000000000000001FFFFFE0
3FFFFFC00000000000000000001FFFFFE0
3FFFFFE00000000000000000003FFFFFE0
1FFFFFE00000000000000000003FFFFFC0
1FFFFFF00000000000000000007FFFFFC0
1FFFFFF8000000000000000000FFFFFFC0
1FFFFFFC000000000000000001FFFFFF80
0FFFFFFE000000000000000003FFFFFF80
0FFFFFFF000000000000000007FFFFFF80
0FFFFFFF80000000000000000FFFFFFF00
07FFFFFFE0000000000000003FFFFFFF00
07FFFFFFFC00000000000001FFFFFFFF00
03FFFFFFFFFFFFFFFFFFFFFFFFFFFFFE00
03FFFFFFFFFFFFFFFFFFFFFFFFFFFFFE00
01FFFFFFFFFFFFFFFFFFFFFFFFFFFFFC00
01FFFFFFFFFFFFFFFFFFFFFFFFFFFFFC00
00FFFFFFFFFFFFFFFFFFFFFFFFFFFFF800
00FFFFFFFFFFFFFFFFFFFFFFFFFFFFF000
007FFFFFFFFFFFFFFFFFFFFFFFFFFFF000
007FFFFFFFFFFFFFFFFFFFFFFFFFFFE000
003FFFFFFFFFFFFFFFFFFFFFFFFFFFC000
001FFFFFFFFFFFFFFFFFFFFFFFFFFFC000
000FFFFFFFFFFFFFFFFFFFFFFFFFFF8000
000FFFFFFFFFFFFFFFFFFFFFFFFFFF0000
0007FFFFFFFFFFFFFFFFFFFFFFFFFE0000
0003FFFFFFFFFFFFFFFFFFFFFFFFFC0000
0001FFFFFFFFFFFFFFFFFFFFFFFFF80000
0000FFFFFFFFFFFFFFFFFFFFFFFFF00000
00007FFFFFFFFFFFFFFFFFFFFFFFE00000
00003FFFFFFFFFFFFFFFFFFFFFFFC00000
00000FFFFFFFFFFFFFFFFFFFFFFF800000
000007FFFFFFFFFFFFFFFFFFFFFE000000
000001FFFFFFFFFFFFFFFFFFFFF8000000
0000007FFFFFFFFFFFFFFFFFFFE0000000
0000000FFFFFFFFFFFFFFFFFFF00000000
000000003FFFFFFFFFFFFFFFE000000000
ENDCHAR
STARTCHAR 0050
ENCODING 80
SWIDTH 794 0
DWIDTH 143 0
BBX 124 106 11 -1
BITMAP
00FFFFFFFFFFFFFFFFFFFFF800000000
03FFFFFFFFFFFFFFFFFFFFFFC0000000
07FFFFFFFFFFFFFFFFFFFFFFF8000000
1FFFFFFFFFFFFFFFFFFFFFFFFF000000
1FFFFFFFFFFFFFFFFFFFFFFFFFC00000
3FFFFFFFFFFFFFFFFFFFFFFFFFF00000
7FFFFFFFFFFFFFFFFFFFFFFFFFF80000
7FFFFFFFFFFFFFFFFFFFFFFFFFFC0000
FFFFFFFFFFFFFFFFFFFFFFFFFFFF0000
FFFFFFFFFFFFFFFFFFFFFFFFFFFF8000
FFFFFFFFFFFFFFFFFFFFFFFFFFFFC000
FFFFFFFFFFFFFFFFFFFFFFFFFFFFE000
FFFFFFFFFFFFFFFFFFFFFFFFFFFFE000
FFFFFFFFFFFFFFFFFFFFFFFFFFFFF000
FFFFFFFFFFFFFFFFFFFFFFFFFFFFF800
FFFFFFFFFFFFFFFFFFFFFFFFFFFFFC00
FFFFFFFFFFFFFFFFFFFFFFFFFFFFFC00
FFFFFFFFFFFFFFFFFFFFFFFFFFFFFE00
FFFFFFFFFFFFFFFFFFFFFFFFFFFFFF00
FFFFFFFFFFFFFFFFFFFFFFFFFFFFFF00
FFFFFFFFFFFFFFFFFFFFFFFFFFFFFF80
FFFFFFFFFFFFFFFFFFFFFFFFFFFFFF80
FFFFFFFFFFFFFFFFFFFFFFFFFFFFFFC0
FFFFFFF0000000000000003FFFFFFFC0
FFFFFF800000000000000003FFFFFFC0
FFFFFF000000000000000001FFFFFFE0
FFFFFF000000000000000000FFFFFFE0
FFFFFF0000000000000000007FFFFFE0
FFFFFF0000000000000000003FFFFFE0
FFFFFF0000000000000000003FFFFFF0
FFFFFF0000000000000000001FFFFFF0
FFFFFF0000000000000000001FFFFFF0
FFFFFF0000000000000000000FFFFFF0
FFFFFF0000000000000000000FFFFFF0
FFFFFF0000000000000000000FFFFFF0
FFFFFF0000000000000000000FFFFFF0
FFFFFF0000000000000000000FFFFFF0
FFFFFF0000000000000000000FFFFFF0
FFFFFF0000000000000000000FFFFFF0
FFFFFF0000000000000000000FFFFFF0
FFFFFF0000000000000000000FFFFFF0
FFFFFF0000000000000000001FFFFFF0
FFFFFF0000000000000000001FFFFFF0
FFFFFF0000000000000000001FFFFFF0
FFFFFF0000000000000000003FFFFFF0
FFFFFF0000000000000000003FFFFFE0
FFFFFF0000000000000000007FFFFFE0
FFFFFF000000000000000000FFFFFFE0
FFFFFF000000000000000001FFFFFFE0
FFFFFF000000000000000007FFFFFFC0
FFFFFF00007FFFFFFFFFFFFFFFFFFFC0
FFFFFF0001FFFFFFFFFFFFFFFFFFFFC0
FFFFFF0007FFFFFFFFFFFFFFFFFFFF80
FFFFFF000FFFFFFFFFFFFFFFFFFFFF80
FFFFFF001FFFFFFFFFFFFFFFFFFFFF00
FFFFFF001FFFFFFFFFFFFFFFFFFFFF00
FFFFFF003FFFFFFFFFFFFFFFFFFFFE00
FFFFFF003FFFFFFFFFFFFFFFFFFFFE00
FFFFFF007FFFFFFFFFFFFFFFFFFFFC00
FFFFFF007FFFFFFFFFFFFFFFFFFFF800
FFFFFF007FFFFFFFFFFFFFFFFFFFF800
FFFFFF007FFFFFFFFFFFFFFFFFFFF000
FFFFFF007FFFFFFFFFFFFFFFFFFFE000
FFFFFF007FFFFFFFFFFFFFFFFFFFC000
FFFFFF007FFFFFFFFFFFFFFFFFFF8000
FFFFFF003FFFFFFFFFFFFFFFFFFF0000
FFFFFF003FFFFFFFFFFFFFFFFFFE0000
FFFFFF001FFFFFFFFFFFFFFFFFF80000
FFFFFF001FFFFFFFFFFFFFFFFFF00000
FFFFFF000FFFFFFFFFFFFFFFFFC00000
FFFFFF0007FFFFFFFFFFFFFFFF000000
FFFFFF0003FFFFFFFFFFFFFFFC000000
FFFFFF0000FFFFFFFFFFFFFFE0000000
FFFFFF00000000000000000000000000
FFFFFF00000000000000000000000000
FFFFFF00000000000000000000000000
FFFFFF00000000000000000000000000
FFFFFF00000000000000000000000000
FFFFFF00000000000000000000000000
FFFFFF00000000000000000000000000
FFFFFF00000000000000000000000000
FFFFFF00000000000000000000000000
FFFFFF00000000000000000000000000
FFFFFF00000000000000000000000000
FFFFFF00000000000000000000000000
FFFFFF00000000000000000000000000
FFFFFF00000000000000000000000000
FFFFFF00000000000000000000000000
FFFFFF00000000000000000000000000
FFFFFF00000000000000000000000000
FFFFFF00000000000000000000000000
FFFFFF00000000000000000000000000
FFFFFF00000000000000000000000000
FFFFFF00000000000000000000000000
FFFFFF00000000000000000000000000
FFFFFF00000000000000000000000000
FFFFFE00000000000000000000000000
FFFFFE00000000000000000000000000
7FFFFE00000000000000000000000000
7FFFFC00000000000000000000000000
3FFFFC00000000000000000000000000
1FFFF800000000000000000000000000
0FFFF000000000000000000000000000
07FFE000000000000000000000000000
01FF8000000000000000000000000000
003C0000000000000000000000000000
ENDCHAR
STARTCHAR 0051
ENCODING 81
SWIDTH 855 0
DWIDTH 154 0
BBX 136 127 9 -22
BITMAP
00000001FFFFFFFFFFFFFFFFFF80000000
0000001FFFFFFFFFFFFFFFFFFFF8000000
000000FFFFFFFFFFFFFFFFFFFFFE000000
000003FFFFFFFFFFFFFFFFFFFFFF800000
000007FFFFFFFFFFFFFFFFFFFFFFE00000
00001FFFFFFFFFFFFFFFFFFFFFFFF00000
00003FFFFFFFFFFFFFFFFFFFFFFFF80000
00007FFFFFFFFFFFFFFFFFFFFFFFFC0000
0000FFFFFFFFFFFFFFFFFFFFFFFFFF0000
0001FFFFFFFFFFFFFFFFFFFFFFFFFF8000
0003FFFFFFFFFFFFFFFFFFFFFFFFFFC000
0007FFFFFFFFFFFFFFFFFFFFFFFFFFC000
000FFFFFFFFFFFFFFFFFFFFFFFFFFFE000
001FFFFFFFFFFFFFFFFFFFFFFFFFFFF000
001FFFFFFFFFFFFFFFFFFFFFFFFFFFF800
003FFFFFFFFFFFFFFFFFFFFFFFFFFFFC00
007FFFFFFFFFFFFFFFFFFFFFFFFFFFFC00
007FFFFFFFFFFFFFFFFFFFFFFFFFFFFE00
00FFFFFFFFFFFFFFFFFFFFFFFFFFFFFE00
00FFFFFFFFFFFFFFFFFFFFFFFFFFFFFF00
01FFFFFFFFFFFFFFFFFFFFFFFFFFFFFF80
01FFFFFFFFFFFFFFFFFFFFFFFFFFFFFF80
03FFFFFFFFFFFFFFFFFFFFFFFFFFFFFFC0
03FFFFFFFF80000000000001FFFFFFFFC0
07FFFFFFF0000000000000000FFFFFFFC0
07FFFFFFC00000000000000003FFFFFFE0
0FFFFFFF800000000000000001FFFFFFE0
0FFFFFFF000000000000000000FFFFFFF0
0FFFFFFE0000000000000000007FFFFFF0
1FFFFFFC0000000000000000003FFFFFF0
1FFFFFF80000000000000000001FFFFFF8
1FFFFFF00000000000000000000FFFFFF8
3FFFFFE000000000000000000007FFFFF8
3FFFFFE000000000000000000007FFFFFC
3FFFFFC000000000000000000003FFFFFC
3FFFFFC000000000000000000003FFFFFC
3FFFFF8000000000000000000001FFFFFC
7FFFFF8000000000000000000001FFFFFE
7FFFFF0000000000000000000000FFFFFE
7FFFFF0000000000000000000000FFFFFE
7FFFFF0000000000000000000000FFFFFE
7FFFFE00000000000000000000007FFFFE
7FFFFE00000000000000000000007FFFFE
FFFFFE00000000000000000000007FFFFE
FFFFFE00000000000000000000007FFFFF
FFFFFE00000000000000000000007FFFFF
FFFFFC00000000000000000000003FFFFF
FFFFFC00000000000000000000003FFFFF
FFFFFC00000000000000000000003FFFFF
FFFFFC00000000000000000000003FFFFF
FFFFFC00000000000000000000003FFFFF
FFFFFC00000000000000000000003FFFFF
FFFFFC00000000000000000000003FFFFF
FFFFFC00000000000000000000003FFFFF
FFFFFC00000000000000000000003FFFFF
FFFFFC00000000000000000000003FFFFF
FFFFFC00000000000000000000003FFFFF
FFFFFC00000000000000000000003FFFFF
FFFFFE00000000000000000000007FFFFF
FFFFFE00000000000000000000007FFFFF
FFFFFE00000000007F00000000007FFFFE
7FFFFE0000000001FFC0000000007FFFFE
7FFFFE0000000007FFF0000000007FFFFE
7FFFFF000000000FFFF800000000FFFFFE
7FFFFF000000001FFFFC00000000FFFFFE
7FFFFF000000003FFFFC00000000FFFFFE
7FFFFF800000003FFFFE00000001FFFFFE
3FFFFF800000007FFFFE00000001FFFFFC
3FFFFFC00000007FFFFF00000003FFFFFC
3FFFFFC00000007FFFFF00000003FFFFFC
3FFFFFE00000007FFFFF00000007FFFFFC
1FFFFFE00000007FFFFF00000007FFFFF8
1FFFFFF00000007FFFFF0000000FFFFFF8
1FFFFFF80000007FFFFF0000001FFFFFF8
1FFFFFFC0000007FFFFF0000003FFFFFF0
0FFFFFFE0000007FFFFF0000007FFFFFF0
0FFFFFFF0000007FFFFF000000FFFFFFF0
0FFFFFFF8000007FFFFF000001FFFFFFE0
07FFFFFFE000007FFFFF000007FFFFFFE0
07FFFFFFFC00007FFFFF00003FFFFFFFE0
03FFFFFFFFFFFFFFFFFFFFFFFFFFFFFFC0
03FFFFFFFFFFFFFFFFFFFFFFFFFFFFFFC0
01FFFFFFFFFFFFFFFFFFFFFFFFFFFFFF80
01FFFFFFFFFFFFFFFFFFFFFFFFFFFFFF80
00FFFFFFFFFFFFFFFFFFFFFFFFFFFFFF00
00FFFFFFFFFFFFFFFFFFFFFFFFFFFFFE00
007FFFFFFFFFFFFFFFFFFFFFFFFFFFFE00
007FFFFFFFFFFFFFFFFFFFFFFFFFFFFC00
003FFFFFFFFFFFFFFFFFFFFFFFFFFFF800
001FFFFFFFFFFFFFFFFFFFFFFFFFFFF800
000FFFFFFFFFFFFFFFFFFFFFFFFFFFF000
000FFFFFFFFFFFFFFFFFFFFFFFFFFFE000
0007FFFFFFFFFFFFFFFFFFFFFFFFFFC000
0003FFFFFFFFFFFFFFFFFFFFFFFFFF8000
0001FFFFFFFFFFFFFFFFFFFFFFFFFF0000
0000FFFFFFFFFFFFFFFFFFFFFFFFFE0000
00007FFFFFFFFFFFFFFFFFFFFFFFFC0000
00003FFFFFFFFFFFFFFFFFFFFFFFF80000
00000FFFFFFFFFFFFFFFFFFFFFFFF00000
000007FFFFFFFFFFFFFFFFFFFFFFC00000
000001FFFFFFFFFFFFFFFFFFFFFF000000
0000007FFFFFFFFFFFFFFFFFFFFC000000
0000000FFFFFFFFFFFFFFFFFFFE0000000
000000003FFFFFFFFFFFFFFFFC00000000
00000000000000FFFFFF00000000000000
00000000000000FFFFFF00000000000000
00000000000000FFFFFF00000000000000
00000000000000FFFFFF00000000000000
00000000000000FFFFFF00000000000000
00000000000000FFFFFF00000000000000
00000000000000FFFFFF00000000000000
00000000000000FFFFFF00000000000000
00000000000000FFFFFF00000000000000
00000000000000FFFFFF00000000000000
00000000000000FFFFFF00000000000000
00000000000000FFFFFF00000000000000
00000000000000FFFFFF00000000000000
00000000000000FFFFFF00000000000000
000000000000007FFFFE00000000000000
000000000000007FFFFE00000000000000
000000000000007FFFFE00000000000000
000000000000003FFFFC00000000000000
000000000000001FFFF800000000000000
000000000000000FFFF800000000000000
0000000000000007FFE000000000000000
0000000000000001FFC000000000000000
00000000000000007E0000000000000000
ENDCHAR
STARTCHAR 0052
ENCODING 82
SWIDTH 794 0
DWIDTH 143 0
BBX 124 106 11 -2
BITMAP
00FFFFFFFFFFFFFFFFFFFFFC00000000
03FFFFFFFFFFFFFFFFFFFFFFE0000000
07FFFFFFFFFFFFFFFFFFFFFFFE000000
1FFFFFFFFFFFFFFFFFFFFFFFFF800000
1FFFFFFFFFFFFFFFFFFFFFFFFFE00000
3FFFFFFFFFFFFFFFFFFFFFFFFFF80000
7FFFFFFFFFFFFFFFFFFFFFFFFFFC0000
7FFFFFFFFFFFFFFFFFFFFFFFFFFF0000
FFFFFFFFFFFFFFFFFFFFFFFFFFFF8000
FFFFFFFFFFFFFFFFFFFFFFFFFFFFC000
FFFFFFFFFFFFFFFFFFFFFFFFFFFFE000
FFFFFFFFFFFFFFFFFFFFFFFFFFFFF000
FFFFFFFFFFFFFFFFFFFFFFFFFFFFF800
FFFFFFFFFFFFFFFFFFFFFFFFFFFFFC00
FFFFFFFFFFFFFFFFFFFFFFFFFFFFFE00
FFFFFFFFFFFFFFFFFFFFFFFFFFFFFE00
FFFFFFFFFFFFFFFFFFFFFFFFFFFFFF00
FFFFFFFFFFFFFFFFFFFFFFFFFFFFFF00
FFFFFFFFFFFFFFFFFFFFFFFFFFFFFF80
FFFFFFFFFFFFFFFFFFFFFFFFFFFFFF80
FFFFFFFFFFFFFFFFFFFFFFFFFFFFFFC0
FFFFFFFFFFFFFFFFFFFFFFFFFFFFFFC0
FFFFFFFFFFFFFFFFFFFFFFFFFFFFFFE0
FFFFFFF0000000000000003FFFFFFFE0
FFFFFF800000000000000001FFFFFFE0
FFFFFF000000000000000000FFFFFFE0
FFFFFF0000000000000000003FFFFFF0
FFFFFF0000000000000000001FFFFFF0
FFFFFF0000000000000000001FFFFFF0
FFFFFF0000000000000000000FFFFFF0
FFFFFF0000000000000000000FFFFFF0
FFFFFF0000000000000000000FFFFFF0
FFFFFF0000000000000000000FFFFFF0
FFFFFF0000000000000000001FFFFFF0
FFFFFF0000000000000000001FFFFFF0
FFFFFF0000000000000000003FFFFFF0
FFFFFF0000000000000000007FFFFFF0
FFFFFF000000000000000000FFFFFFF0
FFFFFF000000000000000003FFFFFFE0
FFFFFF00003FFFFFFFFFFFFFFFFFFFE0
FFFFFF0003FFFFFFFFFFFFFFFFFFFFE0
FFFFFF0007FFFFFFFFFFFFFFFFFFFFC0
FFFFFF000FFFFFFFFFFFFFFFFFFFFFC0
FFFFFF001FFFFFFFFFFFFFFFFFFFFFC0
FFFFFF003FFFFFFFFFFFFFFFFFFFFF80
FFFFFF007FFFFFFFFFFFFFFFFFFFFF80
FFFFFF007FFFFFFFFFFFFFFFFFFFFF00
FFFFFF00FFFFFFFFFFFFFFFFFFFFFE00
FFFFFF00FFFFFFFFFFFFFFFFFFFFFE00
FFFFFF00FFFFFFFFFFFFFFFFFFFFFC00
FFFFFF00FFFFFFFFFFFFFFFFFFFFF800
FFFFFF00FFFFFFFFFFFFFFFFFFFFF000
FFFFFF00FFFFFFFFFFFFFFFFFFFFE000
FFFFFF00FFFFFFFFFFFFFFFFFFFFC000
FFFFFF00FFFFFFFFFFFFFFFFFFFF8000
FFFFFF00FFFFFFFFFFFFFFFFFFFF0000
FFFFFF007FFFFFFFFFFFFFFFFFFC0000
FFFFFF007FFFFFFFFFFFFFFFFFF80000
FFFFFF007FFFFFFFFFFFFFFFFFE00000
FFFFFF007FFFFFFFFFFFFFFFFF800000
FFFFFF007FFFFFFFFFFFFFFFFE000000
FFFFFF003FFFFFFFFFFFFFFFE0000000
FFFFFF003FFFFFFFFFFFFFFC00000000
FFFFFF003FFFFFC00000000000000000
FFFFFF003FFFFFC00000000000000000
FFFFFF003FFFFFE00000000000000000
FFFFFF001FFFFFE00000000000000000
FFFFFF001FFFFFE00000000000000000
FFFFFF001FFFFFE00000000000000000
FFFFFF001FFFFFF00000000000000000
FFFFFF001FFFFFF00000000000000000
FFFFFF000FFFFFF80000000000000000
FFFFFF000FFFFFF80000000000000000
FFFFFF000FFFFFFC0000000000000000
FFFFFF000FFFFFFE0000000000000000
FFFFFF0007FFFFFE0000000000000000
FFFFFF0007FFFFFF8000000000000000
FFFFFF0007FFFFFFC000000000000000
FFFFFF0003FFFFFFE000000000000000
FFFFFF0003FFFFFFFC00000000000000
FFFFFF0001FFFFFFFFFFFFFFFFFFE000
FFFFFF0001FFFFFFFFFFFFFFFFFFFC00
FFFFFF0000FFFFFFFFFFFFFFFFFFFE00
FFFFFF0000FFFFFFFFFFFFFFFFFFFF00
FFFFFF00007FFFFFFFFFFFFFFFFFFF80
FFFFFF00007FFFFFFFFFFFFFFFFFFFC0
FFFFFF00003FFFFFFFFFFFFFFFFFFFE0
FFFFFF00001FFFFFFFFFFFFFFFFFFFE0
FFFFFF00001FFFFFFFFFFFFFFFFFFFE0
FFFFFF00000FFFFFFFFFFFFFFFFFFFF0
FFFFFF000007FFFFFFFFFFFFFFFFFFF0
FFFFFF000003FFFFFFFFFFFFFFFFFFF0
FFFFFF000001FFFFFFFFFFFFFFFFFFF0
FFFFFF000000FFFFFFFFFFFFFFFFFFF0
FFFFFF0000007FFFFFFFFFFFFFFFFFF0
FFFFFF0000003FFFFFFFFFFFFFFFFFE0
FFFFFF0000001FFFFFFFFFFFFFFFFFE0
FFFFFE00000007FFFFFFFFFFFFFFFFE0
7FFFFE00000003FFFFFFFFFFFFFFFFC0
7FFFFE00000000FFFFFFFFFFFFFFFF80
3FFFFC000000007FFFFFFFFFFFFFFF00
3FFFFC000000000FFFFFFFFFFFFFFE00
1FFFF80000000001FFFFFFFFFFFFF800
0FFFF000000000000FFFFFFFFFFFC000
03FFC000000000000000000000000000
00FF0000000000000000000000000000
ENDCHAR
STARTCHAR 0053
ENCODING 83
SWIDTH 755 0
DWIDTH 136 0
BBX 119 103 9 1
BITMAP
00000003FFFFFFFFFFFFFFFFFFF000
000000FFFFFFFFFFFFFFFFFFFFFC00
000007FFFFFFFFFFFFFFFFFFFFFE00
00001FFFFFFFFFFFFFFFFFFFFFFF00
00007FFFFFFFFFFFFFFFFFFFFFFF80
0001FFFFFFFFFFFFFFFFFFFFFFFFC0
0007FFFFFFFFFFFFFFFFFFFFFFFFE0
000FFFFFFFFFFFFFFFFFFFFFFFFFE0
001FFFFFFFFFFFFFFFFFFFFFFFFFE0
003FFFFFFFFFFFFFFFFFFFFFFFFFF0
007FFFFFFFFFFFFFFFFFFFFFFFFFF0
00FFFFFFFFFFFFFFFFFFFFFFFFFFF0
01FFFFFFFFFFFFFFFFFFFFFFFFFFF0
03FFFFFFFFFFFFFFFFFFFFFFFFFFF0
07FFFFFFFFFFFFFFFFFFFFFFFFFFE0
0FFFFFFFFFFFFFFFFFFFFFFFFFFFE0
0FFFFFFFFFFFFFFFFFFFFFFFFFFFE0
1FFFFFFFFFFFFFFFFFFFFFFFFFFFC0
1FFFFFFFFFFFFFFFFFFFFFFFFFFFC0
3FFFFFFFFFFFFFFFFFFFFFFFFFFF80
3FFFFFFFFFFFFFFFFFFFFFFFFFFF00
7FFFFFFFFFFFFFFFFFFFFFFFFFFE00
7FFFFFFFFFFFFFFFFFFFFFFFFFF800
7FFFFFFFC000000000000000000000
FFFFFFF80000000000000000000000
FFFFFFE00000000000000000000000
FFFFFFC00000000000000000000000
FFFFFF800000000000000000000000
FFFFFF800000000000000000000000
FFFFFF000000000000000000000000
FFFFFF000000000000000000000000
FFFFFF000000000000000000000000
FFFFFF000000000000000000000000
FFFFFF000000000000000000000000
FFFFFF800000000000000000000000
FFFFFF800000000000000000000000
FFFFFFC00000000000000000000000
FFFFFFF00000000000000000000000
FFFFFFFC0000000000000000000000
7FFFFFFFFFFFFFFFFFFFFE00000000
7FFFFFFFFFFFFFFFFFFFFFF8000000
7FFFFFFFFFFFFFFFFFFFFFFF800000
3FFFFFFFFFFFFFFFFFFFFFFFE00000
3FFFFFFFFFFFFFFFFFFFFFFFF80000
1FFFFFFFFFFFFFFFFFFFFFFFFE0000
1FFFFFFFFFFFFFFFFFFFFFFFFF8000
0FFFFFFFFFFFFFFFFFFFFFFFFFC000
0FFFFFFFFFFFFFFFFFFFFFFFFFE000
07FFFFFFFFFFFFFFFFFFFFFFFFF000
03FFFFFFFFFFFFFFFFFFFFFFFFF800
01FFFFFFFFFFFFFFFFFFFFFFFFFC00
00FFFFFFFFFFFFFFFFFFFFFFFFFE00
00FFFFFFFFFFFFFFFFFFFFFFFFFF00
003FFFFFFFFFFFFFFFFFFFFFFFFF80
001FFFFFFFFFFFFFFFFFFFFFFFFFC0
000FFFFFFFFFFFFFFFFFFFFFFFFFC0
0007FFFFFFFFFFFFFFFFFFFFFFFFE0
0001FFFFFFFFFFFFFFFFFFFFFFFFE0
00007FFFFFFFFFFFFFFFFFFFFFFFF0
00001FFFFFFFFFFFFFFFFFFFFFFFF0
000007FFFFFFFFFFFFFFFFFFFFFFF8
000000FFFFFFFFFFFFFFFFFFFFFFF8
00000003FFFFFFFFFFFFFFFFFFFFF8
0000000000000000000000FFFFFFFC
00000000000000000000003FFFFFFC
00000000000000000000000FFFFFFC
00000000000000000000000FFFFFFC
000000000000000000000007FFFFFE
000000000000000000000003FFFFFE
000000000000000000000003FFFFFE
000000000000000000000003FFFFFE
000000000000000000000001FFFFFE
000000000000000000000003FFFFFE
000000000000000000000003FFFFFE
000000000000000000000003FFFFFE
000000000000000000000007FFFFFC
000000000000000000000007FFFFFC
00000000000000000000000FFFFFFC
00000000000000000000003FFFFFFC
0000000000000000000000FFFFFFFC
003FFFFFFFFFFFFFFFFFFFFFFFFFF8
00FFFFFFFFFFFFFFFFFFFFFFFFFFF8
01FFFFFFFFFFFFFFFFFFFFFFFFFFF8
07FFFFFFFFFFFFFFFFFFFFFFFFFFF0
07FFFFFFFFFFFFFFFFFFFFFFFFFFF0
0FFFFFFFFFFFFFFFFFFFFFFFFFFFE0
1FFFFFFFFFFFFFFFFFFFFFFFFFFFE0
1FFFFFFFFFFFFFFFFFFFFFFFFFFFC0
1FFFFFFFFFFFFFFFFFFFFFFFFFFF80
3FFFFFFFFFFFFFFFFFFFFFFFFFFF80
3FFFFFFFFFFFFFFFFFFFFFFFFFFF00
3FFFFFFFFFFFFFFFFFFFFFFFFFFE00
3FFFFFFFFFFFFFFFFFFFFFFFFFFC00
3FFFFFFFFFFFFFFFFFFFFFFFFFF800
1FFFFFFFFFFFFFFFFFFFFFFFFFF000
1FFFFFFFFFFFFFFFFFFFFFFFFFE000
1FFFFFFFFFFFFFFFFFFFFFFFFFC000
0FFFFFFFFFFFFFFFFFFFFFFFFF0000
0FFFFFFFFFFFFFFFFFFFFFFFFE0000
07FFFFFFFFFFFFFFFFFFFFFFF80000
03FFFFFFFFFFFFFFFFFFFFFFE00000
00FFFFFFFFFFFFFFFFFFFFFF000000
003FFFFFFFFFFFFFFFFFFFF0000000
ENDCHAR
STARTCHAR 0054
ENCODING 84
SWIDTH 783 0
DWIDTH 141 0
BBX 126 106 8 -2
BITMAP
00FFFFFFFFFFFFFFFFFFFFFFFFFFFC00
03FFFFFFFFFFFFFFFFFFFFFFFFFFFF00
0FFFFFFFFFFFFFFFFFFFFFFFFFFFFF80
1FFFFFFFFFFFFFFFFFFFFFFFFFFFFFC0
3FFFFFFFFFFFFFFFFFFFFFFFFFFFFFE0
7FFFFFFFFFFFFFFFFFFFFFFFFFFFFFF0
7FFFFFFFFFFFFFFFFFFFFFFFFFFFFFF0
FFFFFFFFFFFFFFFFFFFFFFFFFFFFFFF8
FFFFFFFFFFFFFFFFFFFFFFFFFFFFFFF8
FFFFFFFFFFFFFFFFFFFFFFFFFFFFFFF8
FFFFFFFFFFFFFFFFFFFFFFFFFFFFFFFC
FFFFFFFFFFFFFFFFFFFFFFFFFFFFFFFC
FFFFFFFFFFFFFFFFFFFFFFFFFFFFFFFC
FFFFFFFFFFFFFFFFFFFFFFFFFFFFFFF8
FFFFFFFFFFFFFFFFFFFFFFFFFFFFFFF8
FFFFFFFFFFFFFFFFFFFFFFFFFFFFFFF8
7FFFFFFFFFFFFFFFFFFFFFFFFFFFFFF8
7FFFFFFFFFFFFFFFFFFFFFFFFFFFFFF0
3FFFFFFFFFFFFFFFFFFFFFFFFFFFFFF0
1FFFFFFFFFFFFFFFFFFFFFFFFFFFFFE0
0FFFFFFFFFFFFFFFFFFFFFFFFFFFFFC0
07FFFFFFFFFFFFFFFFFFFFFFFFFFFF00
01FFFFFFFFFFFFFFFFFFFFFFFFFFFE00
0000000000001FFFFFE0000000000000
0000000000001FFFFFE0000000000000
0000000000001FFFFFE0000000000000
0000000000001FFFFFE0000000000000
0000000000001FFFFFE0000000000000
0000000000001FFFFFE0000000000000
0000000000001FFFFFE0000000000000
0000000000001FFFFFE0000000000000
0000000000001FFFFFE0000000000000
0000000000001FFFFFE0000000000000
0000000000001FFFFFE0000000000000
0000000000001FFFFFE0000000000000
0000000000001FFFFFE0000000000000
0000000000001FFFFFE0000000000000
0000000000001FFFFFE0000000000000
0000000000001FFFFFE0000000000000
0000000000001FFFFFE0000000000000
0000000000001FFFFFE0000000000000
0000000000001FFFFFE0000000000000
0000000000001FFFFFE0000000000000
0000000000001FFFFFE0000000000000
0000000000001FFFFFE0000000000000
0000000000001FFFFFE0000000000000
0000000000001FFFFFE0000000000000
0000000000001FFFFFE0000000000000
0000000000001FFFFFE0000000000000
0000000000001FFFFFE0000000000000
0000000000001FFFFFE0000000000000
0000000000001FFFFFE0000000000000
0000000000001FFFFFE0000000000000
0000000000001FFFFFE0000000000000
0000000000001FFFFFE0000000000000
0000000000001FFFFFE0000000000000
0000000000001FFFFFE0000000000000
0000000000001FFFFFE0000000000000
0000000000001FFFFFE0000000000000
0000000000001FFFFFE0000000000000
0000000000001FFFFFE0000000000000
0000000000001FFFFFE0000000000000
0000000000001FFFFFE0000000000000
0000000000001FFFFFE0000000000000
0000000000001FFFFFE0000000000000
0000000000001FFFFFE0000000000000
0000000000001FFFFFE0000000000000
0000000000001FFFFFE0000000000000
0000000000001FFFFFE0000000000000
0000000000001FFFFFE0000000000000
0000000000001FFFFFE0000000000000
0000000000001FFFFFE0000000000000
0000000000001FFFFFE0000000000000
0000000000001FFFFFE0000000000000
0000000000001FFFFFE0000000000000
0000000000001FFFFFE0000000000000
0000000000001FFFFFE0000000000000
0000000000001FFFFFE0000000000000
0000000000001FFFFFE0000000000000
0000000000001FFFFFE0000000000000
0000000000001FFFFFE0000000000000
0000000000001FFFFFE0000000000000
0000000000001FFFFFE0000000000000
0000000000001FFFFFE0000000000000
0000000000001FFFFFE0000000000000
0000000000001FFFFFE0000000000000
0000000000001FFFFFE0000000000000
0000000000001FFFFFE0000000000000
0000000000001FFFFFE0000000000000
0000000000001FFFFFE0000000000000
0000000000001FFFFFE0000000000000
0000000000001FFFFFE0000000000000
0000000000001FFFFFE0000000000000
0000000000001FFFFFE0000000000000
0000000000001FFFFFE0000000000000
0000000000001FFFFFE0000000000000
0000000000001FFFFFC0000000000000
0000000000001FFFFFC0000000000000
0000000000001FFFFFC0000000000000
0000000000000FFFFF80000000000000
0000000000000FFFFF80000000000000
00000000000007FFFF00000000000000
00000000000003FFFF00000000000000
00000000000001FFFC00000000000000
000000000000007FF800000000000000
000000000000001FC000000000000000
ENDCHAR
STARTCHAR 0055
ENCODING 85
SWIDTH 755 0
DWIDTH 136 0
BBX 112 110 11 -3
BITMAP
00FF80000000000000000000FF80
03FFE0000000000000000003FFE0
0FFFF000000000000000000FFFF0
1FFFF800000000000000001FFFF8
3FFFFC00000000000000001FFFFC
3FFFFC00000000000000003FFFFE
7FFFFE00000000000000007FFFFE
7FFFFE00000000000000007FFFFE
FFFFFE00000000000000007FFFFF
FFFFFF00000000000000007FFFFF
FFFFFF0000000000000000FFFFFF
FFFFFF0000000000000000FFFFFF
FFFFFF0000000000000000FFFFFF
FFFFFF0000000000000000FFFFFF
FFFFFF0000000000000000FFFFFF
FFFFFF0000000000000000FFFFFF
FFFFFF0000000000000000FFFFFF
FFFFFF0000000000000000FFFFFF
FFFFFF0000000000000000FFFFFF
FFFFFF0000000000000000FFFFFF
FFFFFF0000000000000000FFFFFF
FFFFFF0000000000000000FFFFFF
FFFFFF0000000000000000FFFFFF
FFFFFF0000000000000000FFFFFF
FFFFFF0000000000000000FFFFFF
FFFFFF0000000000000000FFFFFF
FFFFFF0000000000000000FFFFFF
FFFFFF0000000000000000FFFFFF
FFFFFF0000000000000000FFFFFF
FFFFFF0000000000000000FFFFFF
FFFFFF0000000000000000FFFFFF
FFFFFF0000000000000000FFFFFF
FFFFFF0000000000000000FFFFFF
FFFFFF0000000000000000FFFFFF
FFFFFF0000000000000000FFFFFF
FFFFFF0000000000000000FFFFFF
FFFFFF0000000000000000FFFFFF
FFFFFF0000000000000000FFFFFF
FFFFFF0000000000000000FFFFFF
FFFFFF0000000000000000FFFFFF
FFFFFF0000000000000000FFFFFF
FFFFFF0000000000000000FFFFFF
FFFFFF0000000000000000FFFFFF
FFFFFF0000000000000000FFFFFF
FFFFFF0000000000000000FFFFFF
FFFFFF0000000000000000FFFFFF
FFFFFF0000000000000000FFFFFF
FFFFFF0000000000000000FFFFFF
FFFFFF0000000000000000FFFFFF
FFFFFF0000000000000000FFFFFF
FFFFFF0000000000000000FFFFFF
FFFFFF0000000000000000FFFFFF
FFFFFF0000000000000000FFFFFF
FFFFFF0000000000000000FFFFFF
FFFFFF0000000000000000FFFFFF
FFFFFF0000000000000000FFFFFF
FFFFFF0000000000000000FFFFFF
FFFFFF0000000000000000FFFFFF
FFFFFF0000000000000000FFFFFF
FFFFFF0000000000000000FFFFFF
FFFFFF0000000000000000FFFFFF
FFFFFF0000000000000000FFFFFF
FFFFFF0000000000000000FFFFFF
FFFFFF0000000000000000FFFFFF
FFFFFF0000000000000000FFFFFF
FFFFFF0000000000000000FFFFFF
FFFFFF0000000000000000FFFFFF
FFFFFF0000000000000000FFFFFF
FFFFFF0000000000000000FFFFFF
FFFFFF0000000000000000FFFFFF
FFFFFF0000000000000000FFFFFF
FFFFFF0000000000000000FFFFFF
FFFFFF0000000000000000FFFFFF
FFFFFF8000000000000001FFFFFF
FFFFFF8000000000000001FFFFFF
FFFFFFC000000000000003FFFFFF
FFFFFFC000000000000003FFFFFF
7FFFFFE000000000000007FFFFFF
7FFFFFF00000000000000FFFFFFF
7FFFFFFC0000000000001FFFFFFE
7FFFFFFE0000000000007FFFFFFE
7FFFFFFF000000000000FFFFFFFE
3FFFFFFFC00000000003FFFFFFFE
3FFFFFFFF00000000007FFFFFFFC
1FFFFFFFFC000000003FFFFFFFFC
1FFFFFFFFF80000000FFFFFFFFF8
0FFFFFFFFFF000000FFFFFFFFFF8
0FFFFFFFFFFF8001FFFFFFFFFFF0
07FFFFFFFFFFFFFFFFFFFFFFFFE0
03FFFFFFFFFFFFFFFFFFFFFFFFE0
01FFFFFFFFFFFFFFFFFFFFFFFFC0
00FFFFFFFFFFFFFFFFFFFFFFFF80
007FFFFFFFFFFFFFFFFFFFFFFF00
003FFFFFFFFFFFFFFFFFFFFFFE00
001FFFFFFFFFFFFFFFFFFFFFFC00
000FFFFFFFFFFFFFFFFFFFFFF800
0007FFFFFFFFFFFFFFFFFFFFE000
0003FFFFFFFFFFFFFFFFFFFFC000
0000FFFFFFFFFFFFFFFFFFFF8000
00007FFFFFFFFFFFFFFFFFFE0000
00001FFFFFFFFFFFFFFFFFF80000
000007FFFFFFFFFFFFFFFFF00000
000001FFFFFFFFFFFFFFFFC00000
0000007FFFFFFFFFFFFFFE000000
0000001FFFFFFFFFFFFFF8000000
00000003FFFFFFFFFFFFC0000000
000000007FFFFFFFFFFE00000000
000000000FFFFFFFFFF000000000
00000000007FFFFFFE0000000000
000000000001FFFF800000000000
ENDCHAR
STARTCHAR 0056
ENCODING 86
SWIDTH 744 0
DWIDTH 134 0
BBX 119 110 8 -3
BITMAP
001800000000000000000000001800
03FF8000000000000000000003FF80
07FFE00000000000000000000FFFE0
1FFFF00000000000000000001FFFF0
3FFFF80000000000000000003FFFF8
3FFFFC0000000000000000007FFFFC
7FFFFE000000000000000000FFFFFC
7FFFFE000000000000000000FFFFFE
FFFFFF000000000000000001FFFFFE
FFFFFF000000000000000001FFFFFE
FFFFFF800000000000000001FFFFFE
FFFFFF800000000000000003FFFFFE
FFFFFF800000000000000003FFFFFE
FFFFFFC00000000000000003FFFFFE
FFFFFFC00000000000000007FFFFFE
7FFFFFC00000000000000007FFFFFE
7FFFFFE0000000000000000FFFFFFC
7FFFFFE0000000000000000FFFFFFC
3FFFFFF0000000000000000FFFFFFC
3FFFFFF0000000000000001FFFFFF8
1FFFFFF0000000000000001FFFFFF8
1FFFFFF8000000000000001FFFFFF8
1FFFFFF8000000000000003FFFFFF0
0FFFFFF8000000000000003FFFFFF0
0FFFFFFC000000000000003FFFFFE0
07FFFFFC000000000000007FFFFFE0
07FFFFFC000000000000007FFFFFE0
07FFFFFE00000000000000FFFFFFC0
03FFFFFE00000000000000FFFFFFC0
03FFFFFF00000000000000FFFFFF80
01FFFFFF00000000000001FFFFFF80
01FFFFFF00000000000001FFFFFF80
01FFFFFF80000000000001FFFFFF00
00FFFFFF80000000000003FFFFFF00
00FFFFFF80000000000003FFFFFE00
00FFFFFFC0000000000003FFFFFE00
007FFFFFC0000000000007FFFFFE00
007FFFFFC0000000000007FFFFFC00
003FFFFFE0000000000007FFFFFC00
003FFFFFE000000000000FFFFFFC00
003FFFFFF000000000000FFFFFF800
001FFFFFF000000000001FFFFFF800
001FFFFFF000000000001FFFFFF000
000FFFFFF800000000001FFFFFF000
000FFFFFF800000000003FFFFFF000
000FFFFFF800000000003FFFFFE000
0007FFFFFC00000000003FFFFFE000
0007FFFFFC00000000007FFFFFC000
0003FFFFFC00000000007FFFFFC000
0003FFFFFE00000000007FFFFFC000
0003FFFFFE0000000000FFFFFF8000
0001FFFFFF0000000000FFFFFF8000
0001FFFFFF0000000000FFFFFF8000
0001FFFFFF0000000001FFFFFF0000
0000FFFFFF8000000001FFFFFF0000
0000FFFFFF8000000003FFFFFE0000
00007FFFFF8000000003FFFFFE0000
00007FFFFFC000000003FFFFFE0000
00007FFFFFC000000007FFFFFC0000
00003FFFFFE000000007FFFFFC0000
00003FFFFFE00000000FFFFFF80000
00001FFFFFE00000000FFFFFF80000
00001FFFFFF00000000FFFFFF80000
00001FFFFFF00000001FFFFFF00000
00000FFFFFF80000001FFFFFF00000
00000FFFFFF80000003FFFFFE00000
00000FFFFFF80000003FFFFFE00000
000007FFFFFC0000003FFFFFE00000
000007FFFFFC0000007FFFFFC00000
000003FFFFFE0000007FFFFFC00000
000003FFFFFE000000FFFFFF800000
000001FFFFFF000000FFFFFF800000
000001FFFFFF000001FFFFFF800000
000001FFFFFF800001FFFFFF000000
000000FFFFFF800003FFFFFF000000
000000FFFFFFC00003FFFFFE000000
0000007FFFFFC00007FFFFFE000000
0000007FFFFFE00007FFFFFC000000
0000003FFFFFE0000FFFFFFC000000
0000003FFFFFF0001FFFFFF8000000
0000001FFFFFF8001FFFFFF8000000
0000001FFFFFF8003FFFFFF0000000
0000000FFFFFFC007FFFFFF0000000
0000000FFFFFFE00FFFFFFF0000000
00000007FFFFFF81FFFFFFE0000000
00000007FFFFFFFFFFFFFFC0000000
00000003FFFFFFFFFFFFFFC0000000
00000003FFFFFFFFFFFFFF80000000
00000001FFFFFFFFFFFFFF80000000
00000001FFFFFFFFFFFFFF00000000
00000000FFFFFFFFFFFFFF00000000
00000000FFFFFFFFFFFFFE00000000
000000007FFFFFFFFFFFFE00000000
000000003FFFFFFFFFFFFC00000000
000000003FFFFFFFFFFFFC00000000
000000001FFFFFFFFFFFF800000000
000000001FFFFFFFFFFFF000000000
000000000FFFFFFFFFFFF000000000
0000000007FFFFFFFFFFE000000000
0000000007FFFFFFFFFFC000000000
0000000003FFFFFFFFFF8000000000
0000000001FFFFFFFFFF8000000000
0000000000FFFFFFFFFF0000000000
00000000007FFFFFFFFE0000000000
00000000003FFFFFFFFC0000000000
00000000001FFFFFFFF00000000000
000000000007FFFFFFE00000000000
000000000001FFFFFF800000000000
0000000000007FFFFE000000000000
0000000000000FFFF0000000000000
ENDCHAR
STARTCHAR 0057
ENCODING 87
SWIDTH 822 0
DWIDTH 148 0
BBX 125 110 11 -3
BITMAP
00FF80000000003FE0000000000FF800
03FFE000000000FFF8000000003FFE00
0FFFF000000003FFFC000000007FFF80
1FFFF800000007FFFE00000000FFFFC0
3FFFFC00000007FFFF00000001FFFFE0
3FFFFC0000000FFFFF80000003FFFFE0
7FFFFE0000001FFFFF80000003FFFFF0
7FFFFE0000001FFFFFC0000007FFFFF0
FFFFFE0000001FFFFFC0000007FFFFF0
FFFFFF0000001FFFFFC0000007FFFFF0
FFFFFF0000001FFFFFC0000007FFFFF8
FFFFFF0000001FFFFFC0000007FFFFF8
FFFFFF0000001FFFFFC0000007FFFFF8
FFFFFF0000001FFFFFC0000007FFFFF8
FFFFFF0000001FFFFFC0000007FFFFF8
FFFFFF0000001FFFFFC0000007FFFFF8
FFFFFF0000001FFFFFC0000007FFFFF8
FFFFFF0000001FFFFFC0000007FFFFF8
FFFFFF0000001FFFFFC0000007FFFFF8
FFFFFF0000001FFFFFC0000007FFFFF8
FFFFFF0000001FFFFFC0000007FFFFF8
FFFFFF0000001FFFFFC0000007FFFFF8
FFFFFF0000001FFFFFC0000007FFFFF8
FFFFFF0000001FFFFFC0000007FFFFF8
FFFFFF0000001FFFFFC0000007FFFFF8
FFFFFF0000001FFFFFC0000007FFFFF8
FFFFFF0000001FFFFFC0000007FFFFF8
FFFFFF0000001FFFFFC0000007FFFFF8
FFFFFF0000001FFFFFC0000007FFFFF8
FFFFFF0000001FFFFFC0000007FFFFF8
FFFFFF0000001FFFFFC0000007FFFFF8
FFFFFF0000001FFFFFC0000007FFFFF8
FFFFFF0000001FFFFFC0000007FFFFF8
FFFFFF0000001FFFFFC0000007FFFFF8
FFFFFF0000001FFFFFC0000007FFFFF8
FFFFFF0000001FFFFFC0000007FFFFF8
FFFFFF0000001FFFFFC0000007FFFFF8
FFFFFF0000001FFFFFC0000007FFFFF8
FFFFFF0000001FFFFFC0000007FFFFF8
FFFFFF0000001FFFFFC0000007FFFFF8
FFFFFF0000001FFFFFC0000007FFFFF8
FFFFFF0000001FFFFFC0000007FFFFF8
FFFFFF0000001FFFFFC0000007FFFFF8
FFFFFF0000001FFFFFC0000007FFFFF8
FFFFFF0000001FFFFFC0000007FFFFF8
FFFFFF0000001FFFFFC0000007FFFFF8
FFFFFF0000001FFFFFC0000007FFFFF8
FFFFFF0000001FFFFFC0000007FFFFF8
FFFFFF0000001FFFFFC0000007FFFFF8
FFFFFF0000001FFFFFC0000007FFFFF8
FFFFFF0000001FFFFFC0000007FFFFF8
FFFFFF0000001FFFFFC0000007FFFFF8
FFFFFF0000001FFFFFC0000007FFFFF8
FFFFFF0000001FFFFFC0000007FFFFF8
FFFFFF0000001FFFFFC0000007FFFFF8
FFFFFF0000001FFFFFC0000007FFFFF8
FFFFFF0000001FFFFFC0000007FFFFF8
FFFFFF0000001FFFFFC0000007FFFFF8
FFFFFF0000001FFFFFC0000007FFFFF8
FFFFFF0000001FFFFFC0000007FFFFF8
FFFFFF0000001FFFFFC0000007FFFFF8
FFFFFF0000001FFFFFC0000007FFFFF8
FFFFFF0000001FFFFFC0000007FFFFF8
FFFFFF0000001FFFFFC0000007FFFFF8
FFFFFF0000001FFFFFC0000007FFFFF8
FFFFFF0000001FFFFFC0000007FFFFF8
FFFFFF0000001FFFFFC0000007FFFFF8
FFFFFF0000001FFFFFC0000007FFFFF8
FFFFFF0000001FFFFFC0000007FFFFF8
FFFFFF0000001FFFFFC0000007FFFFF8
FFFFFF0000001FFFFFC0000007FFFFF8
FFFFFF0000001FFFFFC0000007FFFFF8
FFFFFF0000001FFFFFC0000007FFFFF8
FFFFFF0000001FFFFFC0000007FFFFF8
FFFFFF0000003FFFFFC0000007FFFFF8
FFFFFF0000003FFFFFC0000007FFFFF8
FFFFFF0000003FFFFFE0000007FFFFF8
FFFFFF0000003FFFFFE000000FFFFFF8
7FFFFF8000003FFFFFE000000FFFFFF0
7FFFFF8000007FFFFFF000000FFFFFF0
7FFFFFC000007FFFFFF000001FFFFFF0
7FFFFFC00000FFFFFFF800001FFFFFF0
7FFFFFE00001FFFFFFF800003FFFFFF0
3FFFFFF00001FFFFFFFC00007FFFFFF0
3FFFFFF80003FFFFFFFE0000FFFFFFE0
3FFFFFFC000FFFFFFFFF0001FFFFFFE0
1FFFFFFF001FFFFFFFFFC007FFFFFFE0
1FFFFFFFC0FFFFFFFFFFF01FFFFFFFC0
1FFFFFFFFFFFFFFFFFFFFFFFFFFFFFC0
0FFFFFFFFFFFFFFFFFFFFFFFFFFFFF80
0FFFFFFFFFFFFFFFFFFFFFFFFFFFFF80
07FFFFFFFFFFFFFFFFFFFFFFFFFFFF00
03FFFFFFFFFFFFFFFFFFFFFFFFFFFE00
03FFFFFFFFFFFFFFFFFFFFFFFFFFFE00
01FFFFFFFFFFFFFFFFFFFFFFFFFFFC00
00FFFFFFFFFFFFFFFFFFFFFFFFFFF800
007FFFFFFFFFFFFFFFFFFFFFFFFFF800
003FFFFFFFFFFFFFFFFFFFFFFFFFF000
003FFFFFFFFFFFFFFFFFFFFFFFFFE000
001FFFFFFFFFFFFFFFFFFFFFFFFFC000
0007FFFFFFFFFFFDFFFFFFFFFFFF8000
0003FFFFFFFFFFF8FFFFFFFFFFFE0000
0001FFFFFFFFFFE03FFFFFFFFFFC0000
00007FFFFFFFFFC01FFFFFFFFFF80000
00003FFFFFFFFF0007FFFFFFFFE00000
00000FFFFFFFFE0001FFFFFFFF800000
000003FFFFFFF800007FFFFFFE000000
000000FFFFFFC000001FFFFFF8000000
0000001FFFFF00000003FFFFC0000000
00000001FFE0000000003FFC00000000
ENDCHAR
STARTCHAR 0058
ENCODING 88
SWIDTH 822 0
DWIDTH 148 0
BBX 134 103 7 1
BITMAP
00FFFFFF000000000000000003FFFFFC00
03FFFFFFF0000000000000001FFFFFFF00
07FFFFFFFC00000000000000FFFFFFFFC0
0FFFFFFFFF80000000000003FFFFFFFFE0
1FFFFFFFFFC000000000000FFFFFFFFFF0
3FFFFFFFFFF000000000003FFFFFFFFFF0
3FFFFFFFFFFC00000000007FFFFFFFFFF8
7FFFFFFFFFFE0000000001FFFFFFFFFFF8
7FFFFFFFFFFF0000000003FFFFFFFFFFFC
7FFFFFFFFFFF8000000007FFFFFFFFFFFC
FFFFFFFFFFFFE00000000FFFFFFFFFFFFC
FFFFFFFFFFFFF00000001FFFFFFFFFFFFC
FFFFFFFFFFFFF80000003FFFFFFFFFFFFC
7FFFFFFFFFFFFC000000FFFFFFFFFFFFFC
7FFFFFFFFFFFFE000001FFFFFFFFFFFFFC
7FFFFFFFFFFFFF000001FFFFFFFFFFFFF8
7FFFFFFFFFFFFF800003FFFFFFFFFFFFF8
3FFFFFFFFFFFFFC00007FFFFFFFFFFFFF0
1FFFFFFFFFFFFFE0000FFFFFFFFFFFFFF0
1FFFFFFFFFFFFFE0001FFFFFFFFFFFFFE0
0FFFFFFFFFFFFFF0003FFFFFFFFFFFFFC0
03FFFFFFFFFFFFF8007FFFFFFFFFFFFF80
01FFFFFFFFFFFFFC00FFFFFFFFFFFFFE00
0000001FFFFFFFFE00FFFFFFFFE0000000
00000001FFFFFFFE01FFFFFFFF00000000
000000007FFFFFFF03FFFFFFFC00000000
000000003FFFFFFF87FFFFFFF000000000
000000000FFFFFFFC7FFFFFFE000000000
0000000007FFFFFFCFFFFFFF8000000000
0000000003FFFFFFFFFFFFFF0000000000
0000000001FFFFFFFFFFFFFE0000000000
0000000000FFFFFFFFFFFFFC0000000000
00000000007FFFFFFFFFFFF80000000000
00000000003FFFFFFFFFFFF80000000000
00000000001FFFFFFFFFFFF00000000000
00000000001FFFFFFFFFFFE00000000000
00000000000FFFFFFFFFFFC00000000000
000000000007FFFFFFFFFF800000000000
000000000003FFFFFFFFFF000000000000
000000000001FFFFFFFFFF000000000000
000000000001FFFFFFFFFE000000000000
000000000000FFFFFFFFFC000000000000
0000000000007FFFFFFFFC000000000000
0000000000007FFFFFFFF8000000000000
0000000000003FFFFFFFF0000000000000
0000000000001FFFFFFFF0000000000000
0000000000001FFFFFFFE0000000000000
0000000000000FFFFFFFE0000000000000
0000000000000FFFFFFFC0000000000000
00000000000007FFFFFFC0000000000000
00000000000007FFFFFF80000000000000
00000000000003FFFFFF00000000000000
00000000000001FFFFFF00000000000000
00000000000001FFFFFF00000000000000
00000000000003FFFFFF00000000000000
00000000000007FFFFFF80000000000000
00000000000007FFFFFF80000000000000
0000000000000FFFFFFFC0000000000000
0000000000000FFFFFFFE0000000000000
0000000000001FFFFFFFE0000000000000
0000000000003FFFFFFFF0000000000000
0000000000003FFFFFFFF8000000000000
0000000000007FFFFFFFF8000000000000
000000000000FFFFFFFFFC000000000000
000000000000FFFFFFFFFE000000000000
000000000001FFFFFFFFFE000000000000
000000000003FFFFFFFFFF000000000000
000000000007FFFFFFFFFF800000000000
000000000007FFFFFFFFFFC00000000000
00000000000FFFFFFFFFFFE00000000000
00000000001FFFFFFFFFFFE00000000000
00000000003FFFFFFFFFFFF00000000000
00000000007FFFFFFFFFFFF80000000000
0000000000FFFFFFFFFFFFFC0000000000
0000000001FFFFFFFFFFFFFE0000000000
0000000003FFFFFFFFFFFFFF0000000000
0000000007FFFFFFFFFFFFFFC000000000
000000001FFFFFFFCFFFFFFFE000000000
000000007FFFFFFF87FFFFFFF800000000
00000001FFFFFFFF83FFFFFFFF00000000
003FFFFFFFFFFFFF03FFFFFFFFFFFFF000
00FFFFFFFFFFFFFE01FFFFFFFFFFFFFE00
03FFFFFFFFFFFFFC00FFFFFFFFFFFFFF00
07FFFFFFFFFFFFF8007FFFFFFFFFFFFF80
0FFFFFFFFFFFFFF8003FFFFFFFFFFFFFC0
0FFFFFFFFFFFFFF0001FFFFFFFFFFFFFE0
1FFFFFFFFFFFFFE0001FFFFFFFFFFFFFE0
1FFFFFFFFFFFFFC0000FFFFFFFFFFFFFF0
3FFFFFFFFFFFFF800007FFFFFFFFFFFFF0
3FFFFFFFFFFFFF000003FFFFFFFFFFFFF0
3FFFFFFFFFFFFE000001FFFFFFFFFFFFF8
3FFFFFFFFFFFFC000000FFFFFFFFFFFFF8
3FFFFFFFFFFFF80000007FFFFFFFFFFFF8
3FFFFFFFFFFFF00000001FFFFFFFFFFFF0
3FFFFFFFFFFFC00000000FFFFFFFFFFFF0
3FFFFFFFFFFF8000000007FFFFFFFFFFF0
1FFFFFFFFFFF0000000003FFFFFFFFFFF0
1FFFFFFFFFFC0000000000FFFFFFFFFFE0
0FFFFFFFFFF800000000007FFFFFFFFFC0
07FFFFFFFFE000000000001FFFFFFFFFC0
03FFFFFFFF80000000000007FFFFFFFF80
01FFFFFFFE00000000000001FFFFFFFE00
007FFFFFF0000000000000003FFFFFFC00
ENDCHAR
STARTCHAR 0059
ENCODING 89
SWIDTH 766 0
DWIDTH 138 0
BBX 115 106 11 0
BITMAP
007E00000000000000000000000000
01FFC00000000000000000003FF000
07FFE0000000000000000000FFFC00
0FFFF0000000000000000001FFFE00
1FFFF8000000000000000003FFFF00
3FFFFC000000000000000007FFFF80
3FFFFE00000000000000000FFFFF80
7FFFFE00000000000000000FFFFFC0
7FFFFE00000000000000001FFFFFC0
FFFFFF00000000000000001FFFFFC0
FFFFFF00000000000000001FFFFFC0
FFFFFF00000000000000001FFFFFE0
FFFFFF00000000000000001FFFFFE0
FFFFFF00000000000000001FFFFFE0
FFFFFF00000000000000001FFFFFE0
FFFFFF00000000000000001FFFFFE0
FFFFFF00000000000000001FFFFFE0
FFFFFF00000000000000001FFFFFE0
FFFFFF00000000000000001FFFFFE0
FFFFFF00000000000000001FFFFFE0
FFFFFF00000000000000001FFFFFE0
FFFFFF00000000000000001FFFFFE0
FFFFFF00000000000000001FFFFFE0
7FFFFF00000000000000001FFFFFE0
7FFFFF00000000000000001FFFFFE0
7FFFFF00000000000000001FFFFFE0
7FFFFF80000000000000001FFFFFE0
7FFFFF80000000000000001FFFFFE0
7FFFFF80000000000000001FFFFFE0
7FFFFF80000000000000001FFFFFE0
7FFFFFC0000000000000001FFFFFE0
3FFFFFC0000000000000001FFFFFE0
3FFFFFC0000000000000001FFFFFE0
3FFFFFE0000000000000001FFFFFE0
3FFFFFE0000000000000001FFFFFE0
3FFFFFF0000000000000001FFFFFE0
1FFFFFF0000000000000001FFFFFE0
1FFFFFF8000000000000001FFFFFE0
1FFFFFFC000000000000001FFFFFE0
1FFFFFFE000000000000001FFFFFE0
0FFFFFFF000000000000001FFFFFE0
0FFFFFFF800000000000001FFFFFE0
0FFFFFFFE00000000000001FFFFFE0
07FFFFFFFC0000000000001FFFFFE0
07FFFFFFFFFFFFFFFFFFFFFFFFFFE0
03FFFFFFFFFFFFFFFFFFFFFFFFFFE0
03FFFFFFFFFFFFFFFFFFFFFFFFFFE0
01FFFFFFFFFFFFFFFFFFFFFFFFFFE0
01FFFFFFFFFFFFFFFFFFFFFFFFFFE0
00FFFFFFFFFFFFFFFFFFFFFFFFFFE0
00FFFFFFFFFFFFFFFFFFFFFFFFFFE0
007FFFFFFFFFFFFFFFFFFFFFFFFFE0
007FFFFFFFFFFFFFFFFFFFFFFFFFE0
003FFFFFFFFFFFFFFFFFFFFFFFFFE0
001FFFFFFFFFFFFFFFFFFFFFFFFFE0
000FFFFFFFFFFFFFFFFFFFFFFFFFE0
0007FFFFFFFFFFFFFFFFFFFFFFFFE0
0007FFFFFFFFFFFFFFFFFFFFFFFFE0
0003FFFFFFFFFFFFFFFFFFFFFFFFE0
0000FFFFFFFFFFFFFFFFFFFFFFFFC0
00007FFFFFFFFFFFFFFFFFFFFFFFC0
00003FFFFFFFFFFFFFFFFFFFFFFFC0
00001FFFFFFFFFFFFFFFFFFFFFFFC0
000007FFFFFFFFFFFFFFFFFFFFFFC0
000001FFFFFFFFFFFFFFFFFFFFFFC0
0000007FFFFFFFFFFFFFFFFFFFFFC0
0000000FFFFFFFFFFFFFFFFFFFFFC0
000000003FFFFFFFFFFFFFFFFFFFC0
00000000000000000000007FFFFF80
00000000000000000000007FFFFF80
00000000000000000000007FFFFF80
0000000000000000000000FFFFFF80
0000000000000000000000FFFFFF80
0000000000000000000001FFFFFF00
0000000000000000000001FFFFFF00
0000000000000000000003FFFFFF00
0000000000000000000007FFFFFF00
000000000000000000000FFFFFFE00
000000000000000000001FFFFFFE00
000000000000000000003FFFFFFE00
000000000000000000007FFFFFFC00
00000000000000000001FFFFFFFC00
0000000000000000001FFFFFFFFC00
000FFFFFFFFFFFFFFFFFFFFFFFF800
003FFFFFFFFFFFFFFFFFFFFFFFF800
007FFFFFFFFFFFFFFFFFFFFFFFF000
01FFFFFFFFFFFFFFFFFFFFFFFFF000
01FFFFFFFFFFFFFFFFFFFFFFFFE000
03FFFFFFFFFFFFFFFFFFFFFFFFE000
07FFFFFFFFFFFFFFFFFFFFFFFFC000
07FFFFFFFFFFFFFFFFFFFFFFFFC000
07FFFFFFFFFFFFFFFFFFFFFFFF8000
0FFFFFFFFFFFFFFFFFFFFFFFFF0000
0FFFFFFFFFFFFFFFFFFFFFFFFE0000
0FFFFFFFFFFFFFFFFFFFFFFFFE0000
0FFFFFFFFFFFFFFFFFFFFFFFFC0000
0FFFFFFFFFFFFFFFFFFFFFFFF80000
07FFFFFFFFFFFFFFFFFFFFFFF00000
07FFFFFFFFFFFFFFFFFFFFFFE00000
07FFFFFFFFFFFFFFFFFFFFFFC00000
03FFFFFFFFFFFFFFFFFFFFFF000000
01FFFFFFFFFFFFFFFFFFFFFE000000
01FFFFFFFFFFFFFFFFFFFFF8000000
00FFFFFFFFFFFFFFFFFFFFE0000000
003FFFFFFFFFFFFFFFFFFF80000000
000FFFFFFFFFFFFFFFFFF800000000
ENDCHAR
STARTCHAR 005A
ENCODING 90
SWIDTH 777 0
DWIDTH 140 0
BBX 126 103 7 1
BITMAP
00FFFFFFFFFFFFFFFFFFFFFFFFFFFC00
03FFFFFFFFFFFFFFFFFFFFFFFFFFFF00
07FFFFFFFFFFFFFFFFFFFFFFFFFFFFC0
0FFFFFFFFFFFFFFFFFFFFFFFFFFFFFE0
1FFFFFFFFFFFFFFFFFFFFFFFFFFFFFF0
3FFFFFFFFFFFFFFFFFFFFFFFFFFFFFF8
3FFFFFFFFFFFFFFFFFFFFFFFFFFFFFF8
7FFFFFFFFFFFFFFFFFFFFFFFFFFFFFFC
7FFFFFFFFFFFFFFFFFFFFFFFFFFFFFFC
7FFFFFFFFFFFFFFFFFFFFFFFFFFFFFFC
FFFFFFFFFFFFFFFFFFFFFFFFFFFFFFFC
FFFFFFFFFFFFFFFFFFFFFFFFFFFFFFFC
FFFFFFFFFFFFFFFFFFFFFFFFFFFFFFFC
7FFFFFFFFFFFFFFFFFFFFFFFFFFFFFFC
7FFFFFFFFFFFFFFFFFFFFFFFFFFFFFFC
7FFFFFFFFFFFFFFFFFFFFFFFFFFFFFFC
7FFFFFFFFFFFFFFFFFFFFFFFFFFFFFF8
3FFFFFFFFFFFFFFFFFFFFFFFFFFFFFF8
1FFFFFFFFFFFFFFFFFFFFFFFFFFFFFF0
1FFFFFFFFFFFFFFFFFFFFFFFFFFFFFE0
0FFFFFFFFFFFFFFFFFFFFFFFFFFFFFC0
03FFFFFFFFFFFFFFFFFFFFFFFFFFFF80
01FFFFFFFFFFFFFFFFFFFFFFFFFFFF00
000000000000000000003FFFFFFFFE00
00000000000000000000FFFFFFFFF800
00000000000000000001FFFFFFFFF000
00000000000000000003FFFFFFFFE000
0000000000000000000FFFFFFFFF8000
0000000000000000001FFFFFFFFF0000
0000000000000000003FFFFFFFFE0000
000000000000000000FFFFFFFFFC0000
000000000000000001FFFFFFFFF00000
000000000000000003FFFFFFFFE00000
000000000000000007FFFFFFFFC00000
00000000000000001FFFFFFFFF000000
00000000000000003FFFFFFFFE000000
00000000000000007FFFFFFFFC000000
0000000000000001FFFFFFFFF8000000
0000000000000003FFFFFFFFE0000000
0000000000000007FFFFFFFFC0000000
000000000000001FFFFFFFFF80000000
000000000000003FFFFFFFFE00000000
000000000000007FFFFFFFFC00000000
00000000000001FFFFFFFFF800000000
00000000000003FFFFFFFFF000000000
00000000000007FFFFFFFFC000000000
0000000000000FFFFFFFFF8000000000
0000000000003FFFFFFFFF0000000000
0000000000007FFFFFFFFC0000000000
000000000000FFFFFFFFF80000000000
000000000003FFFFFFFFF00000000000
000000000007FFFFFFFFE00000000000
00000000000FFFFFFFFF800000000000
00000000003FFFFFFFFF000000000000
00000000007FFFFFFFFE000000000000
0000000000FFFFFFFFF8000000000000
0000000001FFFFFFFFF0000000000000
0000000007FFFFFFFFE0000000000000
000000000FFFFFFFFFC0000000000000
000000001FFFFFFFFF00000000000000
000000007FFFFFFFFE00000000000000
00000000FFFFFFFFFC00000000000000
00000001FFFFFFFFF000000000000000
00000007FFFFFFFFE000000000000000
0000000FFFFFFFFFC000000000000000
0000001FFFFFFFFF8000000000000000
0000003FFFFFFFFE0000000000000000
000000FFFFFFFFFC0000000000000000
000001FFFFFFFFF80000000000000000
000003FFFFFFFFE00000000000000000
00000FFFFFFFFFC00000000000000000
00001FFFFFFFFF800000000000000000
00003FFFFFFFFF000000000000000000
0000FFFFFFFFFC000000000000000000
0001FFFFFFFFF8000000000000000000
0003FFFFFFFFF0000000000000000000
000FFFFFFFFFC0000000000000000000
001FFFFFFFFF80000000000000000000
003FFFFFFFFF00000000000000000000
007FFFFFFFFE00000000000000000000
01FFFFFFFFFFFFFFFFFFFFFFFFFFFE00
03FFFFFFFFFFFFFFFFFFFFFFFFFFFF80
07FFFFFFFFFFFFFFFFFFFFFFFFFFFFC0
1FFFFFFFFFFFFFFFFFFFFFFFFFFFFFE0
1FFFFFFFFFFFFFFFFFFFFFFFFFFFFFF0
3FFFFFFFFFFFFFFFFFFFFFFFFFFFFFF8
7FFFFFFFFFFFFFFFFFFFFFFFFFFFFFF8
7FFFFFFFFFFFFFFFFFFFFFFFFFFFFFFC
7FFFFFFFFFFFFFFFFFFFFFFFFFFFFFFC
7FFFFFFFFFFFFFFFFFFFFFFFFFFFFFFC
FFFFFFFFFFFFFFFFFFFFFFFFFFFFFFFC
FFFFFFFFFFFFFFFFFFFFFFFFFFFFFFFC
FFFFFFFFFFFFFFFFFFFFFFFFFFFFFFFC
7FFFFFFFFFFFFFFFFFFFFFFFFFFFFFFC
7FFFFFFFFFFFFFFFFFFFFFFFFFFFFFFC
7FFFFFFFFFFFFFFFFFFFFFFFFFFFFFFC
7FFFFFFFFFFFFFFFFFFFFFFFFFFFFFF8
3FFFFFFFFFFFFFFFFFFFFFFFFFFFFFF8
1FFFFFFFFFFFFFFFFFFFFFFFFFFFFFF0
0FFFFFFFFFFFFFFFFFFFFFFFFFFFFFE0
07FFFFFFFFFFFFFFFFFFFFFFFFFFFFC0
03FFFFFFFFFFFFFFFFFFFFFFFFFFFF80
00FFFFFFFFFFFFFFFFFFFFFFFFFFFE00
ENDCHAR
STARTCHAR 005B
ENCODING 91
SWIDTH 377 0
DWIDTH 68 0
BBX 41 175 18 -30
BITMAP
003FFFFFFC00
00FFFFFFFE00
03FFFFFFFF00
07FFFFFFFF80
0FFFFFFFFF80
1FFFFFFFFF80
1FFFFFFFFF80
3FFFFFFFFF80
7FFFFFFFFF80
7FFFFFFFFF80
7FFFFFFFFF00
FFFFFFFFFF00
FFFFFFFFFC00
FFFFFFFFF000
FFFFF0000000
FFFFF0000000
FFFFF0000000
FFFFF0000000
FFFFF0000000
FFFFF0000000
FFFFF0000000
FFFFF0000000
FFFFF0000000
FFFFF0000000
FFFFF0000000
FFFFF0000000
FFFFF0000000
FFFFF0000000
FFFFF0000000
FFFFF0000000
FFFFF0000000
FFFFF0000000
FFFFF0000000
FFFFF0000000
FFFFF0000000
FFFFF0000000
FFFFF0000000
FFFFF0000000
FFFFF0000000
FFFFF0000000
FFFFF0000000
FFFFF0000000
FFFFF0000000
FFFFF0000000
FFFFF0000000
FFFFF0000000
FFFFF0000000
FFFFF0000000
FFFFF0000000
FFFFF0000000
FFFFF0000000
FFFFF0000000
FFFFF0000000
FFFFF0000000
FFFFF0000000
FFFFF0000000
FFFFF0000000
FFFFF0000000
FFFFF0000000
FFFFF0000000
FFFFF0000000
FFFFF0000000
FFFFF0000000
FFFFF0000000
FFFFF0000000
FFFFF0000000
FFFFF0000000
FFFFF0000000
FFFFF0000000
FFFFF0000000
FFFFF0000000
FFFFF0000000
FFFFF0000000
FFFFF0000000
FFFFF0000000
FFFFF0000000
FFFFF0000000
FFFFF0000000
FFFFF0000000
FFFFF0000000
FFFFF0000000
FFFFF0000000
FFFFF0000000
FFFFF0000000
FFFFF0000000
FFFFF0000000
FFFFF0000000
FFFFF0000000
FFFFF0000000
FFFFF0000000
FFFFF0000000
FFFFF0000000
FFFFF0000000
FFFFF0000000
FFFFF0000000
FFFFF0000000
FFFFF0000000
FFFFF0000000
FFFFF0000000
FFFFF0000000
FFFFF0000000
FFFFF0000000
FFFFF0000000
FFFFF0000000
FFFFF0000000
FFFFF0000000
FFFFF0000000
FFFFF0000000
FFFFF0000000
FFFFF0000000
FFFFF0000000
FFFFF0000000
FFFFF0000000
FFFFF0000000
FFFFF0000000
FFFFF0000000
FFFFF0000000
FFFFF0000000
FFFFF0000000
FFFFF0000000
FFFFF0000000
FFFFF0000000
FFFFF0000000
FFFFF0000000
FFFFF0000000
FFFFF0000000
FFFFF0000000
FFFFF0000000
FFFFF0000000
FFFFF0000000
FFFFF0000000
FFFFF0000000
FFFFF0000000
FFFFF0000000
FFFFF0000000
FFFFF0000000
FFFFF0000000
FFFFF0000000
FFFFF0000000
FFFFF0000000
FFFFF0000000
FFFFF0000000
FFFFF0000000
FFFFF0000000
FFFFF0000000
FFFFF0000000
FFFFF0000000
FFFFF0000000
FFFFF0000000
FFFFF0000000
FFFFF0000000
FFFFF0000000
FFFFF0000000
FFFFF0000000
FFFFF0000000
FFFFF0000000
FFFFF0000000
FFFFF0000000
FFFFF0000000
FFFFF0000000
FFFFF0000000
FFFFFFFFF800
FFFFFFFFFE00
FFFFFFFFFF00
7FFFFFFFFF80
7FFFFFFFFF80
7FFFFFFFFF80
3FFFFFFFFF80
1FFFFFFFFF80
1FFFFFFFFF80
0FFFFFFFFF80
07FFFFFFFF00
01FFFFFFFF00
007FFFFFFE00
001FFFFFF800
ENDCHAR
STARTCHAR 005C
ENCODING 92
SWIDTH 388 0
DWIDTH 70 0
BBX 58 178 7 -34
BITMAP
0780000000000000
1FF0000000000000
3FF8000000000000
7FFE000000000000
FFFE000000000000
FFFF000000000000
FFFF800000000000
FFFF800000000000
FFFFC00000000000
FFFFC00000000000
7FFFC00000000000
7FFFC00000000000
7FFFE00000000000
7FFFE00000000000
3FFFE00000000000
3FFFE00000000000
3FFFF00000000000
3FFFF00000000000
1FFFF00000000000
1FFFF00000000000
1FFFF80000000000
1FFFF80000000000
0FFFF80000000000
0FFFF80000000000
0FFFFC0000000000
0FFFFC0000000000
07FFFC0000000000
07FFFC0000000000
07FFFE0000000000
07FFFE0000000000
03FFFE0000000000
03FFFE0000000000
03FFFF0000000000
03FFFF0000000000
01FFFF0000000000
01FFFF0000000000
01FFFF8000000000
01FFFF8000000000
00FFFF8000000000
00FFFF8000000000
00FFFFC000000000
00FFFFC000000000
007FFFC000000000
007FFFC000000000
007FFFE000000000
007FFFE000000000
003FFFE000000000
003FFFE000000000
003FFFF000000000
003FFFF000000000
001FFFF000000000
001FFFF000000000
001FFFF800000000
001FFFF800000000
000FFFF800000000
000FFFF800000000
000FFFFC00000000
000FFFFC00000000
0007FFFC00000000
0007FFFC00000000
0007FFFE00000000
0007FFFE00000000
0003FFFE00000000
0003FFFE00000000
0003FFFF00000000
0003FFFF00000000
0001FFFF00000000
0001FFFF00000000
0001FFFF80000000
0001FFFF80000000
0000FFFF80000000
0000FFFF80000000
0000FFFFC0000000
0000FFFFC0000000
00007FFFC0000000
00007FFFC0000000
00007FFFE0000000
00007FFFE0000000
00003FFFE0000000
00003FFFE0000000
00003FFFF0000000
00003FFFF0000000
00001FFFF0000000
00001FFFF0000000
00001FFFF8000000
00001FFFF8000000
00000FFFF8000000
00000FFFF8000000
00000FFFFC000000
00000FFFFC000000
000007FFFC000000
000007FFFE000000
000007FFFE000000
000007FFFE000000
000003FFFE000000
000003FFFF000000
000003FFFF000000
000003FFFF000000
000001FFFF000000
000001FFFF800000
000001FFFF800000
000001FFFF800000
000000FFFF800000
000000FFFFC00000
000000FFFFC00000
000000FFFFC00000
0000007FFFC00000
0000007FFFE00000
0000007FFFE00000
0000007FFFE00000
0000003FFFE00000
0000003FFFF00000
0000003FFFF00000
0000003FFFF00000
0000001FFFF00000
0000001FFFF80000
0000001FFFF80000
0000001FFFF80000
0000000FFFF80000
0000000FFFFC0000
0000000FFFFC0000
0000000FFFFC0000
00000007FFFC0000
00000007FFFE0000
00000007FFFE0000
00000007FFFE0000
00000003FFFE0000
00000003FFFF0000
00000003FFFF0000
00000003FFFF0000
00000001FFFF0000
00000001FFFF8000
00000001FFFF8000
00000001FFFF8000
00000000FFFF8000
00000000FFFFC000
00000000FFFFC000
00000000FFFFC000
000000007FFFC000
000000007FFFE000
000000007FFFE000
000000007FFFE000
000000003FFFE000
000000003FFFF000
000000003FFFF000
000000003FFFF000
000000001FFFF000
000000001FFFF800
000000001FFFF800
000000001FFFF800
000000000FFFF800
000000000FFFFC00
000000000FFFFC00
000000000FFFFC00
0000000007FFFC00
0000000007FFFE00
0000000007FFFE00
0000000007FFFE00
0000000003FFFE00
0000000003FFFF00
0000000003FFFF00
0000000003FFFF00
0000000001FFFF00
0000000001FFFF80
0000000001FFFF80
0000000001FFFF80
0000000000FFFF80
0000000000FFFFC0
0000000000FFFFC0
0000000000FFFFC0
00000000007FFFC0
00000000007FFFC0
00000000003FFFC0
00000000003FFFC0
00000000001FFFC0
00000000000FFF80
000000000003FF00
000000000000FC00
ENDCHAR
STARTCHAR 005D
ENCODING 93
SWIDTH 377 0
DWIDTH 68 0
BBX 41 175 9 -31
BITMAP
0FFFFFFC0000
3FFFFFFF0000
7FFFFFFFC000
FFFFFFFFE000
FFFFFFFFF800
FFFFFFFFF800
FFFFFFFFFC00
FFFFFFFFFE00
FFFFFFFFFE00
FFFFFFFFFF00
FFFFFFFFFF00
7FFFFFFFFF80
3FFFFFFFFF80
0FFFFFFFFF80
000007FFFF80
000007FFFF80
000007FFFF80
000007FFFF80
000007FFFF80
000007FFFF80
000007FFFF80
000007FFFF80
000007FFFF80
000007FFFF80
000007FFFF80
000007FFFF80
000007FFFF80
000007FFFF80
000007FFFF80
000007FFFF80
000007FFFF80
000007FFFF80
000007FFFF80
000007FFFF80
000007FFFF80
000007FFFF80
000007FFFF80
000007FFFF80
000007FFFF80
000007FFFF80
000007FFFF80
000007FFFF80
000007FFFF80
000007FFFF80
000007FFFF80
000007FFFF80
000007FFFF80
000007FFFF80
000007FFFF80
000007FFFF80
000007FFFF80
000007FFFF80
000007FFFF80
000007FFFF80
000007FFFF80
000007FFFF80
000007FFFF80
000007FFFF80
000007FFFF80
000007FFFF80
000007FFFF80
000007FFFF80
000007FFFF80
000007FFFF80
000007FFFF80
000007FFFF80
000007FFFF80
000007FFFF80
000007FFFF80
000007FFFF80
000007FFFF80
000007FFFF80
000007FFFF80
000007FFFF80
000007FFFF80
000007FFFF80
000007FFFF80
000007FFFF80
000007FFFF80
000007FFFF80
000007FFFF80
000007FFFF80
000007FFFF80
000007FFFF80
000007FFFF80
000007FFFF80
000007FFFF80
000007FFFF80
000007FFFF80
000007FFFF80
000007FFFF80
000007FFFF80
000007FFFF80
000007FFFF80
000007FFFF80
000007FFFF80
000007FFFF80
000007FFFF80
000007FFFF80
000007FFFF80
000007FFFF80
000007FFFF80
000007FFFF80
000007FFFF80
000007FFFF80
000007FFFF80
000007FFFF80
000007FFFF80
000007FFFF80
000007FFFF80
000007FFFF80
000007FFFF80
000007FFFF80
000007FFFF80
000007FFFF80
000007FFFF80
000007FFFF80
000007FFFF80
000007FFFF80
000007FFFF80
000007FFFF80
000007FFFF80
000007FFFF80
000007FFFF80
000007FFFF80
000007FFFF80
000007FFFF80
000007FFFF80
000007FFFF80
000007FFFF80
000007FFFF80
000007FFFF80
000007FFFF80
000007FFFF80
000007FFFF80
000007FFFF80
000007FFFF80
000007FFFF80
000007FFFF80
000007FFFF80
000007FFFF80
000007FFFF80
000007FFFF80
000007FFFF80
000007FFFF80
000007FFFF80
000007FFFF80
000007FFFF80
000007FFFF80
000007FFFF80
000007FFFF80
000007FFFF80
000007FFFF80
000007FFFF80
000007FFFF80
000007FFFF80
000007FFFF80
000007FFFF80
000007FFFF80
000007FFFF80
000007FFFF80
0FFFFFFFFF80
3FFFFFFFFF80
7FFFFFFFFF80
FFFFFFFFFF00
FFFFFFFFFF00
FFFFFFFFFE00
FFFFFFFFFE00
FFFFFFFFFC00
FFFFFFFFF800
FFFFFFFFF800
FFFFFFFFE000
7FFFFFFFC000
3FFFFFFF0000
0FFFFFFC0000
ENDCHAR
STARTCHAR 005E
ENCODING 94
SWIDTH 588 0
DWIDTH 106 0
BBX 78 81 14 56
BITMAP
000000000FC000000000
000000007FF800000000
00000001FFFE00000000
00000007FFFF80000000
0000000FFFFFC0000000
0000001FFFFFE0000000
0000003FFFFFF0000000
0000003FFFFFF0000000
0000007FFFFFF8000000
000000FFFFFFFC000000
000000FFFFFFFC000000
000000FFFFFFFC000000
000001FFFFFFFE000000
000001FFFFFFFE000000
000003FFFFFFFF000000
000003FFFFFFFF000000
000003FFFFFFFF000000
000007FFFFFFFF800000
000007FFFFFFFF800000
000007FFFFFFFF800000
00000FFFFFFFFFC00000
00000FFFFFFFFFC00000
00001FFFFFFFFFE00000
00001FFFFFFFFFE00000
00001FFFFCFFFFE00000
00003FFFFCFFFFF00000
00003FFFFCFFFFF00000
00007FFFF87FFFF80000
00007FFFF87FFFF80000
00007FFFF87FFFF80000
0000FFFFF03FFFFC0000
0000FFFFF03FFFFC0000
0001FFFFF03FFFFE0000
0001FFFFE01FFFFE0000
0001FFFFE01FFFFE0000
0003FFFFE01FFFFF0000
0003FFFFC00FFFFF0000
0003FFFFC00FFFFF8000
0007FFFFC00FFFFF8000
0007FFFF8007FFFF8000
000FFFFF8007FFFFC000
000FFFFF8007FFFFC000
000FFFFF0003FFFFC000
001FFFFF0003FFFFE000
001FFFFF0003FFFFE000
003FFFFE0001FFFFF000
003FFFFE0001FFFFF000
003FFFFE0001FFFFF000
007FFFFC0000FFFFF800
007FFFFC0000FFFFF800
00FFFFFC0000FFFFFC00
00FFFFF800007FFFFC00
00FFFFF800007FFFFC00
01FFFFF800007FFFFE00
01FFFFF000003FFFFE00
01FFFFF000003FFFFF00
03FFFFF000001FFFFF00
03FFFFE000001FFFFF00
07FFFFE000001FFFFF80
07FFFFC000000FFFFF80
07FFFFC000000FFFFFC0
0FFFFFC000000FFFFFC0
0FFFFF80000007FFFFC0
1FFFFF80000007FFFFE0
1FFFFF80000007FFFFE0
1FFFFF00000003FFFFE0
3FFFFF00000003FFFFF0
3FFFFF00000001FFFFF0
7FFFFE00000001FFFFF8
7FFFFE00000001FFFFF8
7FFFFE00000000FFFFF8
FFFFFC00000000FFFFFC
FFFFFC000000007FFFFC
FFFFF8000000007FFFFC
FFFFF0000000003FFFFC
7FFFE0000000001FFFFC
7FFFC0000000000FFFF8
3FFF800000000007FFF0
3FFF000000000001FFF0
0FFC0000000000007FC0
01800000000000000600
ENDCHAR
STARTCHAR 005F
ENCODING 95
SWIDTH 566 0
DWIDTH 102 0
BBX 98 16 2 -28
BITMAP
03FFFFFFFFFFFFFFFFFFFFF800
0FFFFFFFFFFFFFFFFFFFFFFE00
1FFFFFFFFFFFFFFFFFFFFFFF00
3FFFFFFFFFFFFFFFFFFFFFFF00
7FFFFFFFFFFFFFFFFFFFFFFF80
7FFFFFFFFFFFFFFFFFFFFFFF80
7FFFFFFFFFFFFFFFFFFFFFFFC0
FFFFFFFFFFFFFFFFFFFFFFFFC0
FFFFFFFFFFFFFFFFFFFFFFFFC0
7FFFFFFFFFFFFFFFFFFFFFFFC0
7FFFFFFFFFFFFFFFFFFFFFFF80
7FFFFFFFFFFFFFFFFFFFFFFF80
3FFFFFFFFFFFFFFFFFFFFFFF00
1FFFFFFFFFFFFFFFFFFFFFFF00
0FFFFFFFFFFFFFFFFFFFFFFE00
03FFFFFFFFFFFFFFFFFFFFF800
ENDCHAR
STARTCHAR 0060
ENCODING 96
SWIDTH 627 0
DWIDTH 113 0
BBX 40 40 25 120
BITMAP
007E000000
01FFC00000
07FFE00000
0FFFF00000
1FFFF80000
3FFFFC0000
3FFFFE0000
7FFFFF0000
7FFFFF8000
7FFFFF8000
FFFFFFC000
FFFFFFE000
FFFFFFF000
FFFFFFF800
7FFFFFFC00
7FFFFFFE00
7FFFFFFE00
3FFFFFFF00
3FFFFFFF80
1FFFFFFFC0
0FFFFFFFE0
07FFFFFFF0
03FFFFFFF0
01FFFFFFF8
007FFFFFFC
003FFFFFFE
001FFFFFFE
000FFFFFFF
0007FFFFFF
0003FFFFFF
0001FFFFFF
0000FFFFFF
00003FFFFF
00001FFFFF
00000FFFFE
000007FFFE
000003FFFC
000001FFF8
000000FFF0
0000003FC0
ENDCHAR
STARTCHAR 0061
ENCODING 97
SWIDTH 805 0
DWIDTH 145 0
BBX 124 82 9 -1
BITMAP
00000001FFFFFFFFFFFFFFFFFFFFF000
0000003FFFFFFFFFFFFFFFFFFFFFFC00
000001FFFFFFFFFFFFFFFFFFFFFFFF00
00000FFFFFFFFFFFFFFFFFFFFFFFFF80
00001FFFFFFFFFFFFFFFFFFFFFFFFFC0
00007FFFFFFFFFFFFFFFFFFFFFFFFFC0
0000FFFFFFFFFFFFFFFFFFFFFFFFFFE0
0003FFFFFFFFFFFFFFFFFFFFFFFFFFE0
0007FFFFFFFFFFFFFFFFFFFFFFFFFFF0
000FFFFFFFFFFFFFFFFFFFFFFFFFFFF0
001FFFFFFFFFFFFFFFFFFFFFFFFFFFF0
003FFFFFFFFFFFFFFFFFFFFFFFFFFFF0
007FFFFFFFFFFFFFFFFFFFFFFFFFFFF0
007FFFFFFFFFFFFFFFFFFFFFFFFFFFF0
00FFFFFFFFFFFFFFFFFFFFFFFFFFFFF0
01FFFFFFFFFFFFFFFFFFFFFFFFFFFFF0
03FFFFFFFFFFFFFFFFFFFFFFFFFFFFF0
03FFFFFFFFFFFFFFFFFFFFFFFFFFFFF0
07FFFFFFFFFFFFFFFFFFFFFFFFFFFFF0
07FFFFFFFFFFFFFFFFFFFFFFFFFFFFF0
0FFFFFFFFFFFFFFFFFFFFFFFFFFFFFF0
0FFFFFFFFFFFFFFFFFFFFFFFFFFFFFF0
1FFFFFFFFFFFFFFFFFFFFFFFFFFFFFF0
1FFFFFFFC000000000000000FFFFFFF0
3FFFFFFE00000000000000001FFFFFF0
3FFFFFF800000000000000000FFFFFF0
3FFFFFF000000000000000000FFFFFF0
3FFFFFE000000000000000000FFFFFF0
7FFFFFE000000000000000000FFFFFF0
7FFFFFC000000000000000000FFFFFF0
7FFFFFC000000000000000000FFFFFF0
7FFFFF8000000000000000000FFFFFF0
FFFFFF8000000000000000000FFFFFF0
FFFFFF8000000000000000000FFFFFF0
FFFFFF0000000000000000000FFFFFF0
FFFFFF0000000000000000000FFFFFF0
FFFFFF0000000000000000000FFFFFF0
FFFFFF0000000000000000000FFFFFF0
FFFFFF0000000000000000000FFFFFF0
FFFFFF0000000000000000000FFFFFF0
FFFFFF0000000000000000000FFFFFF0
FFFFFF0000000000000000000FFFFFF0
FFFFFF0000000000000000000FFFFFF0
FFFFFF0000000000000000000FFFFFF0
FFFFFF0000000000000000000FFFFFF0
FFFFFF0000000000000000000FFFFFF0
FFFFFF8000000000000000000FFFFFF0
FFFFFF8000000000000000000FFFFFF0
7FFFFF8000000000000000000FFFFFF0
7FFFFFC000000000000000000FFFFFF0
7FFFFFC000000000000000000FFFFFF0
7FFFFFE000000000000000000FFFFFF0
7FFFFFF000000000000000000FFFFFF0
3FFFFFF800000000000000000FFFFFF0
3FFFFFFC00000000000000000FFFFFF0
3FFFFFFE00000000000000000FFFFFF0
1FFFFFFFFFFFFFFFFFFFC0000FFFFFF0
1FFFFFFFFFFFFFFFFFFFF8000FFFFFF0
0FFFFFFFFFFFFFFFFFFFFC000FFFFFF0
0FFFFFFFFFFFFFFFFFFFFF000FFFFFF0
07FFFFFFFFFFFFFFFFFFFF000FFFFFF0
07FFFFFFFFFFFFFFFFFFFF800FFFFFF0
03FFFFFFFFFFFFFFFFFFFFC00FFFFFF0
03FFFFFFFFFFFFFFFFFFFFC00FFFFFF0
01FFFFFFFFFFFFFFFFFFFFE00FFFFFF0
00FFFFFFFFFFFFFFFFFFFFE00FFFFFF0
007FFFFFFFFFFFFFFFFFFFE00FFFFFF0
007FFFFFFFFFFFFFFFFFFFE00FFFFFF0
003FFFFFFFFFFFFFFFFFFFE00FFFFFF0
001FFFFFFFFFFFFFFFFFFFE00FFFFFF0
000FFFFFFFFFFFFFFFFFFFE00FFFFFF0
0007FFFFFFFFFFFFFFFFFFC00FFFFFF0
0003FFFFFFFFFFFFFFFFFFC007FFFFF0
0000FFFFFFFFFFFFFFFFFFC007FFFFF0
00007FFFFFFFFFFFFFFFFF8007FFFFE0
00001FFFFFFFFFFFFFFFFF0003FFFFE0
00000FFFFFFFFFFFFFFFFE0003FFFFC0
000001FFFFFFFFFFFFFFFC0001FFFF80
0000003FFFFFFFFFFFFFF00000FFFF00
000000007FFFFFFFFFFF8000007FFE00
000000000000000000000000001FFC00
0000000000000000000000000003E000
ENDCHAR
STARTCHAR 0062
ENCODING 98
SWIDTH 794 0
DWIDTH 143 0
BBX 124 107 11 0
BITMAP
007E0000000000000000000000000000
03FFC000000000000000000000000000
07FFE000000000000000000000000000
0FFFF000000000000000000000000000
1FFFF800000000000000000000000000
3FFFFC00000000000000000000000000
7FFFFC00000000000000000000000000
7FFFFE00000000000000000000000000
FFFFFE00000000000000000000000000
FFFFFE00000000000000000000000000
FFFFFF00000000000000000000000000
FFFFFF00000000000000000000000000
FFFFFF00000000000000000000000000
FFFFFF00000000000000000000000000
FFFFFF00000000000000000000000000
FFFFFF00000000000000000000000000
FFFFFF00000000000000000000000000
FFFFFF00000000000000000000000000
FFFFFF00000000000000000000000000
FFFFFF00000000000000000000000000
FFFFFF00000000000000000000000000
FFFFFF00000000000000000000000000
FFFFFF00000000000000000000000000
FFFFFF00000000000000000000000000
FFFFFF00000000000000000000000000
FFFFFF00000000000000000000000000
FFFFFF00000000000000000000000000
FFFFFF00007FFFFFFFFFFFFF00000000
FFFFFF0001FFFFFFFFFFFFFFF0000000
FFFFFF0003FFFFFFFFFFFFFFFC000000
FFFFFF000FFFFFFFFFFFFFFFFF800000
FFFFFF000FFFFFFFFFFFFFFFFFC00000
FFFFFF001FFFFFFFFFFFFFFFFFF00000
FFFFFF003FFFFFFFFFFFFFFFFFF80000
FFFFFF003FFFFFFFFFFFFFFFFFFC0000
FFFFFF007FFFFFFFFFFFFFFFFFFE0000
FFFFFF007FFFFFFFFFFFFFFFFFFF0000
FFFFFF007FFFFFFFFFFFFFFFFFFF8000
FFFFFF007FFFFFFFFFFFFFFFFFFFC000
FFFFFF007FFFFFFFFFFFFFFFFFFFE000
FFFFFF007FFFFFFFFFFFFFFFFFFFF000
FFFFFF007FFFFFFFFFFFFFFFFFFFF800
FFFFFF003FFFFFFFFFFFFFFFFFFFF800
FFFFFF003FFFFFFFFFFFFFFFFFFFFC00
FFFFFF001FFFFFFFFFFFFFFFFFFFFE00
FFFFFF001FFFFFFFFFFFFFFFFFFFFE00
FFFFFF000FFFFFFFFFFFFFFFFFFFFF00
FFFFFF0007FFFFFFFFFFFFFFFFFFFF00
FFFFFF0003FFFFFFFFFFFFFFFFFFFF80
FFFFFF0000FFFFFFFFFFFFFFFFFFFF80
FFFFFF00000000000000001FFFFFFF80
FFFFFF000000000000000003FFFFFFC0
FFFFFF000000000000000001FFFFFFC0
FFFFFF000000000000000000FFFFFFC0
FFFFFF0000000000000000007FFFFFE0
FFFFFF0000000000000000007FFFFFE0
FFFFFF0000000000000000003FFFFFE0
FFFFFF0000000000000000001FFFFFE0
FFFFFF0000000000000000001FFFFFF0
FFFFFF0000000000000000001FFFFFF0
FFFFFF0000000000000000000FFFFFF0
FFFFFF0000000000000000000FFFFFF0
FFFFFF0000000000000000000FFFFFF0
FFFFFF0000000000000000000FFFFFF0
FFFFFF0000000000000000000FFFFFF0
FFFFFF0000000000000000000FFFFFF0
FFFFFF0000000000000000000FFFFFF0
FFFFFF0000000000000000000FFFFFF0
FFFFFF0000000000000000000FFFFFF0
FFFFFF0000000000000000000FFFFFF0
FFFFFF0000000000000000000FFFFFF0
FFFFFF0000000000000000000FFFFFF0
FFFFFF0000000000000000000FFFFFF0
FFFFFF0000000000000000001FFFFFF0
FFFFFF0000000000000000001FFFFFF0
FFFFFF0000000000000000001FFFFFE0
FFFFFF0000000000000000003FFFFFE0
FFFFFF0000000000000000003FFFFFE0
FFFFFF0000000000000000007FFFFFE0
FFFFFF000000000000000000FFFFFFC0
FFFFFF000000000000000001FFFFFFC0
FFFFFF800000000000000003FFFFFFC0
FFFFFFC00000000000000007FFFFFF80
FFFFFFFFFFFFFFFFFFFFFFFFFFFFFF80
FFFFFFFFFFFFFFFFFFFFFFFFFFFFFF80
FFFFFFFFFFFFFFFFFFFFFFFFFFFFFF00
FFFFFFFFFFFFFFFFFFFFFFFFFFFFFF00
FFFFFFFFFFFFFFFFFFFFFFFFFFFFFE00
FFFFFFFFFFFFFFFFFFFFFFFFFFFFFE00
FFFFFFFFFFFFFFFFFFFFFFFFFFFFFC00
FFFFFFFFFFFFFFFFFFFFFFFFFFFFF800
FFFFFFFFFFFFFFFFFFFFFFFFFFFFF800
FFFFFFFFFFFFFFFFFFFFFFFFFFFFF000
FFFFFFFFFFFFFFFFFFFFFFFFFFFFE000
FFFFFFFFFFFFFFFFFFFFFFFFFFFFC000
FFFFFFFFFFFFFFFFFFFFFFFFFFFF8000
FFFFFFFFFFFFFFFFFFFFFFFFFFFF0000
FFFFFFFFFFFFFFFFFFFFFFFFFFFE0000
7FFFFFFFFFFFFFFFFFFFFFFFFFFC0000
7FFFFFFFFFFFFFFFFFFFFFFFFFF80000
7FFFFFFFFFFFFFFFFFFFFFFFFFF00000
3FFFFFFFFFFFFFFFFFFFFFFFFFC00000
1FFFFFFFFFFFFFFFFFFFFFFFFF800000
0FFFFFFFFFFFFFFFFFFFFFFFFE000000
07FFFFFFFFFFFFFFFFFFFFFFF0000000
01FFFFFFFFFFFFFFFFFFFFFF00000000
001FFFFFFFFFFFFFFFFFFF0000000000
ENDCHAR
STARTCHAR 0063
ENCODING 99
SWIDTH 722 0
DWIDTH 130 0
BBX 114 80 8 1
BITMAP
00000007FFFFFFFFFFFFFFFFFFC000
0000007FFFFFFFFFFFFFFFFFFFF000
000003FFFFFFFFFFFFFFFFFFFFFC00
00000FFFFFFFFFFFFFFFFFFFFFFE00
00003FFFFFFFFFFFFFFFFFFFFFFF00
00007FFFFFFFFFFFFFFFFFFFFFFF00
0000FFFFFFFFFFFFFFFFFFFFFFFF80
0003FFFFFFFFFFFFFFFFFFFFFFFF80
0007FFFFFFFFFFFFFFFFFFFFFFFFC0
000FFFFFFFFFFFFFFFFFFFFFFFFFC0
001FFFFFFFFFFFFFFFFFFFFFFFFFC0
003FFFFFFFFFFFFFFFFFFFFFFFFFC0
003FFFFFFFFFFFFFFFFFFFFFFFFFC0
007FFFFFFFFFFFFFFFFFFFFFFFFFC0
00FFFFFFFFFFFFFFFFFFFFFFFFFFC0
01FFFFFFFFFFFFFFFFFFFFFFFFFFC0
01FFFFFFFFFFFFFFFFFFFFFFFFFF80
03FFFFFFFFFFFFFFFFFFFFFFFFFF80
03FFFFFFFFFFFFFFFFFFFFFFFFFF00
07FFFFFFFFFFFFFFFFFFFFFFFFFE00
07FFFFFFFFFFFFFFFFFFFFFFFFFC00
0FFFFFFFFFFFFFFFFFFFFFFFFFF800
0FFFFFFFFFFFFFFFFFFFFFFFFFE000
1FFFFFFFC000000000000000000000
1FFFFFFE0000000000000000000000
1FFFFFFC0000000000000000000000
3FFFFFF80000000000000000000000
3FFFFFF00000000000000000000000
3FFFFFE00000000000000000000000
3FFFFFE00000000000000000000000
7FFFFFC00000000000000000000000
7FFFFFC00000000000000000000000
7FFFFF800000000000000000000000
7FFFFF800000000000000000000000
7FFFFF800000000000000000000000
7FFFFF800000000000000000000000
7FFFFF800000000000000000000000
FFFFFF000000000000000000000000
FFFFFF000000000000000000000000
FFFFFF000000000000000000000000
FFFFFF000000000000000000000000
FFFFFF000000000000000000000000
7FFFFF800000000000000000000000
7FFFFF800000000000000000000000
7FFFFF800000000000000000000000
7FFFFF800000000000000000000000
7FFFFF800000000000000000000000
7FFFFFC00000000000000000000000
7FFFFFC00000000000000000000000
3FFFFFE00000000000000000000000
3FFFFFE00000000000000000000000
3FFFFFF00000000000000000000000
3FFFFFF00000000000000000000000
1FFFFFF80000000000000000000000
1FFFFFFC0000000000000000000000
1FFFFFFF0000000000000000000000
0FFFFFFFFFFFFFFFFFFFFFFFFF8000
0FFFFFFFFFFFFFFFFFFFFFFFFFF000
07FFFFFFFFFFFFFFFFFFFFFFFFFC00
07FFFFFFFFFFFFFFFFFFFFFFFFFE00
03FFFFFFFFFFFFFFFFFFFFFFFFFF00
03FFFFFFFFFFFFFFFFFFFFFFFFFF00
01FFFFFFFFFFFFFFFFFFFFFFFFFF80
01FFFFFFFFFFFFFFFFFFFFFFFFFF80
00FFFFFFFFFFFFFFFFFFFFFFFFFFC0
007FFFFFFFFFFFFFFFFFFFFFFFFFC0
003FFFFFFFFFFFFFFFFFFFFFFFFFC0
003FFFFFFFFFFFFFFFFFFFFFFFFFC0
001FFFFFFFFFFFFFFFFFFFFFFFFFC0
000FFFFFFFFFFFFFFFFFFFFFFFFFC0
0007FFFFFFFFFFFFFFFFFFFFFFFFC0
0003FFFFFFFFFFFFFFFFFFFFFFFFC0
0000FFFFFFFFFFFFFFFFFFFFFFFF80
00007FFFFFFFFFFFFFFFFFFFFFFF80
00003FFFFFFFFFFFFFFFFFFFFFFF00
00000FFFFFFFFFFFFFFFFFFFFFFE00
000003FFFFFFFFFFFFFFFFFFFFFC00
0000007FFFFFFFFFFFFFFFFFFFF800
00000007FFFFFFFFFFFFFFFFFFE000
000000000FFFFFFFFFFFFFFFFF0000
ENDCHAR
ENDFONT
